<?xml version="1.0" encoding="UTF-8"?>
<svg version="1.1" xmlns="http://www.w3.org/2000/svg" width="1308" height="736">
<path d="M0 0 C431.64 0 863.28 0 1308 0 C1308 242.88 1308 485.76 1308 736 C876.36 736 444.72 736 0 736 C0 493.12 0 250.24 0 0 Z " fill="#D4E08F" transform="translate(0,0)"/>
<path d="M0 0 C1.27467636 -0.00067978 1.27467636 -0.00067978 2.57510376 -0.00137329 C16.1208888 0.01972582 29.03421091 1.16716875 42.33398438 3.85351562 C46.00050884 4.55427585 49.68339232 5.06699147 53.38061523 5.57617188 C60.8547275 6.60718 67.93249712 7.84699608 75.0625 10.375 C77.34491988 11.14799961 79.62985932 11.91317297 81.91552734 12.67651367 C83.52297774 13.21472394 85.1288557 13.75765973 86.73291016 14.3059082 C90.48926337 15.57903463 94.13523892 16.73221475 98.0625 17.375 C98.0625 18.035 98.0625 18.695 98.0625 19.375 C98.58328125 19.48714844 99.1040625 19.59929687 99.640625 19.71484375 C102.79107803 20.57359627 105.77079519 21.75123512 108.8125 22.9375 C109.98296875 23.39253906 111.1534375 23.84757812 112.359375 24.31640625 C113.25140625 24.66574219 114.1434375 25.01507813 115.0625 25.375 C115.0625 26.035 115.0625 26.695 115.0625 27.375 C118.0325 28.365 121.0025 29.355 124.0625 30.375 C124.0625 31.035 124.0625 31.695 124.0625 32.375 C124.92488281 32.57996094 124.92488281 32.57996094 125.8046875 32.7890625 C127.97747858 33.35293562 130.07154159 34.00177136 132.1875 34.75 C133.21230469 35.10191406 133.21230469 35.10191406 134.2578125 35.4609375 C136.0625 36.375 136.0625 36.375 138.0625 39.375 C139.70040712 40.42144066 141.37258021 41.4148183 143.0625 42.375 C145.10299422 43.6454964 147.11267465 44.96931196 149.0625 46.375 C149.0625 47.035 149.0625 47.695 149.0625 48.375 C151.5375 48.87 151.5375 48.87 154.0625 49.375 C154.1553125 50.303125 154.1553125 50.303125 154.25 51.25 C154.518125 51.95125 154.78625 52.6525 155.0625 53.375 C155.77019531 53.63925781 156.47789062 53.90351562 157.20703125 54.17578125 C160.883988 55.72000248 163.59304124 58.09352965 166.5625 60.6875 C167.11808594 61.16123047 167.67367187 61.63496094 168.24609375 62.12304688 C172.53271002 65.80953687 176.49255473 69.76374038 180.4375 73.8125 C183.07965441 76.39174597 185.83738107 78.72399771 188.70703125 81.04296875 C189.15433594 81.48253906 189.60164063 81.92210937 190.0625 82.375 C190.0625 83.035 190.0625 83.695 190.0625 84.375 C190.9596875 84.7771875 190.9596875 84.7771875 191.875 85.1875 C194.82851444 86.79083641 196.56489484 88.31344233 198 91.375 C199.28230696 93.78875428 200.88480435 94.77802319 203.0625 96.375 C203.0625 97.035 203.0625 97.695 203.0625 98.375 C203.7225 98.375 204.3825 98.375 205.0625 98.375 C205.3925 99.365 205.7225 100.355 206.0625 101.375 C206.866875 102.179375 207.67125 102.98375 208.5 103.8125 C210.76642579 106.07892579 211.67836782 107.60673564 213.0625 110.375 C214.0525 110.705 215.0425 111.035 216.0625 111.375 C216.0625 112.365 216.0625 113.355 216.0625 114.375 C216.7225 114.375 217.3825 114.375 218.0625 114.375 C218.38863281 114.98988281 218.71476562 115.60476562 219.05078125 116.23828125 C219.70626953 117.45064453 219.70626953 117.45064453 220.375 118.6875 C220.80425781 119.48800781 221.23351563 120.28851563 221.67578125 121.11328125 C222.94763836 123.38494506 222.94763836 123.38494506 224.66796875 124.98046875 C226.0625 126.375 226.0625 126.375 227.0625 129.375 C228.0525 130.035 229.0425 130.695 230.0625 131.375 C230.75 134.5 230.75 134.5 231.0625 137.375 C231.7225 137.375 232.3825 137.375 233.0625 137.375 C233.0625 235.385 233.0625 333.395 233.0625 434.375 C232.4025 434.375 231.7425 434.375 231.0625 434.375 C230.815 435.035 230.5675 435.695 230.3125 436.375 C227.65051332 442.76376804 225.25143212 447.6067921 220.0625 452.375 C219.7325 453.035 219.4025 453.695 219.0625 454.375 C218.4025 454.375 217.7425 454.375 217.0625 454.375 C216.7325 455.695 216.4025 457.015 216.0625 458.375 C215.4025 458.375 214.7425 458.375 214.0625 458.375 C213.7325 459.695 213.4025 461.015 213.0625 462.375 C212.4025 462.375 211.7425 462.375 211.0625 462.375 C211.0625 463.035 211.0625 463.695 211.0625 464.375 C210.4025 464.375 209.7425 464.375 209.0625 464.375 C208.794375 464.95765625 208.52625 465.5403125 208.25 466.140625 C207.04769009 468.40286601 205.72424087 470.18076318 204.0625 472.125 C203.546875 472.73859375 203.03125 473.3521875 202.5 473.984375 C201.0625 475.375 201.0625 475.375 199.0625 475.375 C199.0625 476.365 199.0625 477.355 199.0625 478.375 C198.134375 478.4678125 198.134375 478.4678125 197.1875 478.5625 C196.48625 478.830625 195.785 479.09875 195.0625 479.375 C194.794375 480.096875 194.52625 480.81875 194.25 481.5625 C192.56145666 485.5616816 189.61133641 487.93935992 186.0625 490.375 C185.4025 490.375 184.7425 490.375 184.0625 490.375 C183.9696875 491.2721875 183.9696875 491.2721875 183.875 492.1875 C182.72414586 495.28595345 180.95615887 495.92817057 178.0625 497.375 C177.0725 497.705 176.0825 498.035 175.0625 498.375 C174.753125 499.035 174.44375 499.695 174.125 500.375 C173.0625 502.375 173.0625 502.375 170.9375 503.125 C170.31875 503.2075 169.7 503.29 169.0625 503.375 C169.0625 504.035 169.0625 504.695 169.0625 505.375 C167.33828573 506.58985385 165.55615116 507.72318704 163.75 508.8125 C160.47258439 510.79608618 157.72322452 512.63315583 155.0625 515.375 C152.875 516.0625 152.875 516.0625 151.0625 516.375 C151.0625 517.035 151.0625 517.695 151.0625 518.375 C150.50820312 518.62894531 149.95390625 518.88289062 149.3828125 519.14453125 C148.65835938 519.48871094 147.93390625 519.83289063 147.1875 520.1875 C146.46820312 520.52394531 145.74890625 520.86039063 145.0078125 521.20703125 C142.75707194 522.36967097 142.75707194 522.36967097 141.0625 525.375 C138.43893538 526.36015378 135.81725877 526.79738929 133.0625 527.375 C133.0625 528.035 133.0625 528.695 133.0625 529.375 C130.52330994 530.67173602 127.98135762 531.96247837 125.4375 533.25 C124.72464844 533.61480469 124.01179688 533.97960937 123.27734375 534.35546875 C119.26972102 536.3776637 115.36609011 538.05129203 111.0625 539.375 C109.7053202 539.88793052 108.35070612 540.40775694 107 540.9375 C104.04391095 542.06092732 101.19880916 542.88495169 98.0625 543.375 C98.0625 544.035 98.0625 544.695 98.0625 545.375 C93.89638513 546.87052842 89.75345411 547.94930823 85.43359375 548.8671875 C83.83853943 549.20879716 82.24727106 549.56853402 80.66015625 549.9453125 C76.71993108 550.87628084 73.14430765 551.63834243 69.0625 551.375 C69.0625 552.035 69.0625 552.695 69.0625 553.375 C66.56306796 553.85729332 64.06301757 554.33589426 61.5625 554.8125 C60.86640625 554.94720703 60.1703125 555.08191406 59.453125 555.22070312 C55.83893689 555.90672957 52.24959733 556.49316116 48.59375 556.91015625 C45.24856576 556.98600978 45.24856576 556.98600978 44.0625 558.375 C40.67674912 558.61738898 37.29782731 558.76662281 33.90625 558.89257812 C29.41648261 559.09630901 25.01619644 559.50310299 20.56228638 560.11677551 C8.45316995 561.7415175 -3.61321781 561.68274847 -15.8125 561.625 C-16.95778168 561.62223053 -18.10306335 561.61946106 -19.28305054 561.61660767 C-38.15179216 561.56330011 -56.90280202 560.97423522 -75.71484375 559.54290771 C-78.08953465 559.36351474 -80.46461852 559.19023544 -82.83984375 559.01806641 C-98.09450217 557.90974745 -113.3415247 556.75758754 -128.5625 555.25 C-138.28538316 554.29190567 -148.01763055 553.97315587 -157.78173828 553.71630859 C-158.94044434 553.6848877 -160.09915039 553.6534668 -161.29296875 553.62109375 C-162.31028076 553.59716553 -163.32759277 553.5732373 -164.37573242 553.54858398 C-167.23863158 553.4090596 -170.03697264 553.16558354 -172.88525391 552.87060547 C-179.3332472 552.26624781 -185.76745227 552.22285144 -192.23785973 552.20571709 C-196.11957987 552.19414669 -200.00117822 552.16322584 -203.8828125 552.13574219 C-204.70870471 552.13027091 -205.53459692 552.12479963 -206.38551617 552.11916256 C-238.49419559 551.90174646 -270.56239818 551.15448836 -302.6413002 549.74576187 C-305.38450053 549.62728893 -308.12788797 549.51513959 -310.87142944 549.40487671 C-344.53653711 548.03660031 -377.77914071 544.40685601 -410.9375 538.375 C-410.9375 537.715 -410.9375 537.055 -410.9375 536.375 C-418.8575 534.89 -418.8575 534.89 -426.9375 533.375 C-426.9375 532.715 -426.9375 532.055 -426.9375 531.375 C-428.195625 531.16875 -429.45375 530.9625 -430.75 530.75 C-437.85398132 529.19635591 -443.94214145 525.3719057 -449.9375 521.375 C-449.9375 520.715 -449.9375 520.055 -449.9375 519.375 C-452.2475 518.715 -454.5575 518.055 -456.9375 517.375 C-456.9375 516.715 -456.9375 516.055 -456.9375 515.375 C-457.5975 515.375 -458.2575 515.375 -458.9375 515.375 C-458.9375 514.715 -458.9375 514.055 -458.9375 513.375 C-459.515 513.271875 -460.0925 513.16875 -460.6875 513.0625 C-463.31877015 512.25850079 -464.92438093 511.24432485 -466.9375 509.375 C-466.9375 508.385 -466.9375 507.395 -466.9375 506.375 C-467.5975 506.375 -468.2575 506.375 -468.9375 506.375 C-468.9375 505.715 -468.9375 505.055 -468.9375 504.375 C-470.05125 504.0346875 -470.05125 504.0346875 -471.1875 503.6875 C-474.48065164 502.11576853 -475.71228157 500.22606111 -477.9375 497.375 C-479.236875 496.6325 -479.236875 496.6325 -480.5625 495.875 C-482.9375 494.375 -482.9375 494.375 -483.828125 492.08984375 C-485.11874184 488.93146804 -486.80549637 486.98940828 -489.0625 484.4375 C-492.70077404 480.10931014 -495.71020688 475.72860563 -498.5 470.8125 C-498.84627441 470.2047876 -499.19254883 469.5970752 -499.54931641 468.97094727 C-501.9375 464.6557255 -501.9375 464.6557255 -501.9375 462.375 C-502.5975 462.375 -503.2575 462.375 -503.9375 462.375 C-504.15664063 461.7665625 -504.37578125 461.158125 -504.6015625 460.53125 C-504.91867187 459.6546875 -505.23578125 458.778125 -505.5625 457.875 C-505.92472656 456.86824219 -506.28695312 455.86148437 -506.66015625 454.82421875 C-507.55343351 452.41209697 -508.4709529 450.02812571 -509.43359375 447.64453125 C-509.82200439 446.66226563 -509.82200439 446.66226563 -510.21826172 445.66015625 C-510.96066864 443.78674966 -511.71630013 441.91859968 -512.47265625 440.05078125 C-516.75333359 427.50466863 -517.40210223 414.90261895 -517.27368164 401.7800293 C-517.24967461 399.15187827 -517.25320172 396.52472031 -517.25976562 393.89648438 C-517.25419949 392.20832732 -517.24709638 390.52017447 -517.23828125 388.83203125 C-517.23919266 388.05495316 -517.24010406 387.27787506 -517.24104309 386.47724915 C-517.18652239 382.3087631 -516.7032841 379.14664357 -514.9375 375.375 C-514.35490744 372.06959638 -513.93093627 368.76180694 -513.5 365.43359375 C-512.98098824 362.61146729 -512.24733147 360.87467838 -510.9375 358.375 C-510.4407206 356.48887601 -509.98561192 354.59150362 -509.5625 352.6875 C-508.2266474 347.20521382 -506.44179344 342.41518679 -503.9375 337.375 C-503.37417969 336.22257812 -502.81085937 335.07015625 -502.23046875 333.8828125 C-494.80522532 318.80886266 -494.80522532 318.80886266 -491.9375 317.375 C-491.0969585 315.96552054 -490.31261266 314.52211412 -489.5625 313.0625 C-487.71546987 309.64086307 -486.03142134 306.82879968 -482.9375 304.375 C-482.2775 304.375 -481.6175 304.375 -480.9375 304.375 C-480.69 303.611875 -480.4425 302.84875 -480.1875 302.0625 C-478.81619328 299.11419055 -477.7023921 298.01665468 -474.9375 296.375 C-474.2775 296.375 -473.6175 296.375 -472.9375 296.375 C-472.84210937 295.78074219 -472.74671875 295.18648438 -472.6484375 294.57421875 C-471.78421083 291.90081428 -470.71749689 290.9560523 -468.5625 289.1875 C-467.95664062 288.67832031 -467.35078125 288.16914063 -466.7265625 287.64453125 C-464.9375 286.375 -464.9375 286.375 -461.9375 285.375 C-461.6075 284.385 -461.2775 283.395 -460.9375 282.375 C-457.9375 280.375 -457.9375 280.375 -454.9375 280.375 C-454.875625 279.75625 -454.81375 279.1375 -454.75 278.5 C-453.9375 276.375 -453.9375 276.375 -451.375 275.125 C-450.570625 274.8775 -449.76625 274.63 -448.9375 274.375 C-448.9375 273.715 -448.9375 273.055 -448.9375 272.375 C-447.27083333 271.375 -445.60416667 270.375 -443.9375 269.375 C-443.050625 268.488125 -442.16375 267.60125 -441.25 266.6875 C-440.486875 265.924375 -439.72375 265.16125 -438.9375 264.375 C-438.2775 264.375 -437.6175 264.375 -436.9375 264.375 C-436.9375 263.715 -436.9375 263.055 -436.9375 262.375 C-436.2775 262.375 -435.6175 262.375 -434.9375 262.375 C-434.9375 261.715 -434.9375 261.055 -434.9375 260.375 C-434.2775 260.375 -433.6175 260.375 -432.9375 260.375 C-432.9375 259.715 -432.9375 259.055 -432.9375 258.375 C-431.6175 258.045 -430.2975 257.715 -428.9375 257.375 C-428.9375 256.715 -428.9375 256.055 -428.9375 255.375 C-427.2875 255.045 -425.6375 254.715 -423.9375 254.375 C-423.9375 253.715 -423.9375 253.055 -423.9375 252.375 C-422.0390625 250.8671875 -422.0390625 250.8671875 -419.5625 249.25 C-418.75039063 248.71117187 -417.93828125 248.17234375 -417.1015625 247.6171875 C-414.9375 246.375 -414.9375 246.375 -412.9375 246.375 C-412.9375 245.715 -412.9375 245.055 -412.9375 244.375 C-411.29296875 242.8671875 -411.29296875 242.8671875 -409.125 241.25 C-408.41730469 240.71117187 -407.70960938 240.17234375 -406.98046875 239.6171875 C-404.9375 238.375 -404.9375 238.375 -401.9375 238.375 C-401.9375 237.715 -401.9375 237.055 -401.9375 236.375 C-400.9475 236.375 -399.9575 236.375 -398.9375 236.375 C-398.9375 235.385 -398.9375 234.395 -398.9375 233.375 C-396.99424908 231.57055272 -395.54400153 230.50767221 -392.9375 229.9375 C-390.14130417 229.15106992 -388.90762075 227.4682533 -386.9375 225.375 C-383.29464286 222.375 -383.29464286 222.375 -380.9375 222.375 C-380.9375 221.715 -380.9375 221.055 -380.9375 220.375 C-379.968125 219.859375 -378.99875 219.34375 -378 218.8125 C-374.01359376 216.56001843 -370.56846883 213.78114999 -367.05078125 210.86328125 C-364.93236179 209.37138141 -363.4163274 208.95285301 -360.9375 208.375 C-360.6075 207.715 -360.2775 207.055 -359.9375 206.375 C-359.2775 206.375 -358.6175 206.375 -357.9375 206.375 C-357.6075 205.385 -357.2775 204.395 -356.9375 203.375 C-355.62102881 202.67562468 -354.28727849 202.00770867 -352.9375 201.375 C-352.6075 200.715 -352.2775 200.055 -351.9375 199.375 C-350.38825737 198.47988204 -348.79725899 197.65606649 -347.1875 196.875 C-346.32640625 196.4521875 -345.4653125 196.029375 -344.578125 195.59375 C-341.9375 194.375 -341.9375 194.375 -339.171875 193.46875 C-338.06585937 192.92734375 -338.06585937 192.92734375 -336.9375 192.375 C-336.56404411 191.05234374 -336.23010737 189.71785882 -335.9375 188.375 C-334.125 187.1796875 -334.125 187.1796875 -331.9375 186.25 C-328.77987802 185.03700212 -328.77987802 185.03700212 -326.9375 182.375 C-326.2775 182.375 -325.6175 182.375 -324.9375 182.375 C-324.9375 181.715 -324.9375 181.055 -324.9375 180.375 C-323.3203125 179.1484375 -323.3203125 179.1484375 -321.0625 177.75 C-316.42553015 174.78116352 -312.22581736 171.44223235 -308.00390625 167.9140625 C-305.9375 166.375 -305.9375 166.375 -303.9375 166.375 C-303.9375 165.715 -303.9375 165.055 -303.9375 164.375 C-301.4625 163.385 -301.4625 163.385 -298.9375 162.375 C-298.9375 161.715 -298.9375 161.055 -298.9375 160.375 C-297.865 159.818125 -296.7925 159.26125 -295.6875 158.6875 C-292.25761858 156.74827127 -290.33353532 154.51463248 -287.9375 151.375 C-286.61282254 150.6912955 -285.27886367 150.02535814 -283.9375 149.375 C-282.26794233 147.71122936 -280.60179756 146.04403241 -278.9375 144.375 C-276.9564513 142.66529175 -274.95577889 140.97809496 -272.9375 139.3125 C-271.4215625 138.05759766 -271.4215625 138.05759766 -269.875 136.77734375 C-268.00602757 135.2488623 -266.12562744 133.7341713 -264.23046875 132.23828125 C-261.78432232 130.32302709 -261.78432232 130.32302709 -259.25 127.625 C-256.9375 125.375 -256.9375 125.375 -254.9375 125.375 C-254.9375 124.715 -254.9375 124.055 -254.9375 123.375 C-254.2775 123.375 -253.6175 123.375 -252.9375 123.375 C-252.9375 122.715 -252.9375 122.055 -252.9375 121.375 C-252.2775 121.375 -251.6175 121.375 -250.9375 121.375 C-250.6075 120.385 -250.2775 119.395 -249.9375 118.375 C-248.9475 118.375 -247.9575 118.375 -246.9375 118.375 C-246.9375 117.715 -246.9375 117.055 -246.9375 116.375 C-246.2775 116.375 -245.6175 116.375 -244.9375 116.375 C-244.9375 115.715 -244.9375 115.055 -244.9375 114.375 C-239.52573529 110.375 -239.52573529 110.375 -236.9375 110.375 C-236.9375 109.715 -236.9375 109.055 -236.9375 108.375 C-231.46130952 103.375 -231.46130952 103.375 -228.9375 103.375 C-228.9375 102.385 -228.9375 101.395 -228.9375 100.375 C-226.890625 98.91015625 -226.890625 98.91015625 -224.1875 97.4375 C-220.51190327 95.42237021 -217.88216305 93.33886738 -214.9375 90.375 C-214.2775 90.375 -213.6175 90.375 -212.9375 90.375 C-212.9375 89.715 -212.9375 89.055 -212.9375 88.375 C-212.2775 88.375 -211.6175 88.375 -210.9375 88.375 C-210.9375 87.715 -210.9375 87.055 -210.9375 86.375 C-209.9475 86.375 -208.9575 86.375 -207.9375 86.375 C-207.6075 85.385 -207.2775 84.395 -206.9375 83.375 C-205.37890625 81.98828125 -205.37890625 81.98828125 -203.5 80.6875 C-202.88253906 80.25050781 -202.26507812 79.81351562 -201.62890625 79.36328125 C-199.9375 78.375 -199.9375 78.375 -197.9375 78.375 C-197.6075 77.385 -197.2775 76.395 -196.9375 75.375 C-195.16015625 73.98828125 -195.16015625 73.98828125 -193 72.6875 C-192.28972656 72.25050781 -191.57945312 71.81351562 -190.84765625 71.36328125 C-188.9375 70.375 -188.9375 70.375 -186.9375 70.375 C-186.6075 69.385 -186.2775 68.395 -185.9375 67.375 C-183.95429982 66.34208324 -181.95402194 65.3412501 -179.9375 64.375 C-179.6075 63.715 -179.2775 63.055 -178.9375 62.375 C-175.875 61.75 -175.875 61.75 -172.9375 61.375 C-172.9375 60.715 -172.9375 60.055 -172.9375 59.375 C-172.2775 59.375 -171.6175 59.375 -170.9375 59.375 C-170.9375 58.715 -170.9375 58.055 -170.9375 57.375 C-160.68108974 49.375 -160.68108974 49.375 -154.9375 49.375 C-154.9375 48.715 -154.9375 48.055 -154.9375 47.375 C-151.86634715 44.42196841 -149.1041604 43.84848414 -144.9375 43.375 C-144.9375 42.715 -144.9375 42.055 -144.9375 41.375 C-142.70958002 40.24747351 -140.48024113 39.12291861 -138.25 38 C-137.62416016 37.68289062 -136.99832031 37.36578125 -136.35351562 37.0390625 C-132.93183435 35.31926458 -129.50908457 33.75394222 -125.9375 32.375 C-121.68228226 30.69637418 -121.68228226 30.69637418 -118.9375 27.375 C-115.875 26.75 -115.875 26.75 -112.9375 26.375 C-112.9375 25.715 -112.9375 25.055 -112.9375 24.375 C-111.3563708 23.86807308 -109.77248617 23.36973557 -108.1875 22.875 C-107.30578125 22.5965625 -106.4240625 22.318125 -105.515625 22.03125 C-102.9375 21.375 -102.9375 21.375 -98.9375 21.375 C-98.9375 20.715 -98.9375 20.055 -98.9375 19.375 C-96.2975 18.715 -93.6575 18.055 -90.9375 17.375 C-90.9375 16.715 -90.9375 16.055 -90.9375 15.375 C-90.31705811 15.22877197 -89.69661621 15.08254395 -89.05737305 14.93188477 C-86.24624516 14.26850805 -83.43561926 13.60302824 -80.625 12.9375 C-79.64853516 12.70740234 -78.67207031 12.47730469 -77.66601562 12.24023438 C-76.72822266 12.01787109 -75.79042969 11.79550781 -74.82421875 11.56640625 C-73.96014404 11.36217041 -73.09606934 11.15793457 -72.20581055 10.94750977 C-70.42887206 10.49901975 -68.67611678 9.95453893 -66.9375 9.375 C-66.9375 8.715 -66.9375 8.055 -66.9375 7.375 C-62.67370437 6.69617519 -58.40935973 6.02093038 -54.14453125 5.34863281 C-52.70167709 5.12071293 -51.25896225 4.89190881 -49.81640625 4.66210938 C-44.86062238 3.87305999 -39.90113299 3.11301755 -34.9375 2.375 C-33.9453096 2.2244516 -33.9453096 2.2244516 -32.93307495 2.07086182 C-21.934995 0.4287856 -11.10985674 -0.0232757 0 0 Z " fill="#FCF6A8" transform="translate(1074.9375,73.625)"/>
<path d="M0 0 C268.29 0 536.58 0 813 0 C809.29318202 2.96545438 806.47465438 4.94777063 802.375 7.0625 C789.73809778 13.74506524 777.44368605 21.00907874 765.36279297 28.6472168 C761.4086747 31.14177807 757.41738407 33.49505255 753.296875 35.70703125 C749.01104584 38.11963236 744.87803154 40.79647361 740.72265625 43.42578125 C738 45 738 45 736 45 C736 45.66 736 46.32 736 47 C735.3915625 47.31710938 734.783125 47.63421875 734.15625 47.9609375 C722.25849385 54.29474298 710.96601098 61.61263228 699.79296875 69.13671875 C696.17233033 71.55216564 692.49590837 73.87321464 688.8125 76.19140625 C684.65463035 78.86514743 680.59331073 81.67937532 676.53125 84.49609375 C674 86 674 86 671 86 C671 86.66 671 87.32 671 88 C668.9453125 89.48046875 668.9453125 89.48046875 666.125 91.1875 C661.26515814 94.18010637 656.60929391 97.35643403 651.99609375 100.71484375 C650 102 650 102 648 102 C648 102.66 648 103.32 648 104 C646.25104067 105.11188136 644.4473878 106.13806454 642.625 107.125 C638.44067986 109.48664204 634.68344264 111.91646658 631 115 C626.59092393 118.66716423 621.9630996 121.46205113 616.96875 124.26171875 C613.1819672 126.47897973 609.67552228 129.00119511 606.15625 131.6171875 C604.0545263 132.96503205 602.44004961 133.56744575 600 134 C600 134.66 600 135.32 600 136 C598.71086513 136.67154933 597.41859796 137.33708859 596.125 138 C595.40570312 138.37125 594.68640625 138.7425 593.9453125 139.125 C592 140 592 140 590 140 C590 140.66 590 141.32 590 142 C588.96101562 142.58007812 587.92203125 143.16015625 586.8515625 143.7578125 C577.86345903 148.77120531 577.86345903 148.77120531 569 154 C564.19489121 156.91996595 559.29422565 159.65454439 554.38598633 162.39575195 C548.60502383 165.63517175 542.88955985 168.97853611 537.19897461 172.37402344 C531.54533999 175.73128532 525.7858897 178.87724747 520 182 C519.04295166 182.5168335 518.08590332 183.03366699 517.09985352 183.56616211 C515.1370375 184.62545186 513.17406415 185.68445012 511.2109375 186.74316406 C502.51295792 191.43771312 493.84593347 196.16455845 485.28515625 201.10546875 C476.71681256 206.04678467 468.0978628 210.89900106 459.375 215.5625 C454.83153252 217.99168063 450.3411143 220.49524382 445.875 223.0625 C441.51363347 225.56638195 437.14758999 228.06008388 432.75 230.5 C431.87859375 230.9846875 431.0071875 231.469375 430.109375 231.96875 C428 233 428 233 426 233 C425.67 233.99 425.34 234.98 425 236 C423.28515625 236.921875 423.28515625 236.921875 421.0625 237.75 C417.43403994 239.25044811 414.46753494 240.9775652 411.3125 243.3125 C407.214607 246.29395916 403.02277461 248.68335052 398.5 250.9375 C397.88809814 251.24405518 397.27619629 251.55061035 396.64575195 251.86645508 C392.2712174 254 392.2712174 254 390 254 C390 254.66 390 255.32 390 256 C387.4453125 257.7265625 387.4453125 257.7265625 384.125 259.625 C383.03445313 260.25664062 381.94390625 260.88828125 380.8203125 261.5390625 C378 263 378 263 376 263 C375.67 263.99 375.34 264.98 375 266 C373.2421875 267.03515625 373.2421875 267.03515625 370.875 268.0625 C360.57931216 272.94483908 351.33413471 280.00213187 342.0546875 286.55859375 C340.40970482 287.7125835 338.73988641 288.83113875 337.0625 289.9375 C333.11123318 292.59855724 329.30717061 295.44596824 325.48828125 298.29296875 C323 300 323 300 320 301 C320 301.66 320 302.32 320 303 C318.39928901 304.24765698 316.74152892 305.42241864 315.0625 306.5625 C310.25035178 309.96802028 306.18199852 313.616898 302.10546875 317.859375 C300.18891752 319.80792801 298.22038472 321.56138742 296.125 323.3125 C292.50398379 326.41413813 289.28047072 329.8035481 286.0625 333.3125 C285.5773291 333.84077393 285.0921582 334.36904785 284.59228516 334.91333008 C282.00351675 337.74815827 282.00351675 337.74815827 280 341 C279.34 341 278.68 341 278 341 C277.76796875 341.53238281 277.5359375 342.06476563 277.296875 342.61328125 C275.60327488 345.73011761 273.4443809 348.41618316 271.25 351.1875 C264.8351008 359.41535547 259.26878546 367.99653846 254 377 C253.34644531 378.10859375 252.69289062 379.2171875 252.01953125 380.359375 C232.41722947 413.89934731 224.6670088 448.96059084 224.625 487.4375 C224.62282471 488.51450165 224.62064941 489.5915033 224.6184082 490.70114136 C224.62114569 502.68688554 224.9950192 514.45236556 226.57568359 526.34008789 C226.95425104 529.60539547 227.07980909 532.71793109 227 536 C227.66 536 228.32 536 229 536 C229.15855469 536.969375 229.31710938 537.93875 229.48046875 538.9375 C231.06644745 548.21144323 233.292229 557.04358799 236.30859375 565.95263672 C237.01278206 568.03784969 237.69389694 570.12980356 238.375 572.22265625 C242.12178353 583.49648327 247.16872132 593.79375223 252.73828125 604.26953125 C254 607 254 607 254 610 C254.66 610 255.32 610 256 610 C257.13669755 611.74553555 258.18312389 613.55011526 259.1875 615.375 C263.74196201 623.40672762 269.01689967 630.78267834 274.59765625 638.125 C276.3426312 640.45811413 277.99500843 642.84977434 279.62890625 645.26171875 C281.56253572 647.71318631 283.77333143 649.8099342 286 652 C287.28422381 653.30434576 288.56663212 654.61048039 289.84765625 655.91796875 C291.25250167 657.34124701 292.65745184 658.76442189 294.0625 660.1875 C294.76955078 660.91130859 295.47660156 661.63511719 296.20507812 662.38085938 C296.89150391 663.07373047 297.57792969 663.76660156 298.28515625 664.48046875 C299.21146851 665.42249146 299.21146851 665.42249146 300.15649414 666.38354492 C302.0133567 668.01171165 303.74940987 669.00695547 306 670 C306 670.66 306 671.32 306 672 C306.804375 672.268125 307.60875 672.53625 308.4375 672.8125 C309.283125 673.204375 310.12875 673.59625 311 674 C311.33 674.99 311.66 675.98 312 677 C313.82234288 678.12001826 313.82234288 678.12001826 316 679 C318.66666667 680.33333333 321.33333333 681.66666667 324 683 C324 683.66 324 684.32 324 685 C324.721875 685.28875 325.44375 685.5775 326.1875 685.875 C328.79166667 686.91666667 331.39583333 687.95833333 334 689 C334 689.66 334 690.32 334 691 C334.85851562 691.26167969 335.71703125 691.52335938 336.6015625 691.79296875 C340.07611764 693.02703489 343.12685062 694.57269552 346.375 696.3125 C353.94333583 700.25395354 361.80983709 702.69186318 370 705 C370 705.66 370 706.32 370 707 C370.67546875 707.12117187 371.3509375 707.24234375 372.046875 707.3671875 C372.93890625 707.53476562 373.8309375 707.70234375 374.75 707.875 C375.63171875 708.03742187 376.5134375 708.19984375 377.421875 708.3671875 C380 709 380 709 381.828125 709.9453125 C384.4108108 711.19949445 387.03966752 711.786107 389.82324219 712.44628906 C393.49305775 713.37979531 397.04673594 714.64284344 400.625 715.875 C415.99868811 721.08329393 431.50950984 724.97206239 447.41992188 728.14453125 C448.45052734 728.35464844 449.48113281 728.56476562 450.54296875 728.78125 C451.47133545 728.96751953 452.39970215 729.15378906 453.35620117 729.34570312 C456.03547457 730.00877937 458.44796074 730.95868056 461 732 C463.60509164 732.58850775 466.19015843 733.13315412 468.8125 733.625 C469.85180664 733.82609375 469.85180664 733.82609375 470.91210938 734.03125 C472.60722609 734.35858288 474.30350146 734.67990594 476 735 C476 735.33 476 735.66 476 736 C318.92 736 161.84 736 0 736 C0 493.12 0 250.24 0 0 Z " fill="#476336" transform="translate(0,0)"/>
<path d="M0 0 C2.70892463 0.01613474 5.41636287 -0.00000244 8.12524414 -0.01904297 C36.78522377 -0.0529955 63.6595344 6.85116496 90.14282227 17.39111328 C91.10446289 17.75720703 92.06610352 18.12330078 93.05688477 18.50048828 C106.28986902 23.70807777 118.56756672 31.18531732 130.14282227 39.39111328 C131.04701904 40.03040771 131.04701904 40.03040771 131.96948242 40.68261719 C149.5600873 53.21575738 166.41696425 68.0561353 178.14282227 86.39111328 C178.51109131 86.95540039 178.87936035 87.5196875 179.25878906 88.10107422 C188.86490837 102.85283238 196.24290259 117.8226073 202.14282227 134.39111328 C202.39249756 135.01123291 202.64217285 135.63135254 202.89941406 136.27026367 C215.26979224 167.20595572 212.00429058 210.9497343 200.14282227 241.39111328 C199.81411133 242.30376953 199.48540039 243.21642578 199.14672852 244.15673828 C194.66509521 256.18743392 188.42485535 267.84635108 181.14282227 278.39111328 C180.54727539 279.28443359 179.95172852 280.17775391 179.33813477 281.09814453 C165.99659976 300.07219528 147.94221949 314.67914108 128.14282227 326.39111328 C127.28301758 326.95185547 126.42321289 327.51259766 125.53735352 328.09033203 C111.09354929 337.24305288 93.71977671 343.41264421 77.14282227 347.39111328 C76.13348633 347.65150391 75.12415039 347.91189453 74.08422852 348.18017578 C64.5481937 350.53739787 54.85658641 351.98693677 45.14282227 353.39111328 C43.92336914 353.58060547 42.70391602 353.77009766 41.44750977 353.96533203 C25.70029065 355.86912069 8.72920633 355.22352991 -6.85717773 352.39111328 C-8.60014692 352.12852099 -10.3436913 351.86973164 -12.08764648 351.61376953 C-32.291299 348.53127431 -51.50327275 342.63672389 -69.76928711 333.43725586 C-71.75632872 332.44164392 -73.75176695 331.46596748 -75.75170898 330.49658203 C-88.42210713 324.31936399 -99.71185494 317.05480294 -110.85717773 308.39111328 C-111.76338867 307.69244141 -112.66959961 306.99376953 -113.60327148 306.27392578 C-126.07180977 296.39319733 -136.34125715 285.07900739 -145.85717773 272.39111328 C-146.4875293 271.57126953 -147.11788086 270.75142578 -147.76733398 269.90673828 C-154.85717773 260.63942409 -154.85717773 260.63942409 -154.85717773 257.39111328 C-155.51717773 257.39111328 -156.17717773 257.39111328 -156.85717773 257.39111328 C-165.37363388 242.03431203 -172.99919128 226.31626894 -177.85717773 209.39111328 C-178.05327637 208.76414551 -178.249375 208.13717773 -178.45141602 207.49121094 C-185.20841001 185.3638512 -184.26306772 156.74950427 -178.85717773 134.39111328 C-178.66961914 133.58561035 -178.48206055 132.78010742 -178.28881836 131.95019531 C-175.60522505 120.58834759 -172.33704703 109.8399635 -166.88452148 99.47314453 C-166.02221784 97.72558619 -165.25572984 95.93120343 -164.51342773 94.12939453 C-162.81568152 90.1304126 -160.67559628 86.47199617 -158.41967773 82.76611328 C-157.84636719 81.80318359 -157.84636719 81.80318359 -157.26147461 80.82080078 C-155.02368988 77.1126889 -152.64152861 73.7214153 -149.85717773 70.39111328 C-149.1365918 69.49392578 -148.41600586 68.59673828 -147.67358398 67.67236328 C-146.55790039 66.29564453 -146.55790039 66.29564453 -145.41967773 64.89111328 C-144.6784668 63.97330078 -143.93725586 63.05548828 -143.17358398 62.10986328 C-139.67658225 58.00545652 -135.8855711 54.33393146 -131.79467773 50.82861328 C-129.7768146 49.09844548 -127.84675502 47.3802956 -126.00170898 45.46533203 C-123.39548895 42.94456183 -120.56039529 40.85323101 -117.60717773 38.76611328 C-116.99729004 38.33443848 -116.38740234 37.90276367 -115.7590332 37.45800781 C-81.01022499 13.12591056 -42.65564127 -0.30052751 0 0 Z " fill="#824134" transform="translate(1015.857177734375,198.60888671875)"/>
<path d="M0 0 C1.21585281 -0.00087616 1.21585281 -0.00087616 2.45626831 -0.00177002 C5.11330237 0.00099823 7.76918935 0.03202924 10.42602539 0.06347656 C12.27689501 0.07094346 14.12777258 0.07663427 15.97865295 0.08062744 C20.83348691 0.09584845 25.68783683 0.13509959 30.54248047 0.17944336 C35.50294448 0.2204725 40.46348723 0.23865475 45.42407227 0.25878906 C55.14498723 0.30159745 64.86554407 0.36980573 74.58618164 0.45410156 C71.15958162 3.25008959 67.89468648 5.4875773 63.96118164 7.51660156 C51.32427942 14.1991668 39.02986769 21.46318031 26.94897461 29.10131836 C22.99485634 31.59587963 19.00356571 33.94915411 14.88305664 36.16113281 C10.59722748 38.57373392 6.46421318 41.25057517 2.30883789 43.87988281 C-0.41381836 45.45410156 -0.41381836 45.45410156 -2.41381836 45.45410156 C-2.41381836 46.11410156 -2.41381836 46.77410156 -2.41381836 47.45410156 C-3.02225586 47.77121094 -3.63069336 48.08832031 -4.25756836 48.41503906 C-16.15532451 54.74884454 -27.44780738 62.06673384 -38.62084961 69.59082031 C-42.24148803 72.0062672 -45.91790999 74.32731621 -49.60131836 76.64550781 C-53.75918801 79.31924899 -57.82050763 82.13347689 -61.88256836 84.95019531 C-64.41381836 86.45410156 -64.41381836 86.45410156 -67.41381836 86.45410156 C-67.41381836 87.11410156 -67.41381836 87.77410156 -67.41381836 88.45410156 C-69.46850586 89.93457031 -69.46850586 89.93457031 -72.28881836 91.64160156 C-77.14866022 94.63420793 -81.80452444 97.81053559 -86.41772461 101.16894531 C-88.41381836 102.45410156 -88.41381836 102.45410156 -90.41381836 102.45410156 C-90.41381836 103.11410156 -90.41381836 103.77410156 -90.41381836 104.45410156 C-92.16277769 105.56598292 -93.96643056 106.5921661 -95.78881836 107.57910156 C-99.9731385 109.94074361 -103.73037572 112.37056815 -107.41381836 115.45410156 C-111.82289443 119.12126579 -116.45071876 121.91615269 -121.44506836 124.71582031 C-125.23185116 126.93308129 -128.73829608 129.45529667 -132.25756836 132.07128906 C-134.35929206 133.41913361 -135.97376875 134.02154731 -138.41381836 134.45410156 C-138.41381836 135.11410156 -138.41381836 135.77410156 -138.41381836 136.45410156 C-139.70295323 137.12565089 -140.9952204 137.79119015 -142.28881836 138.45410156 C-143.00811523 138.82535156 -143.72741211 139.19660156 -144.46850586 139.57910156 C-146.41381836 140.45410156 -146.41381836 140.45410156 -148.41381836 140.45410156 C-148.41381836 141.11410156 -148.41381836 141.77410156 -148.41381836 142.45410156 C-149.45280273 143.03417969 -150.49178711 143.61425781 -151.56225586 144.21191406 C-160.55035933 149.22530688 -160.55035933 149.22530688 -169.41381836 154.45410156 C-174.21892715 157.37406751 -179.11959271 160.10864595 -184.02783203 162.84985352 C-189.80879453 166.08927331 -195.52425851 169.43263767 -201.21484375 172.828125 C-206.86847837 176.18538688 -212.62792865 179.33134903 -218.41381836 182.45410156 C-219.3708667 182.97093506 -220.32791504 183.48776855 -221.31396484 184.02026367 C-223.27678086 185.07955342 -225.23975421 186.13855168 -227.20288086 187.19726562 C-235.90086044 191.89181468 -244.56788489 196.61866001 -253.12866211 201.55957031 C-261.6970058 206.50088623 -270.31595556 211.35310262 -279.03881836 216.01660156 C-283.58228584 218.44578219 -288.07270406 220.94934538 -292.53881836 223.51660156 C-296.90018489 226.02048351 -301.26622837 228.51418545 -305.66381836 230.95410156 C-306.53522461 231.43878906 -307.40663086 231.92347656 -308.30444336 232.42285156 C-310.41381836 233.45410156 -310.41381836 233.45410156 -312.41381836 233.45410156 C-312.74381836 234.44410156 -313.07381836 235.43410156 -313.41381836 236.45410156 C-315.12866211 237.37597656 -315.12866211 237.37597656 -317.35131836 238.20410156 C-320.97977842 239.70454967 -323.94628342 241.43166677 -327.10131836 243.76660156 C-331.19921136 246.74806072 -335.39104375 249.13745209 -339.91381836 251.39160156 C-340.52572021 251.69815674 -341.13762207 252.00471191 -341.76806641 252.32055664 C-346.14260096 254.45410156 -346.14260096 254.45410156 -348.41381836 254.45410156 C-348.41381836 255.11410156 -348.41381836 255.77410156 -348.41381836 256.45410156 C-350.96850586 258.18066406 -350.96850586 258.18066406 -354.28881836 260.07910156 C-355.92463867 261.0265625 -355.92463867 261.0265625 -357.59350586 261.99316406 C-360.41381836 263.45410156 -360.41381836 263.45410156 -362.41381836 263.45410156 C-362.74381836 264.44410156 -363.07381836 265.43410156 -363.41381836 266.45410156 C-365.17163086 267.48925781 -365.17163086 267.48925781 -367.53881836 268.51660156 C-377.8345062 273.39894064 -387.07968365 280.45623343 -396.35913086 287.01269531 C-398.00411354 288.16668507 -399.67393195 289.28524031 -401.35131836 290.39160156 C-405.30258517 293.05265881 -409.10664775 295.90006981 -412.92553711 298.74707031 C-415.41381836 300.45410156 -415.41381836 300.45410156 -418.41381836 301.45410156 C-418.41381836 302.11410156 -418.41381836 302.77410156 -418.41381836 303.45410156 C-420.01452935 304.70175854 -421.67228944 305.8765202 -423.35131836 307.01660156 C-428.16346658 310.42212184 -432.23181984 314.07099956 -436.30834961 318.31347656 C-438.22490084 320.26202957 -440.19343364 322.01548898 -442.28881836 323.76660156 C-445.90983457 326.86823969 -449.13334764 330.25764967 -452.35131836 333.76660156 C-452.83648926 334.29487549 -453.32166016 334.82314941 -453.8215332 335.36743164 C-456.41030161 338.20225983 -456.41030161 338.20225983 -458.41381836 341.45410156 C-459.07381836 341.45410156 -459.73381836 341.45410156 -460.41381836 341.45410156 C-460.64584961 341.98648437 -460.87788086 342.51886719 -461.11694336 343.06738281 C-462.81054347 346.18421917 -464.96943746 348.87028472 -467.16381836 351.64160156 C-473.57871756 359.86945704 -479.1450329 368.45064002 -484.41381836 377.45410156 C-485.39415039 379.11699219 -485.39415039 379.11699219 -486.39428711 380.81347656 C-505.99658889 414.35344887 -513.74680956 449.41469241 -513.78881836 487.89160156 C-513.7920813 489.50710403 -513.7920813 489.50710403 -513.79541016 491.15524292 C-513.79267267 503.14098711 -513.41879916 514.90646712 -511.83813477 526.79418945 C-511.45956732 530.05949703 -511.33400927 533.17203265 -511.41381836 536.45410156 C-510.75381836 536.45410156 -510.09381836 536.45410156 -509.41381836 536.45410156 C-509.17598633 537.90816406 -509.17598633 537.90816406 -508.93334961 539.39160156 C-507.34737091 548.66554479 -505.12158936 557.49768955 -502.10522461 566.40673828 C-501.4010363 568.49195125 -500.71992142 570.58390512 -500.03881836 572.67675781 C-496.29203483 583.95058483 -491.24509704 594.24785379 -485.67553711 604.72363281 C-484.41381836 607.45410156 -484.41381836 607.45410156 -484.41381836 610.45410156 C-483.75381836 610.45410156 -483.09381836 610.45410156 -482.41381836 610.45410156 C-481.27712081 612.19963712 -480.23069447 614.00421682 -479.22631836 615.82910156 C-474.67185635 623.86082918 -469.39691869 631.2367799 -463.81616211 638.57910156 C-462.07118716 640.9122157 -460.41880993 643.3038759 -458.78491211 645.71582031 C-456.85128264 648.16728787 -454.64048693 650.26403577 -452.41381836 652.45410156 C-451.12959455 653.75844732 -449.84718624 655.06458195 -448.56616211 656.37207031 C-447.16131669 657.79534857 -445.75636652 659.21852345 -444.35131836 660.64160156 C-443.64426758 661.36541016 -442.9372168 662.08921875 -442.20874023 662.83496094 C-441.52231445 663.52783203 -440.83588867 664.22070312 -440.12866211 664.93457031 C-439.20234985 665.87659302 -439.20234985 665.87659302 -438.25732422 666.83764648 C-436.40046166 668.46581322 -434.66440849 669.46105703 -432.41381836 670.45410156 C-432.41381836 671.11410156 -432.41381836 671.77410156 -432.41381836 672.45410156 C-431.60944336 672.72222656 -430.80506836 672.99035156 -429.97631836 673.26660156 C-428.70788086 673.85441406 -428.70788086 673.85441406 -427.41381836 674.45410156 C-427.08381836 675.44410156 -426.75381836 676.43410156 -426.41381836 677.45410156 C-424.59147548 678.57411982 -424.59147548 678.57411982 -422.41381836 679.45410156 C-419.74715169 680.7874349 -417.08048503 682.12076823 -414.41381836 683.45410156 C-414.41381836 684.11410156 -414.41381836 684.77410156 -414.41381836 685.45410156 C-413.69194336 685.74285156 -412.97006836 686.03160156 -412.22631836 686.32910156 C-408.32006836 687.89160156 -408.32006836 687.89160156 -404.41381836 689.45410156 C-404.41381836 690.11410156 -404.41381836 690.77410156 -404.41381836 691.45410156 C-403.55530273 691.71578125 -402.69678711 691.97746094 -401.81225586 692.24707031 C-398.33770072 693.48113645 -395.28696774 695.02679708 -392.03881836 696.76660156 C-384.47048253 700.7080551 -376.60398127 703.14596474 -368.41381836 705.45410156 C-368.41381836 706.11410156 -368.41381836 706.77410156 -368.41381836 707.45410156 C-367.73834961 707.57527344 -367.06288086 707.69644531 -366.36694336 707.82128906 C-365.47491211 707.98886719 -364.58288086 708.15644531 -363.66381836 708.32910156 C-362.78209961 708.49152344 -361.90038086 708.65394531 -360.99194336 708.82128906 C-358.41381836 709.45410156 -358.41381836 709.45410156 -356.58569336 710.39941406 C-354.00300756 711.65359601 -351.37415084 712.24020856 -348.59057617 712.90039062 C-344.92076061 713.83389687 -341.36708242 715.096945 -337.78881836 716.32910156 C-322.41513025 721.53739549 -306.90430852 725.42616395 -290.99389648 728.59863281 C-289.96329102 728.80875 -288.93268555 729.01886719 -287.87084961 729.23535156 C-286.94248291 729.42162109 -286.01411621 729.60789062 -285.05761719 729.79980469 C-282.37834379 730.46288094 -279.96585761 731.41278212 -277.41381836 732.45410156 C-274.80872672 733.04260931 -272.22365993 733.58725568 -269.60131836 734.07910156 C-268.56201172 734.28019531 -268.56201172 734.28019531 -267.50170898 734.48535156 C-265.80659227 734.81268445 -264.1103169 735.1340075 -262.41381836 735.45410156 C-262.41381836 735.78410156 -262.41381836 736.11410156 -262.41381836 736.45410156 C-310.59381836 736.45410156 -358.77381836 736.45410156 -408.41381836 736.45410156 C-408.41381836 735.79410156 -408.41381836 735.13410156 -408.41381836 734.45410156 C-409.46569336 734.37160156 -410.51756836 734.28910156 -411.60131836 734.20410156 C-415.78968291 733.380161 -417.22313675 732.15390908 -420.41381836 729.45410156 C-423.59303623 728.19853269 -423.59303623 728.19853269 -426.41381836 727.45410156 C-426.41381836 726.79410156 -426.41381836 726.13410156 -426.41381836 725.45410156 C-426.92944336 725.37160156 -427.44506836 725.28910156 -427.97631836 725.20410156 C-431.45837568 724.13269931 -434.28582721 722.31886552 -437.41381836 720.45410156 C-437.41381836 719.79410156 -437.41381836 719.13410156 -437.41381836 718.45410156 C-437.97584961 718.3496875 -438.53788086 718.24527344 -439.11694336 718.13769531 C-441.83762307 717.32796921 -443.80639643 716.09206818 -446.16381836 714.51660156 C-447.36264648 713.72962891 -447.36264648 713.72962891 -448.58569336 712.92675781 C-449.18897461 712.44078125 -449.79225586 711.95480469 -450.41381836 711.45410156 C-450.41381836 710.79410156 -450.41381836 710.13410156 -450.41381836 709.45410156 C-450.99260742 709.18339844 -451.57139648 708.91269531 -452.16772461 708.63378906 C-459.036799 705.02603173 -464.77637798 699.33666118 -470.47631836 694.14160156 C-471.06082764 693.6138916 -471.64533691 693.08618164 -472.24755859 692.54248047 C-473.67671151 691.22211604 -475.05068322 689.84251896 -476.41381836 688.45410156 C-476.41381836 687.79410156 -476.41381836 687.13410156 -476.41381836 686.45410156 C-477.07381836 686.45410156 -477.73381836 686.45410156 -478.41381836 686.45410156 C-482.10660589 683.06072923 -485.22880568 679.30964323 -488.41381836 675.45410156 C-488.90881836 674.95910156 -489.40381836 674.46410156 -489.91381836 673.95410156 C-492.27719809 671.59072183 -494.34490843 669.08217633 -496.41381836 666.45410156 C-496.41381836 665.79410156 -496.41381836 665.13410156 -496.41381836 664.45410156 C-497.07381836 664.45410156 -497.73381836 664.45410156 -498.41381836 664.45410156 C-498.74381836 663.13410156 -499.07381836 661.81410156 -499.41381836 660.45410156 C-500.07381836 660.45410156 -500.73381836 660.45410156 -501.41381836 660.45410156 C-501.49631836 659.83535156 -501.57881836 659.21660156 -501.66381836 658.57910156 C-502.22640295 656.26972589 -502.22640295 656.26972589 -504.47631836 655.20410156 C-505.11569336 654.95660156 -505.75506836 654.70910156 -506.41381836 654.45410156 C-506.41381836 653.46410156 -506.41381836 652.47410156 -506.41381836 651.45410156 C-507.40381836 651.12410156 -508.39381836 650.79410156 -509.41381836 650.45410156 C-510.1042241 648.79712778 -510.76688185 647.12852546 -511.41381836 645.45410156 C-512.01194336 644.71160156 -512.61006836 643.96910156 -513.22631836 643.20410156 C-515.51781482 640.32336315 -517.17365706 637.4293157 -518.90991211 634.19628906 C-520.07590328 632.07024801 -521.27382408 629.98335444 -522.51147461 627.89941406 C-522.87660156 627.27929443 -523.24172852 626.6591748 -523.61791992 626.02026367 C-524.34645103 624.78545158 -525.08131042 623.55434733 -525.82299805 622.32739258 C-527.77805395 618.98774017 -528.41381836 617.43769911 -528.41381836 613.45410156 C-529.07381836 613.45410156 -529.73381836 613.45410156 -530.41381836 613.45410156 C-530.77733398 612.52791016 -530.77733398 612.52791016 -531.14819336 611.58300781 C-532.82847571 607.33706356 -534.53699071 603.11738194 -536.41381836 598.95410156 C-542.80876307 584.62234801 -542.80876307 584.62234801 -543.41381836 576.45410156 C-544.07381836 576.45410156 -544.73381836 576.45410156 -545.41381836 576.45410156 C-547.06602293 570.04354784 -548.61629315 563.64731188 -549.85327148 557.14355469 C-550.42394251 554.40552679 -551.12260049 551.72651935 -551.84350586 549.02441406 C-553.56671738 542.18391341 -554.59291815 535.3136287 -555.53881836 528.32910156 C-555.79211914 526.53279297 -555.79211914 526.53279297 -556.05053711 524.70019531 C-560.76362932 490.81788674 -560.54281018 453.23706779 -550.01635742 420.33984375 C-549.41674162 418.46325036 -548.86432408 416.57179139 -548.31225586 414.68066406 C-546.66348554 409.0798794 -544.72693376 403.81710245 -542.41381836 398.45410156 C-541.31981054 395.65320198 -540.27108599 392.83618433 -539.22631836 390.01660156 C-538.95368164 389.28505859 -538.68104492 388.55351562 -538.40014648 387.79980469 C-537.73651235 386.01847095 -537.07494676 384.2363668 -536.41381836 382.45410156 C-535.75381836 382.45410156 -535.09381836 382.45410156 -534.41381836 382.45410156 C-534.26944336 381.52597656 -534.12506836 380.59785156 -533.97631836 379.64160156 C-533.41381836 376.45410156 -533.41381836 376.45410156 -532.41381836 373.45410156 C-531.75381836 373.45410156 -531.09381836 373.45410156 -530.41381836 373.45410156 C-530.33131836 372.79410156 -530.24881836 372.13410156 -530.16381836 371.45410156 C-529.16622045 367.46370993 -527.34215153 364.06860513 -525.41381836 360.45410156 C-524.75381836 360.45410156 -524.09381836 360.45410156 -523.41381836 360.45410156 C-523.12506836 359.54660156 -522.83631836 358.63910156 -522.53881836 357.70410156 C-521.23194253 353.92868249 -520.29972771 351.31232625 -517.41381836 348.51660156 C-515.18243796 346.21549052 -514.58400293 344.41398019 -513.41381836 341.45410156 C-511.89856565 339.00520829 -510.34147536 336.59800214 -508.41381836 334.45410156 C-507.75381836 334.45410156 -507.09381836 334.45410156 -506.41381836 334.45410156 C-506.16631836 333.75285156 -505.91881836 333.05160156 -505.66381836 332.32910156 C-504.24201598 329.05895609 -502.54135548 326.31297956 -500.41381836 323.45410156 C-499.75381836 323.45410156 -499.09381836 323.45410156 -498.41381836 323.45410156 C-498.08381836 322.46410156 -497.75381836 321.47410156 -497.41381836 320.45410156 C-496.75381836 320.45410156 -496.09381836 320.45410156 -495.41381836 320.45410156 C-495.33131836 319.87660156 -495.24881836 319.29910156 -495.16381836 318.70410156 C-494.19584049 315.80016796 -492.72687552 314.41669552 -490.41381836 312.45410156 C-489.75381836 312.45410156 -489.09381836 312.45410156 -488.41381836 312.45410156 C-488.19725586 311.92300781 -487.98069336 311.39191406 -487.75756836 310.84472656 C-485.91541584 307.56740871 -483.45244067 304.94607605 -480.91381836 302.20410156 C-480.41495117 301.64980469 -479.91608398 301.09550781 -479.40209961 300.52441406 C-478.11698296 299.12560076 -476.76948068 297.78465902 -475.41381836 296.45410156 C-474.75381836 296.45410156 -474.09381836 296.45410156 -473.41381836 296.45410156 C-473.08381836 295.46410156 -472.75381836 294.47410156 -472.41381836 293.45410156 C-468.27089557 289.19252705 -463.51613103 285.49119244 -458.41381836 282.45410156 C-457.75381836 282.45410156 -457.09381836 282.45410156 -456.41381836 282.45410156 C-456.41381836 281.79410156 -456.41381836 281.13410156 -456.41381836 280.45410156 C-452.51517925 276.43937395 -448.20538694 273.30314234 -443.41381836 270.45410156 C-441.72670413 268.80813646 -440.05925616 267.14173008 -438.41381836 265.45410156 C-434.7931287 262.45410156 -434.7931287 262.45410156 -432.41381836 262.45410156 C-432.41381836 261.79410156 -432.41381836 261.13410156 -432.41381836 260.45410156 C-430.43725586 258.90332031 -430.43725586 258.90332031 -427.78881836 257.14160156 C-424.81339459 255.12450697 -421.92895958 253.13785626 -419.22631836 250.76660156 C-416.73870488 248.72123048 -414.29909191 247.22109085 -411.47631836 245.69628906 C-407.77639796 243.46792792 -404.39632494 240.77739866 -400.96459961 238.16113281 C-398.65800311 236.61751464 -397.11925492 235.878608 -394.41381836 235.45410156 C-394.41381836 234.79410156 -394.41381836 234.13410156 -394.41381836 233.45410156 C-392.64038086 232.11425781 -392.64038086 232.11425781 -390.03881836 230.51660156 C-389.05139648 229.90816406 -388.06397461 229.29972656 -387.04663086 228.67285156 C-386.48105469 228.32867187 -385.91547852 227.98449219 -385.33276367 227.62988281 C-383.13848953 226.28540135 -380.96000237 224.9169477 -378.78100586 223.54785156 C-377.15895621 222.53687924 -375.53655992 221.52646289 -373.91381836 220.51660156 C-373.12442871 220.01974854 -372.33503906 219.52289551 -371.52172852 219.01098633 C-370.77455566 218.55006592 -370.02738281 218.08914551 -369.25756836 217.61425781 C-368.58918945 217.19797119 -367.92081055 216.78168457 -367.23217773 216.3527832 C-365.41381836 215.45410156 -365.41381836 215.45410156 -362.41381836 215.45410156 C-362.41381836 214.79410156 -362.41381836 214.13410156 -362.41381836 213.45410156 C-361.75381836 213.45410156 -361.09381836 213.45410156 -360.41381836 213.45410156 C-360.41381836 212.79410156 -360.41381836 212.13410156 -360.41381836 211.45410156 C-359.46120117 210.99519531 -358.50858398 210.53628906 -357.52709961 210.06347656 C-356.26001264 209.44401182 -354.99309446 208.82420175 -353.72631836 208.20410156 C-353.10047852 207.90375 -352.47463867 207.60339844 -351.82983398 207.29394531 C-347.94551593 205.3822914 -344.76365743 203.23215776 -341.41381836 200.45410156 C-339.54022819 199.50087148 -337.66419178 198.55172463 -335.76928711 197.64160156 C-330.84886574 195.16099112 -326.15640132 192.2552079 -321.41381836 189.45410156 C-319.26864708 188.20296574 -317.12283146 186.95293391 -314.97631836 185.70410156 C-312.21754823 184.09763406 -309.48618624 182.50154877 -306.81616211 180.75097656 C-304.41381836 179.45410156 -304.41381836 179.45410156 -300.41381836 179.45410156 C-300.41381836 178.79410156 -300.41381836 178.13410156 -300.41381836 177.45410156 C-297.50781575 176.19745178 -295.61777252 175.45410156 -292.41381836 175.45410156 C-292.41381836 174.79410156 -292.41381836 174.13410156 -292.41381836 173.45410156 C-290.98087338 172.61295985 -289.54227431 171.78144469 -288.10131836 170.95410156 C-287.30081055 170.49003906 -286.50030273 170.02597656 -285.67553711 169.54785156 C-283.41381836 168.45410156 -283.41381836 168.45410156 -280.41381836 168.45410156 C-280.41381836 167.79410156 -280.41381836 167.13410156 -280.41381836 166.45410156 C-279.47280273 165.99519531 -278.53178711 165.53628906 -277.56225586 165.06347656 C-276.30433549 164.44390385 -275.04652905 163.82409979 -273.78881836 163.20410156 C-273.17135742 162.90375 -272.55389648 162.60339844 -271.91772461 162.29394531 C-268.81740955 160.76010523 -266.05762134 159.20623697 -263.20288086 157.21972656 C-260.41381836 155.45410156 -260.41381836 155.45410156 -256.41381836 155.45410156 C-256.41381836 154.79410156 -256.41381836 154.13410156 -256.41381836 153.45410156 C-255.67776367 153.05578125 -254.94170898 152.65746094 -254.18334961 152.24707031 C-253.2075293 151.71726563 -252.23170898 151.18746094 -251.22631836 150.64160156 C-250.26338867 150.11953125 -249.30045898 149.59746094 -248.30834961 149.05957031 C-246.42037262 148.01239279 -244.56054949 146.91224469 -242.73803711 145.75488281 C-240.41381836 144.45410156 -240.41381836 144.45410156 -237.41381836 144.45410156 C-237.41381836 143.79410156 -237.41381836 143.13410156 -237.41381836 142.45410156 C-235.87274414 141.69226563 -235.87274414 141.69226563 -234.30053711 140.91503906 C-219.6626274 133.79342165 -219.6626274 133.79342165 -205.78881836 125.32910156 C-195.74769994 118.45410156 -195.74769994 118.45410156 -190.41381836 118.45410156 C-190.41381836 117.79410156 -190.41381836 117.13410156 -190.41381836 116.45410156 C-189.12468349 115.78255223 -187.83241632 115.11701297 -186.53881836 114.45410156 C-185.81952148 114.08285156 -185.10022461 113.71160156 -184.35913086 113.32910156 C-182.41381836 112.45410156 -182.41381836 112.45410156 -180.41381836 112.45410156 C-180.41381836 111.79410156 -180.41381836 111.13410156 -180.41381836 110.45410156 C-179.50631836 110.02097656 -178.59881836 109.58785156 -177.66381836 109.14160156 C-174.5453903 107.63885041 -174.5453903 107.63885041 -172.50366211 106.00488281 C-170.32388361 104.38736494 -168.13852062 103.19617745 -165.72631836 101.95410156 C-159.65738182 98.71460165 -153.96012013 94.97969275 -148.25292969 91.14941406 C-147.55449951 90.68664062 -146.85606934 90.22386719 -146.13647461 89.74707031 C-145.51522705 89.32965576 -144.89397949 88.91224121 -144.25390625 88.48217773 C-142.31810941 87.40062798 -140.57927872 86.89114226 -138.41381836 86.45410156 C-138.41381836 85.79410156 -138.41381836 85.13410156 -138.41381836 84.45410156 C-135.45900344 81.71034485 -134.63909928 81.45410156 -130.41381836 81.45410156 C-130.41381836 80.79410156 -130.41381836 80.13410156 -130.41381836 79.45410156 C-125.00205365 75.45410156 -125.00205365 75.45410156 -122.41381836 75.45410156 C-122.41381836 74.79410156 -122.41381836 74.13410156 -122.41381836 73.45410156 C-120.18334961 71.79785156 -120.18334961 71.79785156 -117.22631836 69.95410156 C-116.26338867 69.34566406 -115.30045898 68.73722656 -114.30834961 68.11035156 C-111.7175514 66.62789753 -109.21199667 65.47720149 -106.41381836 64.45410156 C-106.41381836 63.79410156 -106.41381836 63.13410156 -106.41381836 62.45410156 C-104.52664577 61.1489822 -102.57529961 59.93628312 -100.60131836 58.76660156 C-99.40039565 58.04591664 -98.1998811 57.32455119 -96.99975586 56.60253906 C-96.39486328 56.2412793 -95.7899707 55.88001953 -95.16674805 55.5078125 C-88.1462154 51.28767059 -81.37568577 46.75696068 -74.69897461 42.01660156 C-72.70629906 40.65408837 -70.71197637 39.43361765 -68.60131836 38.26660156 C-65.44329266 36.58790353 -65.44329266 36.58790353 -63.03881836 34.51660156 C-60.89497597 32.83215397 -59.04260516 31.65846503 -56.66381836 30.39160156 C-50.41239317 27.01898394 -44.53761454 23.05709463 -38.59741211 19.17285156 C-37.20353038 18.26560287 -35.80899328 17.35936031 -34.41381836 16.45410156 C-33.67534668 15.97328125 -32.936875 15.49246094 -32.17602539 14.99707031 C-31.46172363 14.53945312 -30.74742187 14.08183594 -30.01147461 13.61035156 C-29.36831299 13.19591797 -28.72515137 12.78148437 -28.0625 12.35449219 C-26.41381836 11.45410156 -26.41381836 11.45410156 -24.41381836 11.45410156 C-24.41381836 10.79410156 -24.41381836 10.13410156 -24.41381836 9.45410156 C-23.8453418 9.13957031 -23.27686523 8.82503906 -22.69116211 8.50097656 C-21.91901367 8.07300781 -21.14686523 7.64503906 -20.35131836 7.20410156 C-19.5972168 6.78644531 -18.84311523 6.36878906 -18.06616211 5.93847656 C-16.09023974 4.83265845 -14.16592412 3.63364977 -12.27391052 2.38970947 C-8.15294548 0.04729802 -4.66200246 -0.08928057 0 0 Z " fill="#639243" transform="translate(738.413818359375,-0.4541015625)"/>
<path d="M0 0 C0.33 0 0.66 0 1 0 C2.2764218 5.63408124 2.1917483 11.12152499 2.1875 16.875 C2.18669434 17.99382568 2.18588867 19.11265137 2.18505859 20.26538086 C2.10269798 31.44139326 1.08157235 42.21449677 -2 53 C-2.66 53 -3.32 53 -4 53 C-5.0999701 49.100106 -5.02885364 46.63263621 -3.59375 42.9375 C-1.79887088 37.79935172 -1.22873237 32.84277972 -0.8125 27.4375 C-0.73209473 26.48601074 -0.65168945 25.53452148 -0.56884766 24.55419922 C0.07640066 16.35583099 0.21196798 8.21964708 0 0 Z " fill="#784B2A" transform="translate(1223,368)"/>
<path d="M0 0 C-2 2 -2 2 -4.5625 2.875 C-5.7690625 3.431875 -5.7690625 3.431875 -7 4 C-7.68640862 6.02595446 -7.68640862 6.02595446 -8 8 C-8.92232422 8.11214844 -8.92232422 8.11214844 -9.86328125 8.2265625 C-12.37252266 8.63476445 -14.62568558 9.08284605 -17 10 C-17.474375 10.99 -17.94875 11.98 -18.4375 13 C-20 16 -20 16 -22.390625 16.8359375 C-24.92539384 17.32448233 -27.43420326 17.7207951 -30 18 C-29.34 17.67 -28.68 17.34 -28 17 C-28 16.01 -28 15.02 -28 14 C-25.71955958 12.22732563 -23.49190951 10.6675325 -21.0625 9.125 C-20.37824951 8.68244873 -19.69399902 8.23989746 -18.98901367 7.78393555 C-17.00142967 6.5080977 -15.00339668 5.25082269 -13 4 C-12.05640625 3.40574219 -11.1128125 2.81148437 -10.140625 2.19921875 C-4.06983512 -1.41677187 -4.06983512 -1.41677187 0 0 Z " fill="#7F5331" transform="translate(928,222)"/>
<path d="M0 0 C0 0.66 0 1.32 0 2 C-0.66 2 -1.32 2 -2 2 C-2.433125 2.928125 -2.433125 2.928125 -2.875 3.875 C-4 6 -4 6 -6 8 C-8.125 7.625 -8.125 7.625 -10 7 C-10.2475 7.556875 -10.495 8.11375 -10.75 8.6875 C-11.1625 9.450625 -11.575 10.21375 -12 11 C-12.45375 11.9075 -12.9075 12.815 -13.375 13.75 C-17.65019952 17.41445673 -22.59819443 16.38220322 -28 16 C-26.56400962 13.12801925 -24.64083286 12.72960493 -21.75 11.375 C-15.75304555 8.47000048 -10.21881044 5.12571316 -4.6171875 1.5390625 C-2 0 -2 0 0 0 Z " fill="#C5DE89" transform="translate(548,166)"/>
<path d="M0 0 C0.66 0.33 1.32 0.66 2 1 C2.05420701 3.56278699 2.09377007 6.12441483 2.125 8.6875 C2.14175781 9.40873047 2.15851562 10.12996094 2.17578125 10.87304688 C2.20385125 13.94671141 2.21472513 16.49547982 1 19.34960938 C-0.19721095 22.52268606 -0.22740735 25.00852457 -0.1953125 28.39453125 C-0.18886719 29.59658203 -0.18242188 30.79863281 -0.17578125 32.03710938 C-0.15902344 33.28298828 -0.14226563 34.52886719 -0.125 35.8125 C-0.11597656 37.07771484 -0.10695313 38.34292969 -0.09765625 39.64648438 C-0.07412394 42.76451564 -0.04124545 45.88216097 0 49 C-2.51337138 45.22994293 -2.27125055 42.25761237 -2.23046875 37.89453125 C-2.22978142 36.6974781 -2.22978142 36.6974781 -2.2290802 35.47624207 C-2.22605915 33.78582271 -2.2181772 32.09540611 -2.20581055 30.4050293 C-2.18769125 27.83957852 -2.18530007 25.27449213 -2.18554688 22.70898438 C-2.18062576 21.06249693 -2.17479488 19.4160119 -2.16796875 17.76953125 C-2.16685593 17.01090286 -2.1657431 16.25227448 -2.16459656 15.47065735 C-2.0473605 2.0473605 -2.0473605 2.0473605 0 0 Z " fill="#866038" transform="translate(836,343)"/>
<path d="M0 0 C1.56324232 0.11534604 3.12559683 0.24275126 4.6875 0.375 C5.99267578 0.47941406 5.99267578 0.47941406 7.32421875 0.5859375 C10.14976122 1.02317473 12.35014325 1.9400573 15 3 C17.60509164 3.58850775 20.19015843 4.13315412 22.8125 4.625 C23.85180664 4.82609375 23.85180664 4.82609375 24.91210938 5.03125 C26.60722609 5.35858288 28.30350146 5.67990594 30 6 C30 6.33 30 6.66 30 7 C26.58362047 7.11632513 23.16775103 7.18728897 19.75 7.25 C18.29787109 7.30027344 18.29787109 7.30027344 16.81640625 7.3515625 C9.55754828 7.45168468 9.55754828 7.45168468 6.53125 5 C6.0259375 4.34 5.520625 3.68 5 3 C1.832168 2.66551741 1.832168 2.66551741 -1 3 C-0.67 2.01 -0.34 1.02 0 0 Z " fill="#6B9240" transform="translate(446,729)"/>
<path d="M0 0 C4.94791294 -0.0246826 9.8957902 -0.04285166 14.84375 -0.05493164 C16.52767562 -0.05996653 18.21159686 -0.06679481 19.89550781 -0.07543945 C22.31316203 -0.08754196 24.73075856 -0.09323668 27.1484375 -0.09765625 C27.9036972 -0.10281754 28.65895691 -0.10797882 29.43710327 -0.11329651 C34.77225659 -0.11387171 34.77225659 -0.11387171 37 1 C37 1.66 37 2.32 37 3 C33.01647832 3.04987075 29.0330805 3.08593964 25.04931641 3.10986328 C23.03671881 3.12472879 21.02420812 3.150157 19.01171875 3.17578125 C12.3167172 3.20942447 6.38969719 3.07013149 0 1 C0 0.67 0 0.34 0 0 Z " fill="#88613A" transform="translate(1016,550)"/>
<path d="M0 0 C3.37503669 1.1858237 5.64722731 2.27573689 8 5 C7.67 5.99 7.34 6.98 7 8 C7.969375 8.144375 8.93875 8.28875 9.9375 8.4375 C13 9 13 9 14 10 C14.04063832 11.66617115 14.042721 13.33388095 14 15 C14.99 14.67 15.98 14.34 17 14 C17 14.66 17 15.32 17 16 C17.66 16 18.32 16 19 16 C19 16.66 19 17.32 19 18 C18.34 18 17.68 18 17 18 C16.67 18.66 16.34 19.32 16 20 C10.14218951 14.48122678 4.75409154 8.50049251 0 2 C0 1.34 0 0.68 0 0 Z " fill="#7A522F" transform="translate(872,472)"/>
<path d="M0 0 C0.99 0 1.98 0 3 0 C3.04960464 5.99567472 3.08581647 11.99122875 3.10986328 17.98706055 C3.11989285 20.02484215 3.13351978 22.06260946 3.15087891 24.1003418 C3.17526127 27.0369826 3.18651377 29.97343235 3.1953125 32.91015625 C3.20563507 33.81459976 3.21595764 34.71904327 3.22659302 35.65089417 C3.22750671 40.85475947 2.65926012 45.06679795 1 50 C0.64628502 51.66246041 0.30404678 53.32774271 0 55 C-0.66 55 -1.32 55 -2 55 C-1.855625 54.04609375 -1.71125 53.0921875 -1.5625 52.109375 C0.7582231 34.82805456 0.18383859 17.39537329 0 0 Z " fill="#DEC591" transform="translate(1224,362)"/>
<path d="M0 0 C0.66 0 1.32 0 2 0 C2.26699364 5.52749001 1.41420981 9.89044706 -0.3125 15.125 C-0.52583984 15.81464844 -0.73917969 16.50429688 -0.95898438 17.21484375 C-2.21830544 21.1469328 -3.71722367 24.5590996 -6 28 C-6.66 26.68 -7.32 25.36 -8 24 C-7.34 24 -6.68 24 -6 24 C-6 23.34 -6 22.68 -6 22 C-6.66 21.67 -7.32 21.34 -8 21 C-7.54882812 20.4740625 -7.09765625 19.948125 -6.6328125 19.40625 C-4.67738897 16.52457323 -3.8477489 13.8395159 -2.875 10.5 C-2.54242187 9.3759375 -2.20984375 8.251875 -1.8671875 7.09375 C-1.20614995 4.73545386 -0.57191687 2.38104165 0 0 Z " fill="#7B4D2A" transform="translate(1217,423)"/>
<path d="M0 0 C2.25028329 0.14139481 4.50022206 0.28828003 6.75 0.4375 C8.62945313 0.55931641 8.62945313 0.55931641 10.546875 0.68359375 C13.18317553 0.92515522 15.48037294 1.24283934 18 2 C18 2.66 18 3.32 18 4 C18.63808594 4.12117187 19.27617188 4.24234375 19.93359375 4.3671875 C20.75988281 4.53476563 21.58617187 4.70234375 22.4375 4.875 C23.26121094 5.03742188 24.08492187 5.19984375 24.93359375 5.3671875 C25.61550781 5.57601562 26.29742188 5.78484375 27 6 C27.33 6.66 27.66 7.32 28 8 C30.02463255 8.65213292 30.02463255 8.65213292 32 9 C31.34 9 30.68 9 30 9 C30 9.66 30 10.32 30 11 C25.15319506 9.42030061 20.34315996 7.7706148 15.5625 6 C10.43358987 4.11650193 5.25157953 2.50370607 0 1 C0 0.67 0 0.34 0 0 Z " fill="#EDD9A4" transform="translate(1080,207)"/>
<path d="M0 0 C1.32 0.33 2.64 0.66 4 1 C0.3154143 4.992802 -3.40100273 7.71961627 -8.125 10.375 C-8.74503906 10.74238281 -9.36507813 11.10976563 -10.00390625 11.48828125 C-11.62336179 12.41119677 -13.30941304 13.21493628 -15 14 C-15.99 13.67 -16.98 13.34 -18 13 C-17.67 11.35 -17.34 9.7 -17 8 C-13.52176885 6.84058962 -11.54104422 7.29179116 -8 8 C-8 7.34 -8 6.68 -8 6 C-7.195625 5.71125 -6.39125 5.4225 -5.5625 5.125 C-2.8673532 4.26737432 -2.8673532 4.26737432 -2 2 C-1.34 2 -0.68 2 0 2 C0 1.34 0 0.68 0 0 Z " fill="#77492B" transform="translate(1154,514)"/>
<path d="M0 0 C0.66 0.33 1.32 0.66 2 1 C2.625 3.5625 2.625 3.5625 3 6 C2.21625 6.433125 1.4325 6.86625 0.625 7.3125 C-2.21698375 8.89220247 -2.21698375 8.89220247 -4 12 C-4.763125 11.835 -5.52625 11.67 -6.3125 11.5 C-9.03596236 10.90854604 -9.03596236 10.90854604 -12 11 C-11.46890625 10.54109375 -10.9378125 10.0821875 -10.390625 9.609375 C-6.81675301 6.50506283 -3.28145941 3.41818688 0 0 Z " fill="#815336" transform="translate(892,242)"/>
<path d="M0 0 C0.66 0.33 1.32 0.66 2 1 C2.103125 1.763125 2.20625 2.52625 2.3125 3.3125 C3.22912925 6.89568706 5.02743207 7.94206835 8 10 C8 9.34 8 8.68 8 8 C8.99 8 9.98 8 11 8 C11 9.98 11 11.96 11 14 C9.02 14.99 9.02 14.99 7 16 C3.5148552 11.42284316 0.13572684 6.82419514 -3 2 C-2.01 1.34 -1.02 0.68 0 0 Z " fill="#F7EFAB" transform="translate(1189,273)"/>
<path d="M0 0 C8.26968528 0.13782809 14.37097743 3.07127867 21 8 C21.33 8.99 21.66 9.98 22 11 C18.66666667 10.33333333 15.33333333 9.66666667 12 9 C11.67 7.68 11.34 6.36 11 5 C5.52225234 3.41678933 5.52225234 3.41678933 0 2 C0 1.34 0 0.68 0 0 Z " fill="#79502E" transform="translate(1109,220)"/>
<path d="M0 0 C0.66 0.33 1.32 0.66 2 1 C1.33333333 2.33333333 0.66666667 3.66666667 0 5 C-0.2475 5.969375 -0.495 6.93875 -0.75 7.9375 C-2.25549795 11.62596999 -3.4682256 12.31820267 -7 14 C-7.763125 14.391875 -8.52625 14.78375 -9.3125 15.1875 C-9.869375 15.455625 -10.42625 15.72375 -11 16 C-10.67 16.99 -10.34 17.98 -10 19 C-10.99 19 -11.98 19 -13 19 C-13 15.14053997 -11.91810488 14.50490941 -9.3125 11.75 C-5.85906672 8.00213546 -2.86591205 4.20930832 0 0 Z " fill="#F0DEA6" transform="translate(1197,476)"/>
<path d="M0 0 C0.66 0 1.32 0 2 0 C2.50838564 2.03959477 3.00633886 4.08179138 3.5 6.125 C3.7784375 7.26195312 4.056875 8.39890625 4.34375 9.5703125 C4.96607265 12.8226892 5.06576989 15.70210958 5 19 C5.20625 19.9075 5.4125 20.815 5.625 21.75 C5.74875 22.4925 5.8725 23.235 6 24 C5.34 24.66 4.68 25.32 4 26 C3.35374544 22.93758873 2.70807147 19.87505533 2.0625 16.8125 C1.88009766 15.94818359 1.69769531 15.08386719 1.50976562 14.19335938 C1.15813456 12.52471013 0.80860578 10.85561616 0.46142578 9.18603516 C0.09647778 7.45706987 -0.29307949 5.73330052 -0.69140625 4.01171875 C-1 2 -1 2 0 0 Z " fill="#F8E5AA" transform="translate(1219,331)"/>
<path d="M0 0 C0 3 0 3 -2 6 C-1.34 6 -0.68 6 0 6 C-0.1875 7.8125 -0.1875 7.8125 -1 10 C-4.66125071 12.92900057 -7.3824571 13.32215416 -12 13 C-8.19524578 8.43969176 -4.25030379 4.14910608 0 0 Z " fill="#F5EBA9" transform="translate(1182,494)"/>
<path d="M0 0 C0 0.66 0 1.32 0 2 C-2.29032311 2.83719383 -4.58210957 3.6698929 -6.875 4.5 C-7.85146484 4.85771484 -7.85146484 4.85771484 -8.84765625 5.22265625 C-13.7734375 7 -13.7734375 7 -16 7 C-16 6.34 -16 5.68 -16 5 C-16.66 4.67 -17.32 4.34 -18 4 C-16.72942818 3.52014033 -15.45853152 3.0411407 -14.1875 2.5625 C-13.47980469 2.29566406 -12.77210937 2.02882813 -12.04296875 1.75390625 C-7.81395478 0.19329498 -4.51314033 -0.08515359 0 0 Z " fill="#7A4E2D" transform="translate(1118,536)"/>
<path d="M0 0 C0.99 0.33 1.98 0.66 3 1 C2.5317879 5.77576339 1.75668002 9.04476345 -1 13 C-1.99 12.67 -2.98 12.34 -4 12 C-3.45660208 7.43545749 -2.20536179 4.0271824 0 0 Z " fill="#76482E" transform="translate(852,291)"/>
<path d="M0 0 C1.15693359 0.00322266 2.31386719 0.00644531 3.50585938 0.00976562 C4.70404297 0.01814453 5.90222656 0.02652344 7.13671875 0.03515625 C8.96299805 0.04192383 8.96299805 0.04192383 10.82617188 0.04882812 C13.82557101 0.06059047 16.82486964 0.07702799 19.82421875 0.09765625 C19.18484375 0.40703125 18.54546875 0.71640625 17.88671875 1.03515625 C15.88811054 1.93217255 15.88811054 1.93217255 14.82421875 3.09765625 C12.15363024 3.23880786 9.49989637 3.14012732 6.82421875 3.09765625 C6.82421875 2.43765625 6.82421875 1.77765625 6.82421875 1.09765625 C1.65486985 1.50321756 1.65486985 1.50321756 -3.17578125 3.09765625 C-5.87143327 2.92985462 -8.49983679 2.4860998 -11.17578125 2.09765625 C-11.17578125 1.76765625 -11.17578125 1.43765625 -11.17578125 1.09765625 C-7.38503588 0.21202536 -3.88882227 -0.01915676 0 0 Z " fill="#764D28" transform="translate(1009.17578125,198.90234375)"/>
<path d="M0 0 C0.66 0.33 1.32 0.66 2 1 C2 1.33 2 1.66 2 2 C2.66 2.33 3.32 2.66 4 3 C3.360625 3.103125 2.72125 3.20625 2.0625 3.3125 C1.381875 3.539375 0.70125 3.76625 0 4 C-0.33 4.99 -0.66 5.98 -1 7 C-4.375 8.125 -4.375 8.125 -8 9 C-10.99332739 9.9977758 -11.94766315 10.7522025 -14 13 C-14.99 12.67 -15.98 12.34 -17 12 C-13.79266156 9.34249101 -10.57301227 7.12679302 -7 5 C-4.64193544 3.36560035 -2.32256181 1.68499582 0 0 Z " fill="#BCD684" transform="translate(348,281)"/>
<path d="M0 0 C1.2380014 3.57644848 0.74926071 6.33694766 0 10 C0.66 9.67 1.32 9.34 2 9 C1.34903505 12.51521073 -0.12890839 14.9774674 -2 18 C-3.0150089 19.99242489 -4.01873444 21.99074195 -5 24 C-6.0950903 20.71472911 -5.91524701 19.84901711 -5.0390625 16.62109375 C-4.81476562 15.78255859 -4.59046875 14.94402344 -4.359375 14.08007812 C-4.11703125 13.20802734 -3.8746875 12.33597656 -3.625 11.4375 C-3.39039063 10.56158203 -3.15578125 9.68566406 -2.9140625 8.78320312 C-1.16584821 2.33169643 -1.16584821 2.33169643 0 0 Z " fill="#8C623C" transform="translate(843,312)"/>
<path d="M0 0 C4 4.75 4 4.75 4 7 C5.65 7 7.3 7 9 7 C8.979375 8.11375 8.95875 9.2275 8.9375 10.375 C8.73619282 13.83215921 8.73619282 13.83215921 10 16 C9.34 16.99 8.68 17.98 8 19 C5 13 2 7 -1 1 C-0.67 0.67 -0.34 0.34 0 0 Z " fill="#F4DFA7" transform="translate(1198,289)"/>
<path d="M0 0 C0.556875 0.391875 1.11375 0.78375 1.6875 1.1875 C-1.7775 2.6725 -1.7775 2.6725 -5.3125 4.1875 C-5.3125 5.8375 -5.3125 7.4875 -5.3125 9.1875 C-11.3671875 9.3828125 -11.3671875 9.3828125 -13.3125 9.1875 C-13.9725 8.5275 -14.6325 7.8675 -15.3125 7.1875 C-13.34877904 5.95469255 -11.38317044 4.72572249 -9.41015625 3.5078125 C-7.76248785 2.47073257 -6.15404108 1.37131303 -4.5625 0.25 C-2.3125 -0.8125 -2.3125 -0.8125 0 0 Z " fill="#C0DC86" transform="translate(765.3125,29.8125)"/>
<path d="M0 0 C6.62456627 13.15961138 6.62456627 13.15961138 6 18 C4.68 17.67 3.36 17.34 2 17 C1.67 15.02 1.34 13.04 1 11 C0.34 11 -0.32 11 -1 11 C-1.0270043 9.54176788 -1.04639787 8.08339325 -1.0625 6.625 C-1.07410156 5.81289063 -1.08570313 5.00078125 -1.09765625 4.1640625 C-1 2 -1 2 0 0 Z M2 9 C3 11 3 11 3 11 Z " fill="#EEDDA3" transform="translate(842,419)"/>
<path d="M0 0 C0.66 0.33 1.32 0.66 2 1 C1.67 2.32 1.34 3.64 1 5 C0.34 5 -0.32 5 -1 5 C-1 5.66 -1 6.32 -1 7 C-2.98 7.99 -2.98 7.99 -5 9 C-5 9.66 -5 10.32 -5 11 C-6.0725 11.45375 -7.145 11.9075 -8.25 12.375 C-10.88062317 13.50088537 -13.46000396 14.67920206 -16 16 C-13.06160475 11.95970652 -9.67856029 8.87179219 -5.90625 5.6484375 C-3.83599452 3.85817559 -1.89524622 1.97421482 0 0 Z " fill="#BCD986" transform="translate(310,309)"/>
<path d="M0 0 C4.66666667 4 9.33333333 8 14 12 C13.67 12.66 13.34 13.32 13 14 C10.525 13.01 10.525 13.01 8 12 C8 11.34 8 10.68 8 10 C7.34 10 6.68 10 6 10 C6 9.34 6 8.68 6 8 C5.01 7.67 4.02 7.34 3 7 C2.34 6.67 1.68 6.34 1 6 C1 5.34 1 4.68 1 4 C0.34 4 -0.32 4 -1 4 C-0.67 2.68 -0.34 1.36 0 0 Z " fill="#F5E5AC" transform="translate(886,490)"/>
<path d="M0 0 C0.99 0.33 1.98 0.66 3 1 C4.41687119 5.25061356 3.19320039 7.71851625 2 12 C1.34 11.67 0.68 11.34 0 11 C-0.33 13.97 -0.66 16.94 -1 20 C-1.33 20 -1.66 20 -2 20 C-2.26618595 13.04958914 -1.6120509 6.76485645 0 0 Z " fill="#C4E08B" transform="translate(226,452)"/>
<path d="M0 0 C15.74193548 2.74193548 15.74193548 2.74193548 20 7 C18.35 7.33 16.7 7.66 15 8 C15 7.34 15 6.68 15 6 C12.03 5.67 9.06 5.34 6 5 C6 4.34 6 3.68 6 3 C5.195625 2.87625 4.39125 2.7525 3.5625 2.625 C2.716875 2.41875 1.87125 2.2125 1 2 C0.67 1.34 0.34 0.68 0 0 Z " fill="#774F2C" transform="translate(1080,208)"/>
<path d="M0 0 C-0.19140625 1.859375 -0.19140625 1.859375 -1 4 C-3.21484375 5.265625 -3.21484375 5.265625 -5.9375 6.25 C-6.83339844 6.58515625 -7.72929688 6.9203125 -8.65234375 7.265625 C-11 8 -11 8 -13 8 C-13 7.01 -13 6.02 -13 5 C-11.21046815 4.16209211 -9.41830305 3.32980604 -7.625 2.5 C-6.62726563 2.0359375 -5.62953125 1.571875 -4.6015625 1.09375 C-2 0 -2 0 0 0 Z " fill="#F0DDA6" transform="translate(1131,532)"/>
<path d="M0 0 C0.66 0.33 1.32 0.66 2 1 C1.34654626 5.46526725 0.47817643 9.72971254 -1 14 C-1.99 14.66 -2.98 15.32 -4 16 C-2.28571429 2.28571429 -2.28571429 2.28571429 0 0 Z " fill="#77492B" transform="translate(846,307)"/>
<path d="M0 0 C3.49844386 0.63389235 5.84086876 2.05177694 8.75 4.0625 C9.94882813 4.88427734 9.94882813 4.88427734 11.171875 5.72265625 C12.07679687 6.35494141 12.07679687 6.35494141 13 7 C12.67 8.32 12.34 9.64 12 11 C9.95880212 9.38405168 7.95927063 7.7143618 6 6 C6 5.34 6 4.68 6 4 C4.35 4 2.7 4 1 4 C0.67 2.68 0.34 1.36 0 0 Z " fill="#784D2E" transform="translate(1143,238)"/>
<path d="M0 0 C6.98629919 -0.50604984 11.20200116 -0.0333905 17 4 C17 4.33 17 4.66 17 5 C12.17639811 5.19294408 8.50353262 4.75747614 4 3 C4 2.34 4 1.68 4 1 C2.68 0.67 1.36 0.34 0 0 Z " fill="#794B2D" transform="translate(1050,202)"/>
<path d="M0 0 C0 3 0 3 -1.96875 5.04296875 C-2.8040625 5.75066406 -3.639375 6.45835937 -4.5 7.1875 C-5.3353125 7.90292969 -6.170625 8.61835938 -7.03125 9.35546875 C-7.6809375 9.89816406 -8.330625 10.44085938 -9 11 C-9.99 10.34 -10.98 9.68 -12 9 C-11.34 8.01 -10.68 7.02 -10 6 C-8.68 6 -7.36 6 -6 6 C-6 5.01 -6 4.02 -6 3 C-4.02 2.01 -2.04 1.02 0 0 Z " fill="#7C512E" transform="translate(1175,499)"/>
<path d="M0 0 C2.60606588 1.30303294 2.91222019 2.31680981 4 5 C4.12375 6.03125 4.2475 7.0625 4.375 8.125 C4.67975948 11.1317049 4.67975948 11.1317049 7.0625 12.375 C7.701875 12.58125 8.34125 12.7875 9 13 C8.67 14.32 8.34 15.64 8 17 C5 16 5 16 3.61328125 13.92578125 C-0.69379336 5.27282955 -0.69379336 5.27282955 0 0 Z " fill="#774D29" transform="translate(852,436)"/>
<path d="M0 0 C5.41538462 -0.36923077 5.41538462 -0.36923077 8.375 1.5 C8.91125 1.995 9.4475 2.49 10 3 C7.36 4.65 4.72 6.3 2 8 C0 2.25 0 2.25 0 0 Z " fill="#F3E6A4" transform="translate(905,224)"/>
<path d="M0 0 C-1.99977858 1.99977858 -5.84329904 1.43532807 -8.5546875 1.62109375 C-11.25068778 1.8632494 -11.25068778 1.8632494 -14 4 C-16.26171875 4.1953125 -16.26171875 4.1953125 -18.6875 4.125 C-19.89986328 4.09792969 -19.89986328 4.09792969 -21.13671875 4.0703125 C-22.05904297 4.03550781 -22.05904297 4.03550781 -23 4 C-21 1 -21 1 -17.2265625 0.234375 C-15.69426019 0.05879869 -14.16021972 -0.10208847 -12.625 -0.25 C-11.85671875 -0.34023438 -11.0884375 -0.43046875 -10.296875 -0.5234375 C-6.5510091 -0.92524318 -3.65313739 -1.07583314 0 0 Z " fill="#F0DDA3" transform="translate(1074,551)"/>
<path d="M0 0 C1.32 0.33 2.64 0.66 4 1 C3.01 1 2.02 1 1 1 C1 1.66 1 2.32 1 3 C1.66 3 2.32 3 3 3 C3 3.66 3 4.32 3 5 C4.65 5.33 6.3 5.66 8 6 C8 7.32 8 8.64 8 10 C7.34 10 6.68 10 6 10 C6 9.34 6 8.68 6 8 C5.278125 7.9175 4.55625 7.835 3.8125 7.75 C0.44686746 6.85249799 -1.41612816 5.2885722 -4 3 C-3.01 2.67 -2.02 2.34 -1 2 C-0.67 1.34 -0.34 0.68 0 0 Z " fill="#C4E08D" transform="translate(328,681)"/>
<path d="M0 0 C0.33 0 0.66 0 1 0 C1 8.91 1 17.82 1 27 C0.67 27 0.34 27 0 27 C-0.33801152 24.45887768 -0.67053379 21.91723254 -1 19.375 C-1.09539062 18.66214844 -1.19078125 17.94929687 -1.2890625 17.21484375 C-1.81606101 13.11178391 -2.10466984 9.14754258 -2 5 C-1.67 5 -1.34 5 -1 5 C-0.67 3.35 -0.34 1.7 0 0 Z " fill="#B9D483" transform="translate(227,509)"/>
<path d="M0 0 C-2.45742256 3.68613384 -3.87712366 3.7065486 -8 5 C-9.299375 5.8353125 -9.299375 5.8353125 -10.625 6.6875 C-13 8 -13 8 -15.1484375 7.58203125 C-16.06496094 7.29392578 -16.06496094 7.29392578 -17 7 C-14.73595458 5.63319847 -12.46498979 4.28155555 -10.1875 2.9375 C-9.54490234 2.54755859 -8.90230469 2.15761719 -8.24023438 1.75585938 C-3.33984375 -1.11328125 -3.33984375 -1.11328125 0 0 Z " fill="#BBD783" transform="translate(521,183)"/>
<path d="M0 0 C2.12890625 0.890625 2.12890625 0.890625 4.5625 2.25 C5.77099609 2.90742187 5.77099609 2.90742187 7.00390625 3.578125 C9 5 9 5 10 8 C7.07171074 8 4.79597286 7.86029934 2 7 C0.8125 5.0625 0.8125 5.0625 0 3 C-0.66 2.34 -1.32 1.68 -2 1 C-1.34 0.67 -0.68 0.34 0 0 Z " fill="#F7EDAE" transform="translate(919,517)"/>
<path d="M0 0 C-2.37493359 2.7499231 -4.48694108 4.04189302 -8 5 C-11.8125 4.625 -11.8125 4.625 -15 4 C-12.60939149 2.40626099 -10.69171821 1.34702924 -8.0625 0.3125 C-7.39347656 0.04050781 -6.72445312 -0.23148438 -6.03515625 -0.51171875 C-3.67169662 -1.0787676 -2.2807201 -0.76024003 0 0 Z " fill="#845C36" transform="translate(957,209)"/>
<path d="M0 0 C0.33 0 0.66 0 1 0 C1.3125 2.1875 1.3125 2.1875 1 5 C-1.5 7.8125 -1.5 7.8125 -4 10 C-4.99 9.67 -5.98 9.34 -7 9 C-6.649375 8.21625 -6.29875 7.4325 -5.9375 6.625 C-5.628125 5.75875 -5.31875 4.8925 -5 4 C-5.33 3.34 -5.66 2.68 -6 2 C-3.03 2.495 -3.03 2.495 0 3 C0 2.01 0 1.02 0 0 Z " fill="#79482A" transform="translate(1183,488)"/>
<path d="M0 0 C2 1 2 1 3 3 C1.35 2.67 -0.3 2.34 -2 2 C-2.20625 2.598125 -2.4125 3.19625 -2.625 3.8125 C-4.51879122 6.82534967 -6.79072973 7.59594426 -10 9 C-10.99 9.495 -10.99 9.495 -12 10 C-11.05928821 6.8250977 -10.44251155 5.30945909 -7.6875 3.3828125 C-6.800625 2.96773437 -5.91375 2.55265625 -5 2.125 C-4.113125 1.69445312 -3.22625 1.26390625 -2.3125 0.8203125 C-1.549375 0.54960937 -0.78625 0.27890625 0 0 Z " fill="#C0D989" transform="translate(436,228)"/>
<path d="M0 0 C1.55296823 2.32945234 2.75775988 4.51551976 4 7 C3.0625 9.125 3.0625 9.125 2 11 C-3 5.375 -3 5.375 -3 2 C-2.01 1.34 -1.02 0.68 0 0 Z " fill="#7B5030" transform="translate(869,461)"/>
<path d="M0 0 C2.625 -0.1875 2.625 -0.1875 5 0 C4.06862408 1.29608947 3.1296434 2.58671632 2.1875 3.875 C1.66542969 4.59429687 1.14335938 5.31359375 0.60546875 6.0546875 C-1 8 -1 8 -4 10 C-4.33 9.34 -4.66 8.68 -5 8 C-3.4960456 5.20694183 -1.75983946 2.63975919 0 0 Z " fill="#F5E2AB" transform="translate(873,255)"/>
<path d="M0 0 C-2 3 -2 3 -4.1640625 3.73046875 C-5.38222656 3.95669922 -5.38222656 3.95669922 -6.625 4.1875 C-7.85089844 4.42533203 -7.85089844 4.42533203 -9.1015625 4.66796875 C-10.04128906 4.83232422 -10.04128906 4.83232422 -11 5 C-8.56727664 0.25618945 -8.56727664 0.25618945 -6.0625 -0.875 C-3.82087733 -1.01085592 -2.13005882 -0.68466176 0 0 Z " fill="#7C4C2F" transform="translate(1130,531)"/>
<path d="M0 0 C0.66 0 1.32 0 2 0 C1.3125 1.875 1.3125 1.875 0 4 C-1.66666667 4.66666667 -3.33333333 5.33333333 -5 6 C-6.34410262 8.01735205 -6.34410262 8.01735205 -7 10 C-7.99 9.67 -8.98 9.34 -10 9 C-9.34 8.01 -8.68 7.02 -8 6 C-7.34 6 -6.68 6 -6 6 C-6 4.68 -6 3.36 -6 2 C-4.02 2 -2.04 2 0 2 C0 1.34 0 0.68 0 0 Z " fill="#F0E0A3" transform="translate(894,238)"/>
<path d="M0 0 C3.57769851 1.5224249 6.45368965 3.02930459 9 6 C8.67 6.99 8.34 7.98 8 9 C6.51714758 8.04737966 5.03881799 7.08771595 3.5625 6.125 C2.73878906 5.59132812 1.91507813 5.05765625 1.06640625 4.5078125 C-1 3 -1 3 -2 1 C-1.34 0.67 -0.68 0.34 0 0 Z " fill="#EEDCA7" transform="translate(1151,239)"/>
<path d="M0 0 C0.66 0.33 1.32 0.66 2 1 C0.35 2.98 -1.3 4.96 -3 7 C-3.33 6.34 -3.66 5.68 -4 5 C-2.68 3.35 -1.36 1.7 0 0 Z M-6 7 C-5.34 7.33 -4.68 7.66 -4 8 C-6.31 10.31 -8.62 12.62 -11 15 C-11.33 14.34 -11.66 13.68 -12 13 C-10 11 -8 9 -6 7 Z M-14 15 C-12 16 -12 16 -12 16 Z " fill="#EDF1A0" transform="translate(606,363)"/>
<path d="M0 0 C0 0.66 0 1.32 0 2 C-0.66 2 -1.32 2 -2 2 C-2.433125 2.928125 -2.433125 2.928125 -2.875 3.875 C-4 6 -4 6 -6 8 C-9.125 7.625 -9.125 7.625 -12 7 C-3.55172414 0 -3.55172414 0 0 0 Z " fill="#BFD884" transform="translate(548,166)"/>
<path d="M0 0 C0.99 -0.33 1.98 -0.66 3 -1 C3.66 -0.67 4.32 -0.34 5 0 C5.625 2.5625 5.625 2.5625 6 5 C4.37276701 4.54965877 2.74826336 4.08944646 1.125 3.625 C0.22007812 3.36976563 -0.68484375 3.11453125 -1.6171875 2.8515625 C-4 2 -4 2 -6 0 C-3 -1 -3 -1 0 0 Z " fill="#B7D382" transform="translate(358,699)"/>
<path d="M0 0 C1.65 0.33 3.3 0.66 5 1 C4.01 1.495 4.01 1.495 3 2 C3 2.66 3 3.32 3 4 C-2.21979128 4.1799928 -6.07262981 3.97094808 -11 2 C-11 1.67 -11 1.34 -11 1 C-7.37 1.33 -3.74 1.66 0 2 C0 1.34 0 0.68 0 0 Z " fill="#754828" transform="translate(1003,545)"/>
<path d="M0 0 C1.32 0.33 2.64 0.66 4 1 C0.89973691 4.27742098 -1.97098894 6.93104837 -6 9 C-6.66 9 -7.32 9 -8 9 C-8 8.01 -8 7.02 -8 6 C-7.195625 5.71125 -6.39125 5.4225 -5.5625 5.125 C-2.8673532 4.26737432 -2.8673532 4.26737432 -2 2 C-1.34 2 -0.68 2 0 2 C0 1.34 0 0.68 0 0 Z " fill="#7E5431" transform="translate(1154,514)"/>
<path d="M0 0 C0.99 0 1.98 0 3 0 C1.63629701 2.99220268 0.05091917 5.29026529 -2.125 7.75 C-2.93324219 8.67039062 -2.93324219 8.67039062 -3.7578125 9.609375 C-4.16773438 10.06828125 -4.57765625 10.5271875 -5 11 C-5.66 10.01 -6.32 9.02 -7 8 C-6.1028125 7.4121875 -6.1028125 7.4121875 -5.1875 6.8125 C-2.83901454 5.0787511 -2.83901454 5.0787511 -1.4375 2.3125 C-0.7259375 1.1678125 -0.7259375 1.1678125 0 0 Z " fill="#719442" transform="translate(290,324)"/>
<path d="M0 0 C0.66 0.33 1.32 0.66 2 1 C2.34153937 2.66500443 2.67449498 4.33178677 3 6 C3.66 6.66 4.32 7.32 5 8 C4.67 9.32 4.34 10.64 4 12 C1.69 9.03 -0.62 6.06 -3 3 C-2.01 2.01 -1.02 1.02 0 0 Z " fill="#F2DEA8" transform="translate(1189,273)"/>
<path d="M0 0 C4.455 0.99 4.455 0.99 9 2 C9 2.66 9 3.32 9 4 C9.66 4.33 10.32 4.66 11 5 C8 6 8 6 5.95703125 5.22265625 C5.24933594 4.83980469 4.54164062 4.45695313 3.8125 4.0625 C3.09707031 3.68222656 2.38164063 3.30195313 1.64453125 2.91015625 C1.10183594 2.60980469 0.55914063 2.30945313 0 2 C0 1.34 0 0.68 0 0 Z " fill="#F6E1AB" transform="translate(1110,216)"/>
<path d="M0 0 C2.27155498 0.08702126 4.54230743 0.19519522 6.8125 0.3125 C8.07707031 0.37050781 9.34164063 0.42851562 10.64453125 0.48828125 C14 1 14 1 15.94921875 2.54296875 C16.29597656 3.02378906 16.64273437 3.50460938 17 4 C13.02623171 5.56393356 10.18622097 4.36145292 6.25 3.0625 C4.49429687 2.49208984 4.49429687 2.49208984 2.703125 1.91015625 C1.81109375 1.60980469 0.9190625 1.30945313 0 1 C0 0.67 0 0.34 0 0 Z " fill="#E1C997" transform="translate(1080,207)"/>
<path d="M0 0 C0.33 0 0.66 0 1 0 C2.20443195 7.05453001 3.28100502 13.83437211 3 21 C2.67 21 2.34 21 2 21 C2 19.35 2 17.7 2 16 C1.34 16 0.68 16 0 16 C0 10.72 0 5.44 0 0 Z " fill="#8F6944" transform="translate(1222,352)"/>
<path d="M0 0 C0 3.54592018 -0.51924867 5.76926982 -2 9 C-5.125 10.875 -5.125 10.875 -8 12 C-6.49087042 7.01987239 -3.44338151 3.75740058 0 0 Z " fill="#BDD885" transform="translate(273,348)"/>
<path d="M0 0 C0.99 0 1.98 0 3 0 C3 0.66 3 1.32 3 2 C6.465 1.505 6.465 1.505 10 1 C9.67 2.32 9.34 3.64 9 5 C3.48387097 4.38709677 3.48387097 4.38709677 1.125 2.5 C0 1 0 1 0 0 Z " fill="#754C27" transform="translate(929,521)"/>
<path d="M0 0 C0.33 0 0.66 0 1 0 C2.42857143 8.57142857 2.42857143 8.57142857 0 12 C-0.66 11.67 -1.32 11.34 -2 11 C-1.85892253 9.54119891 -1.71197585 8.08296449 -1.5625 6.625 C-1.48128906 5.81289063 -1.40007812 5.00078125 -1.31640625 4.1640625 C-1 2 -1 2 0 0 Z " fill="#EBD59F" transform="translate(1219,428)"/>
<path d="M0 0 C0.97631287 3.03741782 1.37693397 5.06254087 0 8 C-3.0625 10.25 -3.0625 10.25 -6 12 C-4.68139111 7.38486888 -2.78644563 3.90102388 0 0 Z " fill="#C1DB87" transform="translate(254,376)"/>
<path d="M0 0 C0.66 1.32 1.32 2.64 2 4 C0.35 4.33 -1.3 4.66 -3 5 C-3 6.65 -3 8.3 -3 10 C-4.98 10.99 -4.98 10.99 -7 12 C-7 8.40142046 -6.04169485 6.90548882 -4 4 C-3.34 4 -2.68 4 -2 4 C-1.34 2.68 -0.68 1.36 0 0 Z " fill="#BDD984" transform="translate(282,337)"/>
<path d="M0 0 C0.66 0 1.32 0 2 0 C2.5345256 1.24420647 3.05208611 2.49570936 3.5625 3.75 C3.85253906 4.44609375 4.14257812 5.1421875 4.44140625 5.859375 C5.07831803 8.30012784 4.80248831 9.6403655 4 12 C3.67 10.02 3.34 8.04 3 6 C2.34 7.32 1.68 8.64 1 10 C0.67 10 0.34 10 0 10 C0 6.7 0 3.4 0 0 Z " fill="#906A45" transform="translate(1216,333)"/>
<path d="M0 0 C2.475 0.495 2.475 0.495 5 1 C5.99 3.97 6.98 6.94 8 10 C3.55555556 7.77777778 3.55555556 7.77777778 2 4 C1.62875 3.2575 1.2575 2.515 0.875 1.75 C0.58625 1.1725 0.2975 0.595 0 0 Z " fill="#794C2A" transform="translate(1200,302)"/>
<path d="M0 0 C4.875 3.625 4.875 3.625 6 7 C5.01 7 4.02 7 3 7 C2.67 7.66 2.34 8.32 2 9 C1.34 9 0.68 9 0 9 C0 6.03 0 3.06 0 0 Z " fill="#825236" transform="translate(1185,275)"/>
<path d="M0 0 C2.64 0.33 5.28 0.66 8 1 C8 2.65 8 4.3 8 6 C4.62537285 5.45276317 2.91765 4.9451 0 3 C0 2.01 0 1.02 0 0 Z " fill="#C4DD89" transform="translate(380,706)"/>
<path d="M0 0 C1.32 0.33 2.64 0.66 4 1 C2.85760183 2.33627775 1.71098945 3.66895388 0.5625 5 C-0.07558594 5.7425 -0.71367188 6.485 -1.37109375 7.25 C-2.17740234 8.11625 -2.17740234 8.11625 -3 9 C-3.33 9 -3.66 9 -4 9 C-4 7.35 -4 5.7 -4 4 C-3.01 4 -2.02 4 -1 4 C-0.67 2.68 -0.34 1.36 0 0 Z " fill="#815734" transform="translate(1188,483)"/>
<path d="M0 0 C2.00293347 3.00440021 2.49271626 4.70993945 3.125 8.1875 C3.29257812 9.08855469 3.46015625 9.98960937 3.6328125 10.91796875 C3.75398437 11.60503906 3.87515625 12.29210937 4 13 C3.34 13 2.68 13 2 13 C1.67 11.02 1.34 9.04 1 7 C0.34 7 -0.32 7 -1 7 C-0.67 4.69 -0.34 2.38 0 0 Z " fill="#FCEEB2" transform="translate(836,403)"/>
<path d="M0 0 C0.33 0 0.66 0 1 0 C1 1.65 1 3.3 1 5 C0.67 5 0.34 5 0 5 C-0.33 6.98 -0.66 8.96 -1 11 C-1.66 11 -2.32 11 -3 11 C-4.62514468 12.45833358 -4.62514468 12.45833358 -6 14 C-4.50829734 9.0276578 -2.39542583 4.58154261 0 0 Z " fill="#B9D682" transform="translate(247,388)"/>
<path d="M0 0 C-3.40219265 2.74792483 -7.48464588 6 -12 6 C-12 5.34 -12 4.68 -12 4 C-11.01 4 -10.02 4 -9 4 C-8.67 3.01 -8.34 2.02 -8 1 C-4.68510482 -0.74468167 -3.63361056 -1.21120352 0 0 Z " fill="#F4DEA6" transform="translate(942,212)"/>
<path d="M0 0 C-1.423125 0.680625 -1.423125 0.680625 -2.875 1.375 C-6.00313679 2.80238254 -6.00313679 2.80238254 -8 5 C-10.125 4.625 -10.125 4.625 -12 4 C-11.67 3.34 -11.34 2.68 -11 2 C-10.34 2 -9.68 2 -9 2 C-9 1.34 -9 0.68 -9 0 C-5.62182575 -0.84454356 -3.32534757 -1.10844919 0 0 Z " fill="#7B4D2D" transform="translate(966,207)"/>
<path d="M0 0 C0.66 0.33 1.32 0.66 2 1 C-0.64 3.64 -3.28 6.28 -6 9 C-7.32 8.34 -8.64 7.68 -10 7 C-6.7 4.69 -3.4 2.38 0 0 Z " fill="#BEDB86" transform="translate(614,125)"/>
<path d="M0 0 C0.66 0.33 1.32 0.66 2 1 C1.67 2.32 1.34 3.64 1 5 C0.34 5 -0.32 5 -1 5 C-1.33 5.66 -1.66 6.32 -2 7 C-3.98 7 -5.96 7 -8 7 C-5.42215154 4.35247996 -3.08351902 2.05567935 0 0 Z " fill="#ECD69E" transform="translate(1162,512)"/>
<path d="M0 0 C0.66 0 1.32 0 2 0 C0.43358249 4.30764815 -1.68336156 8.06171464 -4 12 C-4.6875 10.375 -4.6875 10.375 -5 8 C-3.65194009 4.79033355 -2.46598569 2.46598569 0 0 Z " fill="#F4E1AB" transform="translate(860,274)"/>
<path d="M0 0 C0.61875 0.165 1.2375 0.33 1.875 0.5 C3.96063386 1.07634644 3.96063386 1.07634644 6 1 C7.06775224 2.96466413 8.06553465 4.96855359 9 7 C8.67 7.66 8.34 8.32 8 9 C6.66368764 7.6905332 5.33102075 6.37734515 4 5.0625 C3.2575 4.33160156 2.515 3.60070312 1.75 2.84765625 C0 1 0 1 0 0 Z " fill="#8D6740" transform="translate(889,492)"/>
<path d="M0 0 C0.66 0 1.32 0 2 0 C3.7479503 5.24385089 4.19392201 9.47322267 4 15 C1.37969313 10.13371581 -0.3283194 5.5814298 0 0 Z " fill="#7C542E" transform="translate(840,408)"/>
<path d="M0 0 C0.33 0 0.66 0 1 0 C0.67 2.97 0.34 5.94 0 9 C-0.99 8.67 -1.98 8.34 -3 8 C-3 5.69 -3 3.38 -3 1 C-2.01 1.33 -1.02 1.66 0 2 C0 1.34 0 0.68 0 0 Z " fill="#F6E7AD" transform="translate(846,299)"/>
<path d="M0 0 C3.79588866 0.54226981 5.47211993 2.20127563 8 5 C7.01 5.66 6.02 6.32 5 7 C3.29115995 5.37660195 1.62553283 3.70680947 0 2 C0 1.34 0 0.68 0 0 Z " fill="#F0DBA4" transform="translate(1161,248)"/>
<path d="M0 0 C9.17286652 -0.63019694 9.17286652 -0.63019694 12.625 2 C13.07875 2.66 13.5325 3.32 14 4 C9.13103697 3.40380045 4.67209049 2.43023178 0 1 C0 0.67 0 0.34 0 0 Z " fill="#B8D683" transform="translate(414,720)"/>
<path d="M0 0 C0.33 0.66 0.66 1.32 1 2 C0.071875 2.433125 -0.85625 2.86625 -1.8125 3.3125 C-4.94274244 4.74574242 -4.94274244 4.74574242 -6.625 6.75 C-7.07875 7.1625 -7.5325 7.575 -8 8 C-10.0859375 7.578125 -10.0859375 7.578125 -12 7 C-8.08705685 4.08447373 -4.67105792 1.55701931 0 0 Z " fill="#B6D381" transform="translate(422,236)"/>
<path d="M0 0 C0.33 0.99 0.66 1.98 1 3 C-0.65 4.32 -2.3 5.64 -4 7 C-6 6 -6 6 -7 4 C-4.69 2.68 -2.38 1.36 0 0 Z " fill="#F1DFA5" transform="translate(1153,519)"/>
<path d="M0 0 C1.5 1.1875 1.5 1.1875 3 3 C3.1875 5.6875 3.1875 5.6875 3 8 C1.68 7.67 0.36 7.34 -1 7 C-1.04254356 5.00045254 -1.04080783 2.99958364 -1 1 C-0.67 0.67 -0.34 0.34 0 0 Z " fill="#F6E5AB" transform="translate(845,429)"/>
<path d="M0 0 C2.475 0.495 2.475 0.495 5 1 C5.33 2.32 5.66 3.64 6 5 C4.68 5.33 3.36 5.66 2 6 C1.34 4.02 0.68 2.04 0 0 Z " fill="#7C4C30" transform="translate(1158,250)"/>
<path d="M0 0 C0.66 0 1.32 0 2 0 C2 1.65 2 3.3 2 5 C1.01 3.68 0.02 2.36 -1 1 C-0.67 0.67 -0.34 0.34 0 0 Z M-1 4 C0.32 5.32 1.64 6.64 3 8 C2.34 9.32 1.68 10.64 1 12 C-0.25664978 9.09399739 -1 7.20395416 -1 4 Z " fill="#EFDC9E" transform="translate(1205,296)"/>
<path d="M0 0 C1.62580966 0.11398665 3.25067157 0.24155659 4.875 0.375 C5.77992188 0.44460938 6.68484375 0.51421875 7.6171875 0.5859375 C10 1 10 1 12 3 C7.71 3 3.42 3 -1 3 C-0.67 2.01 -0.34 1.02 0 0 Z " fill="#80A24F" transform="translate(446,729)"/>
<path d="M0 0 C3.375 1.75 3.375 1.75 4.375 4.75 C0.06659287 3.67289822 -3.26076723 2.71052484 -6.625 -0.25 C-3.625 -1.25 -3.625 -1.25 0 0 Z " fill="#876337" transform="translate(951.625,531.25)"/>
<path d="M0 0 C1.98 0 3.96 0 6 0 C6 0.66 6 1.32 6 2 C6.66 2 7.32 2 8 2 C8 2.66 8 3.32 8 4 C7.34 4 6.68 4 6 4 C5.67 4.66 5.34 5.32 5 6 C3.35 4.02 1.7 2.04 0 0 Z " fill="#7E5B33" transform="translate(883,486)"/>
<path d="M0 0 C0.99 0 1.98 0 3 0 C2.46884894 4.51478398 0.63379708 7.34666857 -2 11 C-2.33 10.34 -2.66 9.68 -3 9 C-2.525625 8.21625 -2.05125 7.4325 -1.5625 6.625 C0.34098924 3.93627764 0.34098924 3.93627764 0 0 Z " fill="#794D2B" transform="translate(1203,459)"/>
<path d="M0 0 C0.68707555 2.49064888 1 4.37886292 1 7 C0.34 7 -0.32 7 -1 7 C-1.66 8.32 -2.32 9.64 -3 11 C-4 8 -4 8 -3.22265625 5.95703125 C-2.83980469 5.24933594 -2.45695313 4.54164063 -2.0625 3.8125 C-1.68222656 3.09707031 -1.30195312 2.38164062 -0.91015625 1.64453125 C-0.60980469 1.10183594 -0.30945313 0.55914062 0 0 Z " fill="#89653F" transform="translate(852,291)"/>
<path d="M0 0 C-0.66 0.66 -1.32 1.32 -2 2 C-2.66 1.67 -3.32 1.34 -4 1 C-4 1.66 -4 2.32 -4 3 C-3.34 3.33 -2.68 3.66 -2 4 C-4.97 3.505 -4.97 3.505 -8 3 C-8 2.01 -8 1.02 -8 0 C-4.71303767 -0.79953138 -3.28976808 -1.09658936 0 0 Z " fill="#84513A" transform="translate(1113,219)"/>
<path d="M0 0 C1.32 0 2.64 0 4 0 C4 0.66 4 1.32 4 2 C2.46875 3.2890625 2.46875 3.2890625 0.5 4.625 C-0.1496875 5.07101563 -0.799375 5.51703125 -1.46875 5.9765625 C-1.9740625 6.31429687 -2.479375 6.65203125 -3 7 C-3.66 6.67 -4.32 6.34 -5 6 C-4.67 5.34 -4.34 4.68 -4 4 C-3.01 4 -2.02 4 -1 4 C-0.67 2.68 -0.34 1.36 0 0 Z " fill="#739745" transform="translate(573,147)"/>
<path d="M0 0 C2.3125 0.1875 2.3125 0.1875 4 1 C3.67 1.99 3.34 2.98 3 4 C0.36 4.33 -2.28 4.66 -5 5 C-2.75 2.4375 -2.75 2.4375 0 0 Z " fill="#C0DB86" transform="translate(690,74)"/>
<path d="M0 0 C0.66 0.33 1.32 0.66 2 1 C0.625 2.5 0.625 2.5 -1 4 C-1.66 4 -2.32 4 -3 4 C-3.33 4.99 -3.66 5.98 -4 7 C-5.65 7 -7.3 7 -9 7 C-6.3765992 4.08511023 -3.28183606 2.11496102 0 0 Z " fill="#BAD483" transform="translate(774,22)"/>
<path d="M0 0 C1.9375 0.75 1.9375 0.75 4 2 C4.75 4.125 4.75 4.125 5 6 C3.35 6 1.7 6 0 6 C0.33 4.68 0.66 3.36 1 2 C0.34 1.67 -0.32 1.34 -1 1 C-0.67 0.67 -0.34 0.34 0 0 Z " fill="#41682D" transform="translate(218,634)"/>
<path d="M0 0 C5.445 1.485 5.445 1.485 11 3 C9.02 3.99 9.02 3.99 7 5 C7 4.34 7 3.68 7 3 C6.21625 3.185625 5.4325 3.37125 4.625 3.5625 C2 4 2 4 0 3 C0 2.01 0 1.02 0 0 Z " fill="#E8D49B" transform="translate(952,535)"/>
<path d="M0 0 C-0.66 1.32 -1.32 2.64 -2 4 C-2.99 3.67 -3.98 3.34 -5 3 C-5.99 3.495 -5.99 3.495 -7 4 C-6.625 2.0625 -6.625 2.0625 -6 0 C-3.50907189 -1.24546405 -2.58919267 -0.7767578 0 0 Z " fill="#825036" transform="translate(1208,457)"/>
<path d="M0 0 C-1.1858237 3.37503669 -2.27573689 5.64722731 -5 8 C-5.75 6.25 -5.75 6.25 -6 4 C-2.77777778 0 -2.77777778 0 0 0 Z " fill="#739645" transform="translate(265,358)"/>
<path d="M0 0 C-4.30769231 3.93846154 -4.30769231 3.93846154 -7.8125 4.25 C-8.534375 4.1675 -9.25625 4.085 -10 4 C-6.87839899 0.56623888 -4.64008112 -1.54669371 0 0 Z " fill="#BBD784" transform="translate(449,223)"/>
<path d="M0 0 C2 1 2 1 3 3 C-0.465 4.485 -0.465 4.485 -4 6 C-4 5.34 -4 4.68 -4 4 C-4.66 3.67 -5.32 3.34 -6 3 C-5 2 -5 2 -2.4375 1.9375 C-1.2309375 1.9684375 -1.2309375 1.9684375 0 2 C0 1.34 0 0.68 0 0 Z " fill="#6F9747" transform="translate(449,217)"/>
<path d="M0 0 C0.66 0.33 1.32 0.66 2 1 C-0.97 3.475 -0.97 3.475 -4 6 C-5.32 5.34 -6.64 4.68 -8 4 C-6.71349294 3.30289269 -5.42059335 2.61757124 -4.125 1.9375 C-3.40570312 1.55464844 -2.68640625 1.17179688 -1.9453125 0.77734375 C-1.30335938 0.52082031 -0.66140625 0.26429688 0 0 Z " fill="#875F39" transform="translate(940,213)"/>
<path d="M0 0 C2.97 0.33 5.94 0.66 9 1 C8.67 1.66 8.34 2.32 8 3 C6.35 2.67 4.7 2.34 3 2 C3 2.66 3 3.32 3 4 C2.01 4 1.02 4 0 4 C0 2.68 0 1.36 0 0 Z " fill="#7B4B2D" transform="translate(1040,200)"/>
<path d="M0 0 C2.625 0.375 2.625 0.375 5 1 C1.25 4 1.25 4 -1 4 C-1 4.66 -1 5.32 -1 6 C-1.66 6 -2.32 6 -3 6 C-2.42655063 3.13275314 -2.1385485 2.1385485 0 0 Z " fill="#729946" transform="translate(601,130)"/>
<path d="M0 0 C3.86107457 2.57404971 3.94319692 4.61020259 5 9 C4.34 9.66 3.68 10.32 3 11 C2.49384702 9.73160474 1.99530901 8.46016898 1.5 7.1875 C1.2215625 6.47980469 0.943125 5.77210938 0.65625 5.04296875 C0 3 0 3 0 0 Z " fill="#C1DD88" transform="translate(233,557)"/>
<path d="M0 0 C-3.08888522 2.05925681 -3.70935927 2.2390374 -7.1875 2.125 C-9.0746875 2.063125 -9.0746875 2.063125 -11 2 C-7.49890112 -1.50109888 -4.63591413 -1.15897853 0 0 Z " fill="#764D29" transform="translate(1083,547)"/>
<path d="M0 0 C2 3 2 3 2 5 C0.125 5.625 0.125 5.625 -2 6 C-2.66 5.34 -3.32 4.68 -4 4 C-3.67 3.01 -3.34 2.02 -3 1 C-2.01 0.67 -1.02 0.34 0 0 Z " fill="#76472A" transform="translate(866,456)"/>
<path d="M0 0 C0.66 0.33 1.32 0.66 2 1 C-3.625 6 -3.625 6 -7 6 C-7 5.34 -7 4.68 -7 4 C-6.01 4 -5.02 4 -4 4 C-3.67 3.01 -3.34 2.02 -3 1 C-2.01 0.67 -1.02 0.34 0 0 Z " fill="#41672C" transform="translate(320,248)"/>
<path d="M0 0 C2.97 0.495 2.97 0.495 6 1 C6 1.99 6 2.98 6 4 C4.68 4.33 3.36 4.66 2 5 C1.34 3.35 0.68 1.7 0 0 Z " fill="#78462B" transform="translate(1136,234)"/>
<path d="M0 0 C0.66 0.99 1.32 1.98 2 3 C-2.455 3.495 -2.455 3.495 -7 4 C-6.67 3.01 -6.34 2.02 -6 1 C-4.02 0.67 -2.04 0.34 0 0 Z " fill="#784729" transform="translate(918,227)"/>
<path d="M0 0 C5.94 0.99 5.94 0.99 12 2 C12 2.33 12 2.66 12 3 C5.74557657 4.34899329 5.74557657 4.34899329 2.0625 2.625 C1.381875 2.08875 0.70125 1.5525 0 1 C0 0.67 0 0.34 0 0 Z " fill="#845F37" transform="translate(1062,203)"/>
<path d="M0 0 C1.8871875 0.061875 1.8871875 0.061875 3.8125 0.125 C2.25 1.6875 2.25 1.6875 -0.1875 3.125 C-3.9375 2.8125 -3.9375 2.8125 -7.1875 2.125 C-4.09861478 0.06574319 -3.47814073 -0.1140374 0 0 Z " fill="#7A4E2B" transform="translate(988.1875,200.875)"/>
<path d="M0 0 C1.32 0.66 2.64 1.32 4 2 C1.69 3.32 -0.62 4.64 -3 6 C-3 4.68 -3 3.36 -3 2 C-2.01 1.34 -1.02 0.68 0 0 Z " fill="#749747" transform="translate(652,96)"/>
<path d="M0 0 C-0.33 0.99 -0.66 1.98 -1 3 C-4.3 2.67 -7.6 2.34 -11 2 C-11 1.67 -11 1.34 -11 1 C-7.26562152 0.12132271 -3.83225427 -0.08912219 0 0 Z " fill="#976D49" transform="translate(1020,549)"/>
<path d="M0 0 C0 0.66 0 1.32 0 2 C0.99 2.33 1.98 2.66 3 3 C1.54077307 2.88590407 0.08259402 2.75834456 -1.375 2.625 C-2.59316406 2.52058594 -2.59316406 2.52058594 -3.8359375 2.4140625 C-6 2 -6 2 -8 0 C-4.71023192 -1.09658936 -3.28696233 -0.79953138 0 0 Z " fill="#8B653D" transform="translate(992,545)"/>
<path d="M0 0 C-0.33 0.66 -0.66 1.32 -1 2 C-5.47540984 3.26229508 -5.47540984 3.26229508 -8 2 C-8 1.34 -8 0.68 -8 0 C-4.71303767 -0.79953138 -3.28976808 -1.09658936 0 0 Z " fill="#FCF0B4" transform="translate(1105,545)"/>
<path d="M0 0 C0.66 0.66 1.32 1.32 2 2 C1.67 2.33 1.34 2.66 1 3 C1.99 3.66 2.98 4.32 4 5 C3.01 5.33 2.02 5.66 1 6 C-1.1875 4.6875 -1.1875 4.6875 -3 3 C-3 2.34 -3 1.68 -3 1 C-2.01 0.67 -1.02 0.34 0 0 Z " fill="#8A5E3C" transform="translate(922,514)"/>
<path d="M0 0 C2 1 2 1 3 3 C2.67 3.66 2.34 4.32 2 5 C-0.0625 5.625 -0.0625 5.625 -2 6 C-2.33 5.01 -2.66 4.02 -3 3 C-2.01 2.01 -1.02 1.02 0 0 Z " fill="#EDDEA2" transform="translate(1168,507)"/>
<path d="M0 0 C2.64 1.98 5.28 3.96 8 6 C7.01 6.33 6.02 6.66 5 7 C2.3125 5.25 2.3125 5.25 0 3 C0 2.01 0 1.02 0 0 Z " fill="#F0DBA5" transform="translate(902,504)"/>
<path d="M0 0 C0 3.20395416 -0.74335022 5.09399739 -2 8 C-3.65 8 -5.3 8 -7 8 C-6.02133662 6.85373678 -5.04205413 5.70800212 -4.0625 4.5625 C-3.51722656 3.92441406 -2.97195313 3.28632813 -2.41015625 2.62890625 C-1.63204305 1.73008851 -0.84063472 0.84063472 0 0 Z " fill="#DEC693" transform="translate(1182,494)"/>
<path d="M0 0 C0.66 0 1.32 0 2 0 C0.84826645 2.46800047 -0.04783565 4.04783565 -2 6 C-4.125 5.625 -4.125 5.625 -6 5 C-2.25 2 -2.25 2 0 2 C0 1.34 0 0.68 0 0 Z " fill="#EBF2A3" transform="translate(626,346)"/>
<path d="M0 0 C0.99 0 1.98 0 3 0 C3.33 1.98 3.66 3.96 4 6 C3.01 6 2.02 6 1 6 C0.67 4.02 0.34 2.04 0 0 Z " fill="#F1E2A8" transform="translate(1211,315)"/>
<path d="M0 0 C0.66 0.99 1.32 1.98 2 3 C0.625 4.5 0.625 4.5 -1 6 C-1.66 6 -2.32 6 -3 6 C-3 5.34 -3 4.68 -3 4 C-3.66 3.67 -4.32 3.34 -5 3 C-3.35 2.01 -1.7 1.02 0 0 Z " fill="#BED885" transform="translate(372,266)"/>
<path d="M0 0 C-2.06756277 2.7972908 -3.14440371 3.02692273 -6.6875 3.6875 C-7.780625 3.790625 -8.87375 3.89375 -10 4 C-7.99220736 -0.01558529 -4.07814299 -1.359381 0 0 Z " fill="#BCD883" transform="translate(404,249)"/>
<path d="M0 0 C2.8125 -0.25 2.8125 -0.25 6 0 C7.875 2 7.875 2 9 4 C8.01 4.33 7.02 4.66 6 5 C2.8125 3.125 2.8125 3.125 0 1 C0 0.67 0 0.34 0 0 Z " fill="#EFD9A5" transform="translate(1136,231)"/>
<path d="M0 0 C2.97 0.33 5.94 0.66 9 1 C5.77208445 3.1519437 4.71599191 3.20086443 1 3 C0.67 2.01 0.34 1.02 0 0 Z " fill="#EDD7A3" transform="translate(956,204)"/>
<path d="M0 0 C3.63 0.33 7.26 0.66 11 1 C11 1.33 11 1.66 11 2 C7.37 2.33 3.74 2.66 0 3 C0 2.01 0 1.02 0 0 Z " fill="#F4DEA6" transform="translate(992,197)"/>
<path d="M0 0 C0.66 0.33 1.32 0.66 2 1 C1.34 2.32 0.68 3.64 0 5 C-2.97 4.505 -2.97 4.505 -6 4 C-4.03617993 2.49440461 -2.21736634 1.10868317 0 0 Z " fill="#C0DD85" transform="translate(554,162)"/>
<path d="M0 0 C0.66 0.99 1.32 1.98 2 3 C-3.625 5.125 -3.625 5.125 -7 4 C-4.69 2.68 -2.38 1.36 0 0 Z " fill="#BCD986" transform="translate(734,47)"/>
<path d="M0 0 C0.99 0 1.98 0 3 0 C2.875 1.8125 2.875 1.8125 2 4 C-1.0625 5.75 -1.0625 5.75 -4 7 C-4 6.01 -4 5.02 -4 4 C-2.68 3.34 -1.36 2.68 0 2 C0 1.34 0 0.68 0 0 Z " fill="#6D943F" transform="translate(725,48)"/>
<path d="M0 0 C0.7425 0.0825 1.485 0.165 2.25 0.25 C0.27579865 2.77259061 -0.71745642 3.2429808 -3.9375 3.9375 C-5.3296875 4.0921875 -5.3296875 4.0921875 -6.75 4.25 C-3.42692308 0.31153846 -3.42692308 0.31153846 0 0 Z " fill="#C0D985" transform="translate(746.75,39.75)"/>
<path d="M0 0 C0.33 0.66 0.66 1.32 1 2 C1.66 2.33 2.32 2.66 3 3 C1.35 4.65 -0.3 6.3 -2 8 C-2 4.79604584 -1.25664978 2.90600261 0 0 Z " fill="#6E9746" transform="translate(275,340)"/>
<path d="M0 0 C0.99 0.33 1.98 0.66 3 1 C2.67 2.32 2.34 3.64 2 5 C1.01 5 0.02 5 -1 5 C-0.67 3.35 -0.34 1.7 0 0 Z " fill="#77452B" transform="translate(858,282)"/>
<path d="M0 0 C0.66 0.66 1.32 1.32 2 2 C-1.96 3.98 -1.96 3.98 -6 6 C-6 5.01 -6 4.02 -6 3 C-4.68 3 -3.36 3 -2 3 C-2 2.34 -2 1.68 -2 1 C-1.34 0.67 -0.68 0.34 0 0 Z " fill="#EFD8A1" transform="translate(927,217)"/>
<path d="M0 0 C-0.33 1.32 -0.66 2.64 -1 4 C-2.98 4 -4.96 4 -7 4 C-3.17391304 0 -3.17391304 0 0 0 Z " fill="#E2CE9B" transform="translate(1146,524)"/>
<path d="M0 0 C0.66 0.33 1.32 0.66 2 1 C1.25 5.75 1.25 5.75 -1 8 C-1.93065133 5.39417629 -2.14917407 4.35801776 -1.0625 1.75 C-0.711875 1.1725 -0.36125 0.595 0 0 Z " fill="#FDF0B2" transform="translate(1213,448)"/>
<path d="M0 0 C0.66 0 1.32 0 2 0 C2.33 2.31 2.66 4.62 3 7 C2.01 6.67 1.02 6.34 0 6 C0 4.02 0 2.04 0 0 Z " fill="#ECD89F" transform="translate(833,389)"/>
<path d="M0 0 C1.9375 0.75 1.9375 0.75 4 2 C4.75 4.125 4.75 4.125 5 6 C3.35 5.67 1.7 5.34 0 5 C0.33 4.01 0.66 3.02 1 2 C0.67 1.34 0.34 0.68 0 0 Z " fill="#754829" transform="translate(1189,282)"/>
<path d="M0 0 C0.66 0.33 1.32 0.66 2 1 C0.515 3.475 0.515 3.475 -1 6 C-2.32 5.34 -3.64 4.68 -5 4 C-3.36587557 2.29159719 -2.13093906 1.06546953 0 0 Z " fill="#BDD886" transform="translate(388,256)"/>
<path d="M0 0 C2.125 0.375 2.125 0.375 4 1 C2.60804085 3.7839183 0.84424221 3.97898997 -2 5 C-2 2 -2 2 0 0 Z " fill="#754C2A" transform="translate(889,245)"/>
<path d="M0 0 C2.625 0.375 2.625 0.375 5 1 C3.515 2.485 3.515 2.485 2 4 C0.68 3.34 -0.64 2.68 -2 2 C-1.34 1.34 -0.68 0.68 0 0 Z " fill="#6E9644" transform="translate(536,168)"/>
<path d="M0 0 C0.66 0.33 1.32 0.66 2 1 C1 4 1 4 -2 6 C-2.99 5.34 -3.98 4.68 -5 4 C-3.35 2.68 -1.7 1.36 0 0 Z " fill="#BDD785" transform="translate(575,149)"/>
<path d="M0 0 C0.99 0.33 1.98 0.66 3 1 C2.67 1.99 2.34 2.98 2 4 C0.35 3.67 -1.3 3.34 -3 3 C-2.01 2.01 -1.02 1.02 0 0 Z " fill="#BDD986" transform="translate(638,109)"/>
<path d="M0 0 C0 0.99 0 1.98 0 3 C-2.3125 5.25 -2.3125 5.25 -5 7 C-5.99 6.67 -6.98 6.34 -8 6 C-5.36 4.02 -2.72 2.04 0 0 Z " fill="#B9D782" transform="translate(663,92)"/>
</svg>
