<?xml version="1.0" encoding="UTF-8"?>
<svg version="1.1" xmlns="http://www.w3.org/2000/svg" width="512" height="512">
<path d="M0 0 C1.10571588 -0.00297112 2.21143176 -0.00594224 3.35065418 -0.0090034 C7.03960914 -0.01764463 10.72853147 -0.01919477 14.41749573 -0.02069092 C17.06938833 -0.02532239 19.72127804 -0.03032748 22.37316895 -0.03573608 C29.56782834 -0.0492731 36.76248212 -0.0553371 43.95715213 -0.05974674 C48.45782573 -0.06251747 52.95849722 -0.06675635 57.45916939 -0.07125092 C69.94358275 -0.08343838 82.42799442 -0.09373817 94.9124136 -0.09712601 C95.71025965 -0.09734557 96.5081057 -0.09756514 97.33012891 -0.09779136 C98.1297836 -0.09800964 98.92943828 -0.09822791 99.75332493 -0.09845281 C101.37347821 -0.09889626 102.9936315 -0.09934282 104.61378479 -0.09979248 C105.41742091 -0.10001391 106.22105702 -0.10023534 107.04904575 -0.10046348 C120.05345712 -0.1044065 133.05781228 -0.12184769 146.06220197 -0.145152 C159.44418288 -0.16893745 172.82613568 -0.18133115 186.20813805 -0.18249393 C193.7092289 -0.18340675 201.21024653 -0.18905908 208.71131706 -0.20731354 C215.10205122 -0.22281211 221.49268953 -0.22777814 227.88343894 -0.21957543 C231.13636661 -0.21570285 234.38906411 -0.21810533 237.6419754 -0.23063278 C268.16357997 -0.34120566 294.57057361 4.3810713 318.71266174 24.14044189 C319.36492737 24.64059814 320.01719299 25.14075439 320.68922424 25.65606689 C334.94779878 36.98479735 345.19523703 55.19350182 350.46266174 72.39044189 C350.6613385 73.02031006 350.86001526 73.65017822 351.06471252 74.2991333 C355.62084556 90.14604331 355.00022121 106.81079539 354.97145081 123.12091064 C354.97416537 125.71796771 354.97772891 128.315024 354.98207092 130.91207886 C354.99090578 137.19850915 354.9890695 143.48489136 354.98324564 149.77132344 C354.97870569 154.88617802 354.97812626 160.00101923 354.98029327 165.11587524 C354.98059974 165.84733393 354.98090621 166.57879261 354.98122196 167.33241671 C354.98186149 168.81894247 354.98250992 170.30546823 354.98316714 171.79199398 C354.98885313 185.69017568 354.98233984 199.58833089 354.97156641 213.48650825 C354.96263248 225.37930407 354.96418501 237.27206084 354.97340393 249.16485596 C354.98413729 263.01757225 354.98830397 276.87026539 354.9821794 290.72298527 C354.98154239 292.20365969 354.98091365 293.68433412 354.98029327 295.16500854 C354.97998472 295.89329068 354.97967617 296.62157281 354.97935827 297.3719241 C354.9776405 302.47318501 354.98052649 307.57443109 354.98525238 312.6756897 C354.99148831 319.55736337 354.98696933 326.43896259 354.97546387 333.32062912 C354.97283473 335.83596043 354.97355226 338.35129797 354.9779892 340.86662674 C355.02811327 372.18606173 351.05149176 399.29036762 330.71266174 424.14044189 C330.21250549 424.79270752 329.71234924 425.44497314 329.19703674 426.11700439 C313.4213189 445.97264927 287.60632225 456.91503612 263.0666554 459.92680418 C258.55737796 460.3360456 254.04316763 460.28098719 249.5186615 460.27415466 C247.85713592 460.277553 247.85713592 460.277553 246.16204417 460.28101999 C242.46064429 460.28733601 238.75928125 460.28653215 235.05787659 460.28570557 C232.39964156 460.28869859 229.74140939 460.29207334 227.08317566 460.29588318 C220.6171948 460.30417251 214.15122306 460.30693726 207.68523733 460.30749556 C202.42524933 460.30797163 197.16526431 460.31003093 191.90527725 460.31319618 C176.97165247 460.32199886 162.03803487 460.32661628 147.10440747 460.32586571 C146.30014603 460.32582575 145.49588459 460.3257858 144.66725159 460.32574463 C143.86200073 460.32570375 143.05674987 460.32566287 142.22709747 460.32562075 C129.18760116 460.32521461 116.14813378 460.33477692 103.10864584 460.348883 C89.69959577 460.36327362 76.29055978 460.37015167 62.88150179 460.36928922 C55.36153925 460.36895813 47.84160702 460.37166644 40.32165146 460.38246727 C33.91688495 460.3916078 27.51216247 460.3937186 21.10739224 460.38695785 C17.84488763 460.38371018 14.58248416 460.38467555 11.31998444 460.3923111 C-23.06943117 460.46755151 -50.85409609 453.94184056 -76.59202576 429.89044189 C-96.57018766 409.50692598 -105.46375872 383.02692415 -105.42105103 354.82618713 C-105.42331658 353.71764899 -105.42558214 352.60911085 -105.42791635 351.46698064 C-105.43422427 347.76868681 -105.43342904 344.07042994 -105.43260193 340.37213135 C-105.43559544 337.71374883 -105.43897037 335.05536915 -105.44277954 332.39698792 C-105.45106365 325.93448627 -105.45383337 319.47199376 -105.45439192 313.00948725 C-105.45486818 307.75238357 -105.45692844 302.49528289 -105.46009254 297.23818016 C-105.46889333 282.31046353 -105.47351287 267.38275407 -105.47276207 252.45503483 C-105.47272211 251.65133879 -105.47268216 250.84764275 -105.47264099 250.01959229 C-105.47257967 248.81256425 -105.47257967 248.81256425 -105.47251711 247.58115181 C-105.4721109 234.5481856 -105.48167573 221.51524832 -105.49577936 208.48229048 C-105.51016983 195.0777288 -105.51704806 181.67318121 -105.51618558 168.26861161 C-105.51585451 160.75201742 -105.51856185 153.23545355 -105.52936363 145.71886635 C-105.53850391 139.31778385 -105.54061512 132.91674542 -105.53385421 126.51565919 C-105.53060658 123.25517288 -105.53157182 119.99478776 -105.53920746 116.73430634 C-105.61448344 82.35052814 -99.08431483 54.56895188 -75.03733826 28.83575439 C-54.65917991 8.86284351 -28.19209595 -0.02395263 0 0 Z M-52.28733826 54.14044189 C-52.98214294 54.81462158 -53.67694763 55.48880127 -54.39280701 56.18341064 C-67.31168856 69.50210284 -72.47230691 86.96338694 -72.40759277 105.18241882 C-72.4084472 106.07044711 -72.40930162 106.95847539 -72.41018194 107.87341362 C-72.41182362 110.83671142 -72.4063369 113.79995208 -72.40086365 116.76324463 C-72.40058147 118.89232888 -72.40074011 121.02141324 -72.40130615 123.15049744 C-72.40159292 128.92263464 -72.39571561 134.69475105 -72.38873219 140.46688342 C-72.38247864 146.50203518 -72.38189327 152.53718742 -72.38070679 158.57234192 C-72.37759938 169.99730445 -72.36939394 181.4222574 -72.3593573 192.84721571 C-72.34817784 205.8555936 -72.34268109 218.86397194 -72.33766186 231.87235343 C-72.32721085 258.62838823 -72.30962282 285.38441452 -72.28733826 312.14044189 C-68.68248825 308.57096306 -65.29072895 304.90546732 -62.03733826 301.01544189 C-61.55845154 300.4463208 -61.07956482 299.87719971 -60.58616638 299.29083252 C-56.88236057 294.87872918 -53.23633428 290.42063701 -49.59983826 285.95294189 C-47.02587407 282.82244491 -44.41163402 279.72872911 -41.78733826 276.64044189 C-38.29054487 272.52509757 -34.82882942 268.38558971 -31.41233826 264.20294189 C-30.68143982 263.31219971 -29.95054138 262.42145752 -29.19749451 261.50372314 C-28.09886423 260.1444771 -27.01411024 258.77316507 -25.97093201 257.37091064 C-17.85921498 246.65892195 -3.31021087 240.59574393 9.58766174 238.51544189 C10.96108585 238.37417541 12.33629032 238.24930743 13.71266174 238.14044189 C14.69299377 238.05923096 14.69299377 238.05923096 15.69313049 237.97637939 C30.61912642 237.36029701 45.44196175 242.45238384 56.77516174 252.14044189 C66.26717804 261.28843124 74.62300961 271.75342632 82.71266174 282.14044189 C87.99209115 277.98429534 92.01339299 273.44684917 96.19313049 268.19903564 C98.91784843 264.8913548 101.78109073 261.76347377 104.71266174 258.64044189 C108.36198153 254.74512626 111.86968723 250.8070478 115.21266174 246.64044189 C119.03089989 241.8814784 123.09690262 237.43000971 127.26686096 232.98297119 C130.43939616 229.5793476 133.43267467 226.09187447 136.33766174 222.45294189 C147.68855888 208.48260696 160.46185336 198.0664232 178.71266174 195.14044189 C195.9874092 193.52476614 212.22734936 196.16977089 226.22828674 207.10528564 C235.57555331 215.23270453 243.59089054 224.66614675 251.33375549 234.29278564 C254.50994744 238.09482823 257.88536996 241.68947941 261.27101135 245.30426025 C265.17262844 249.49373715 268.78590972 253.86217125 272.36891174 258.32794189 C275.04474452 261.53894123 277.85625881 264.59071826 280.71266174 267.64044189 C285.17140618 272.40133184 289.35064004 277.3051201 293.43531799 282.39434814 C296.36873115 285.93155132 299.48296094 289.2861593 302.61598206 292.64483643 C306.48069509 296.8150872 310.04768828 301.18323222 313.54469299 305.66778564 C315.26390105 307.62861213 316.85053716 309.15932616 318.84815979 310.79498291 C319.79344543 311.56898438 320.73873108 312.34298584 321.71266174 313.14044189 C321.78284996 285.10623513 321.83569796 257.07204159 321.86809826 229.03776455 C321.88354444 216.01995844 321.90459091 203.00220703 321.9389801 189.98443604 C321.96895136 178.63359716 321.98825308 167.28279793 321.99492723 155.93192059 C321.9988264 149.92586646 322.007943 143.91992568 322.02985191 137.913908 C322.05033921 132.25128691 322.05647094 126.58882499 322.05198479 120.92617035 C322.05280454 118.85710088 322.05869671 116.78802563 322.07027817 114.71898842 C322.14721646 100.25431733 322.06271774 85.72293856 314.90016174 72.70294189 C314.36914856 71.69723145 314.36914856 71.69723145 313.82740784 70.67120361 C311.20227939 65.79969659 308.43349949 61.26025059 304.71266174 57.14044189 C303.62018127 55.92807861 303.62018127 55.92807861 302.50563049 54.69122314 C290.40794059 41.94578292 274.7114315 34.19308769 257.04146659 32.9529717 C254.15073514 32.87902253 251.26593357 32.86414747 248.37426758 32.87301636 C247.27515881 32.86848524 246.17605004 32.86395413 245.04363495 32.85928571 C241.38305547 32.84668718 237.72262565 32.84825917 234.06202698 32.84991455 C231.42806452 32.84392638 228.79411352 32.83717604 226.16015625 32.82955933 C219.76028146 32.81300095 213.36044353 32.80745208 206.96054911 32.80633457 C201.75259489 32.80538143 196.54465274 32.8012579 191.33670235 32.79493332 C176.5407613 32.77733329 161.74484918 32.76809225 146.94889759 32.76959427 C145.75434488 32.76971414 145.75434488 32.76971414 144.53565979 32.76983643 C143.73830809 32.76991819 142.9409564 32.76999995 142.11944253 32.77008419 C129.21139279 32.77089625 116.30345998 32.75177557 103.39544403 32.72355969 C90.11174129 32.694754 76.82809542 32.68102368 63.5443607 32.68274724 C56.09862995 32.68340861 48.6530217 32.67802872 41.20731926 32.65639114 C34.86522841 32.6380776 28.52331556 32.63391447 22.18120956 32.64740999 C18.9526418 32.65388955 15.7244812 32.65201874 12.49593353 32.63670349 C-12.62045901 32.52534684 -34.02846433 35.36266569 -52.28733826 54.14044189 Z " fill="#FFFFFF" transform="translate(131.28733825683594,25.85955810546875)"/>
<path d="M0 0 C7.75745693 6.11960614 12.76614344 14.95559073 14.91015625 24.54296875 C16.15661354 36.92351086 15.46110595 48.38938164 8.09765625 58.79296875 C7.05556229 60.06003088 5.99306283 61.31060533 4.91015625 62.54296875 C4.15798828 63.45175781 4.15798828 63.45175781 3.390625 64.37890625 C-2.43133693 70.86663998 -11.31508591 75.95041242 -20.11352539 76.7199707 C-35.04110603 77.14813008 -46.36923738 75.70349441 -58.08984375 65.54296875 C-67.26689118 55.7681826 -71.66846519 44.83097287 -71.33203125 31.4296875 C-70.31435597 19.29965476 -65.64222308 9.54645647 -56.77734375 1.16796875 C-39.56685471 -13.09131589 -17.96569771 -12.52561728 0 0 Z " fill="#FFFFFF" transform="translate(177.08984375,115.45703125)"/>
</svg>
