<?xml version="1.0" encoding="UTF-8"?>
<svg version="1.1" xmlns="http://www.w3.org/2000/svg" width="512" height="512">
<path d="M0 0 C0.76841721 -0.00705963 1.53683441 -0.01411926 2.32853699 -0.02139282 C57.99640942 -0.41618302 111.04642816 14.27446352 154.6171875 50.203125 C155.17712402 50.66154785 155.73706055 51.1199707 156.31396484 51.59228516 C168.95014766 61.99627519 180.64932692 73.17891693 190.6171875 86.203125 C191.26252441 87.04182129 191.26252441 87.04182129 191.92089844 87.89746094 C198.85014932 96.95122309 205.01142348 106.27906912 210.6171875 116.203125 C210.98553711 116.84411133 211.35388672 117.48509766 211.73339844 118.14550781 C230.92498769 151.75159516 240.11167222 190.2809383 239.9296875 228.828125 C239.92753235 229.65661957 239.9253772 230.48511414 239.92315674 231.3387146 C239.66602284 293.21508988 214.43384355 350.22680893 171.0546875 394.015625 C165.54480407 399.47353606 159.779653 404.48678474 153.6171875 409.203125 C152.77849121 409.84846191 152.77849121 409.84846191 151.92285156 410.50683594 C142.86908941 417.43608682 133.54124338 423.59736098 123.6171875 429.203125 C122.97620117 429.57147461 122.33521484 429.93982422 121.67480469 430.31933594 C102.84779008 441.07096934 82.66071232 448.18426981 61.6171875 453.203125 C60.91658203 453.37038086 60.21597656 453.53763672 59.49414062 453.70996094 C55.22419561 454.70173138 50.94304408 455.49848169 46.6171875 456.203125 C45.41191406 456.40808594 44.20664062 456.61304688 42.96484375 456.82421875 C19.27581709 460.36328095 -6.90070247 459.67694708 -30.3828125 455.203125 C-31.29095703 455.03151855 -32.19910156 454.85991211 -33.13476562 454.68310547 C-93.35378641 442.91072876 -145.77626879 407.77011459 -180.3828125 357.203125 C-183.58501384 352.31906291 -186.51131275 347.28662903 -189.3828125 342.203125 C-189.93533691 341.24164551 -189.93533691 341.24164551 -190.49902344 340.26074219 C-220.54690642 287.6443712 -226.07892193 223.202231 -210.25830078 165.23583984 C-193.99004773 108.88217575 -155.43958819 59.22687549 -104.3828125 30.203125 C-103.70831055 29.81801758 -103.03380859 29.43291016 -102.33886719 29.03613281 C-71.65425824 11.72369796 -35.47530155 0.21935671 0 0 Z M122.17079163 103.44474792 C120.80382393 103.89627983 120.80382393 103.89627983 119.40924072 104.35693359 C118.41059998 104.69700439 117.41195923 105.0370752 116.38305664 105.38745117 C115.32853806 105.73866531 114.27401947 106.08987946 113.18754578 106.45173645 C109.6729037 107.62468507 106.16269931 108.81038418 102.65234375 109.99609375 C100.18723033 110.82153481 97.72184789 111.64617288 95.25621033 112.470047 C89.38938639 114.43189163 83.52567212 116.402866 77.6630215 118.37714225 C71.13750234 120.57421047 64.60883398 122.76183641 58.07975125 124.94828773 C47.4368639 128.51249478 36.79609026 132.08296772 26.15673828 135.65771484 C10.94322237 140.76870766 -4.280863 145.84766529 -19.50930786 150.91397095 C-26.08013513 153.10032097 -32.64938941 155.29139486 -39.21890068 157.48169518 C-42.94015226 158.72232885 -46.66148687 159.96271346 -50.3828125 161.203125 C-51.88281286 161.70312392 -53.3828129 162.20312379 -54.8828125 162.703125 C-114.1328125 182.453125 -114.1328125 182.453125 -173.3828125 202.203125 C-170.19201742 204.78454003 -166.8878937 206.54057927 -163.1953125 208.3203125 C-162.58981567 208.61328217 -161.98431885 208.90625183 -161.36047363 209.20809937 C-159.37007195 210.16931481 -157.37656267 211.12387672 -155.3828125 212.078125 C-153.97453233 212.75602486 -152.56633034 213.43408717 -151.15820312 214.11230469 C-141.3199606 218.84090547 -131.42575453 223.44212142 -121.50976562 228.00537109 C-110.38239919 233.1517005 -99.37755733 238.5422906 -88.36795044 243.93493652 C-74.28578549 250.82950344 -60.13499402 257.55066352 -45.85888672 264.03515625 C-43.80528144 265.00384562 -41.85736377 266.04964259 -39.88671875 267.171875 C-37.47874367 268.49985507 -37.47874367 268.49985507 -35.41618228 267.44206107 C-33.44213149 266.23926817 -31.97388848 265.04280263 -30.34498978 263.41139793 C-29.7692321 262.83962236 -29.19347443 262.26784678 -28.60026956 261.67874467 C-27.97769635 261.05034578 -27.35512314 260.4219469 -26.71368408 259.77450562 C-26.04464735 259.10717773 -25.37561061 258.43984985 -24.68630004 257.7522999 C-22.44135727 255.51065645 -20.20364644 253.26192996 -17.96582031 251.01318359 C-16.35976892 249.40656819 -14.75327726 247.8003928 -13.14637756 246.19462585 C-8.78069327 241.82951644 -4.42121193 237.45825879 -0.06279469 233.08589506 C4.49137244 228.5192432 9.05118686 223.95823744 13.6104126 219.39663696 C21.2635193 211.73801614 28.91312146 204.07591327 36.56005859 196.41113281 C44.43629514 188.51653704 52.31463041 180.62404547 60.19580078 172.734375 C60.68163017 172.24802017 61.16745955 171.76166534 61.66801104 171.26057248 C64.10529769 168.82067574 66.5426257 166.38082032 68.97997427 163.94098544 C89.19879402 143.70143371 109.41028227 123.45457165 129.6171875 103.203125 C126.20141481 102.0645341 125.47250879 102.3364817 122.17079163 103.44474792 Z M136.6171875 110.203125 C82.1671875 164.653125 27.7171875 219.103125 -28.3828125 275.203125 C-23.76789653 285.58668593 -19.17758071 295.88371143 -14.1953125 306.078125 C-9.70646375 315.32842996 -5.31194842 324.61549536 -1.0078125 333.953125 C3.89418096 344.57870001 8.94093124 355.12426042 14.06256104 365.64511108 C19.33082097 376.47268089 24.45549763 387.36066067 29.49414062 398.296875 C29.99365234 399.38097656 30.49316406 400.46507812 31.0078125 401.58203125 C31.44125977 402.5263501 31.87470703 403.47066895 32.32128906 404.44360352 C33.70452218 407.38909784 35.15092972 410.2981888 36.6171875 413.203125 C38.86591336 410.95439914 39.33907792 409.53353648 40.33346558 406.54203796 C40.6638533 405.5578186 40.99424103 404.57359924 41.3346405 403.55955505 C41.69197769 402.47473343 42.04931488 401.3899118 42.41748047 400.2722168 C42.7983934 399.1316684 43.17930634 397.99112 43.57176208 396.81600952 C44.62020312 393.6726083 45.66323473 390.52750802 46.70388937 387.38152671 C47.80585879 384.05422404 48.9144525 380.72912948 50.02224731 377.40376282 C51.89413286 371.78163949 53.76157377 366.15805621 55.62597656 360.53344727 C58.20920003 352.74031189 60.80062847 344.94992459 63.39367437 337.16005301 C71.30471669 313.39052271 79.2006054 289.61655478 86.89650536 265.77630997 C94.03942828 243.65040484 101.4590914 221.61734791 108.86800957 199.5793705 C111.9008173 190.55733135 114.92825614 181.53349942 117.95234871 172.50853539 C119.90539283 166.68111523 121.86198469 160.85492734 123.82543945 155.03100586 C125.75981901 149.29278147 127.68553044 143.55171655 129.60513878 137.80853462 C130.33124951 135.64126852 131.06052239 133.47505914 131.79303932 131.30994987 C132.80368542 128.32123914 133.80320249 125.32902992 134.80004883 122.33569336 C135.10271667 121.44926147 135.40538452 120.56282959 135.71722412 119.64953613 C135.98458878 118.83919418 136.25195343 118.02885223 136.52742004 117.19395447 C136.76348371 116.49129424 136.99954737 115.78863401 137.24276447 115.06468105 C137.82119085 112.98665919 137.82119085 112.98665919 136.6171875 110.203125 Z " fill="#15A349" transform="translate(245.3828125,26.796875)"/>
</svg>
