<?xml version="1.0" encoding="UTF-8"?>
<svg version="1.1" xmlns="http://www.w3.org/2000/svg" width="1024" height="1024">
<path d="M0 0 C2.57875017 0.36236189 4.95376832 0.47253329 7.55078125 0.40234375 C10.86328125 0.40234375 10.86328125 0.40234375 13.86328125 2.40234375 C15.27694925 2.87396937 16.70994551 3.28939564 18.15234375 3.6640625 C19.42815308 4.00606689 19.42815308 4.00606689 20.72973633 4.35498047 C21.64005615 4.59748535 22.55037598 4.83999023 23.48828125 5.08984375 C55.70814614 14.01481532 84.27959041 30.96537204 108.39550781 54.00195312 C109.37682661 54.93822136 110.36321156 55.86920729 111.35449219 56.79492188 C122.60888571 67.32440652 131.51691465 79.31779558 139.61328125 92.40234375 C140.02457275 93.06443848 140.43586426 93.7265332 140.85961914 94.40869141 C149.56518361 108.8670357 155.81676464 124.28394132 161.92578125 139.96484375 C162.75339318 142.07303677 163.58152561 144.18102553 164.41015625 146.28881836 C170.42552395 161.61512123 176.36096981 176.9730522 182.23071289 192.35571289 C182.66964622 193.50444885 182.66964622 193.50444885 183.1174469 194.6763916 C183.65345414 196.08002664 184.18827433 197.48411594 184.72154236 198.88879395 C185.91977977 202.02671926 187.17423223 205.11994316 188.54492188 208.18530273 C189.86328125 211.40234375 189.86328125 211.40234375 189.86328125 214.40234375 C190.52328125 214.73234375 191.18328125 215.06234375 191.86328125 215.40234375 C192.56762695 217.30078125 192.56762695 217.30078125 193.2265625 219.77734375 C194.83522807 225.46284773 196.8947918 230.90515546 199.05078125 236.40234375 C199.77646909 238.25532601 200.49927989 240.10943845 201.21875 241.96484375 C201.53481201 242.77050781 201.85087402 243.57617188 202.17651367 244.40625 C202.86328125 246.40234375 202.86328125 246.40234375 202.86328125 248.40234375 C203.52328125 248.73234375 204.18328125 249.06234375 204.86328125 249.40234375 C205.57545471 251.31231689 205.57545471 251.31231689 206.24047852 253.79785156 C207.81433034 259.34865931 209.76596155 264.68865744 211.828125 270.07421875 C212.21361511 271.09008057 212.59910522 272.10594238 212.99627686 273.15258789 C213.8277864 275.34342219 214.66072672 277.5337139 215.4949646 279.72351074 C217.74592196 285.63410845 219.98422436 291.54949334 222.22265625 297.46484375 C222.91804756 299.30184845 222.91804756 299.30184845 223.62748718 301.17596436 C228.6584575 314.48044429 233.6125172 327.8132144 238.55078125 341.15234375 C238.9555368 342.2441394 239.36029236 343.33593506 239.77731323 344.46081543 C257.11692701 391.24262925 257.11692701 391.24262925 261.05078125 404.90234375 C261.37336914 406.0106958 261.69595703 407.11904785 262.02832031 408.26098633 C284.72138901 487.37809206 281.01108014 567.05298601 241.36279297 640.16943359 C234.39617118 652.65808612 226.63731026 664.39339642 217.96386719 675.75854492 C216.67432003 677.52750706 216.67432003 677.52750706 215.86328125 680.40234375 C214.22171744 682.09374075 212.54973856 683.75570557 210.86328125 685.40234375 C208.81873534 687.67703848 206.84161857 690.0075146 204.86328125 692.33984375 C204.35539063 692.93474609 203.8475 693.52964844 203.32421875 694.14257812 C202.82148437 694.73232422 202.31875 695.32207031 201.80078125 695.9296875 C201.30964844 696.5057373 200.81851563 697.08178711 200.3125 697.67529297 C199.3422475 698.83155411 198.38649567 700.00013172 197.4453125 701.18017578 C196.29172846 702.62088722 195.08208877 704.0163734 193.86328125 705.40234375 C193.20328125 705.40234375 192.54328125 705.40234375 191.86328125 705.40234375 C191.59773437 705.99764893 191.3321875 706.5929541 191.05859375 707.20629883 C189.82831967 709.46657565 188.62546237 710.80850644 186.73828125 712.5390625 C186.11969238 713.11148682 185.50110352 713.68391113 184.86376953 714.27368164 C184.2036084 714.87301514 183.54344727 715.47234863 182.86328125 716.08984375 C181.84016846 717.02848267 181.84016846 717.02848267 180.79638672 717.98608398 C179.4339044 719.2344089 178.06920336 720.48031709 176.70214844 721.72363281 C175.20484056 723.09053257 173.72309256 724.47446148 172.24609375 725.86328125 C164.60025357 732.97999754 156.24363661 739.18757395 147.86328125 745.40234375 C147.17314941 745.91732422 146.48301758 746.43230469 145.77197266 746.96289062 C134.35073752 755.43679819 122.36684949 762.6400056 109.86328125 769.40234375 C108.82204102 769.96646973 108.82204102 769.96646973 107.75976562 770.54199219 C88.46187221 780.86975927 67.98508407 788.74266489 46.86328125 794.40234375 C45.54674561 794.75570801 45.54674561 794.75570801 44.20361328 795.11621094 C37.80111543 796.79058176 31.36496159 798.17209582 24.86328125 799.40234375 C23.83638184 799.59989258 22.80948242 799.79744141 21.75146484 800.00097656 C-12.25093 806.24079132 -49.2156166 805.98480298 -83.13671875 799.40234375 C-84.2345166 799.19335449 -85.33231445 798.98436523 -86.46337891 798.76904297 C-110.68132295 794.01099215 -133.94712249 786.17370695 -156.13671875 775.40234375 C-156.83796875 775.06879883 -157.53921875 774.73525391 -158.26171875 774.39160156 C-180.51377208 763.80291141 -201.44592878 750.49411855 -220.13671875 734.40234375 C-221.28696192 733.43524741 -222.43806077 732.46916821 -223.58984375 731.50390625 C-230.41987816 725.75157851 -236.93840547 719.84162817 -243.13671875 713.40234375 C-243.96171875 712.57734375 -244.78671875 711.75234375 -245.63671875 710.90234375 C-246.46171875 710.07734375 -247.28671875 709.25234375 -248.13671875 708.40234375 C-248.7915625 707.77070312 -249.44640625 707.1390625 -250.12109375 706.48828125 C-255.41833939 701.31890016 -260.20778085 695.91829462 -264.78808594 690.10595703 C-266.31073689 688.18252141 -267.85326755 686.27573674 -269.39453125 684.3671875 C-277.27840926 674.51288823 -284.28737333 664.33822927 -290.82470703 653.54589844 C-292.57987276 650.67832213 -294.4034024 647.85548526 -296.23413086 645.03564453 C-297.13671875 643.40234375 -297.13671875 643.40234375 -297.13671875 641.40234375 C-298.45671875 641.07234375 -299.77671875 640.74234375 -301.13671875 640.40234375 C-301.19601562 639.4690625 -301.2553125 638.53578125 -301.31640625 637.57421875 C-302.10035184 632.12757242 -304.7996693 627.50779286 -307.26171875 622.65234375 C-312.30139606 612.45548157 -316.45955683 602.15772863 -320.13671875 591.40234375 C-320.79671875 591.40234375 -321.45671875 591.40234375 -322.13671875 591.40234375 C-324.26171875 584.65234375 -324.26171875 584.65234375 -323.13671875 582.40234375 C-323.77281464 581.05415821 -324.44402263 579.7223416 -325.13671875 578.40234375 C-325.62890625 576.4921875 -325.62890625 576.4921875 -326.01171875 574.33984375 C-326.63219581 570.98829049 -327.29433577 567.65606518 -328.046875 564.33203125 C-334.73762291 534.54219571 -336.30651054 504.75955406 -333.609375 474.3515625 C-333.16965219 469.34223384 -333.04667185 464.42907943 -333.13671875 459.40234375 C-332.47671875 459.40234375 -331.81671875 459.40234375 -331.13671875 459.40234375 C-331.12253906 458.80292969 -331.10835937 458.20351563 -331.09375 457.5859375 C-330.64032664 448.97089369 -328.81533818 440.8003338 -326.86450195 432.41381836 C-326.64366943 431.4522583 -326.42283691 430.49069824 -326.1953125 429.5 C-325.89065063 428.20848022 -325.89065063 428.20848022 -325.57983398 426.89086914 C-325.12597304 424.34199605 -325.05836834 421.98559421 -325.13671875 419.40234375 C-324.47671875 419.40234375 -323.81671875 419.40234375 -323.13671875 419.40234375 C-323.06340332 418.82871094 -322.99008789 418.25507813 -322.91455078 417.6640625 C-321.41665133 407.90272022 -318.14003084 398.73318818 -315.01171875 389.40234375 C-314.16597658 386.8689681 -313.32243243 384.33493029 -312.48416138 381.79907227 C-311.96570462 380.23162722 -311.44283043 378.66563464 -310.91500854 377.10131836 C-309.91462001 374.08451025 -309.13671875 371.60326243 -309.13671875 368.40234375 C-308.47671875 368.40234375 -307.81671875 368.40234375 -307.13671875 368.40234375 C-307.04696777 367.6244751 -306.9572168 366.84660645 -306.86474609 366.04516602 C-305.89620341 361.19887984 -304.2117002 356.74078559 -302.48828125 352.1171875 C-302.1194281 351.11536942 -301.75057495 350.11355133 -301.37054443 349.08137512 C-300.17264819 345.83230966 -298.96714951 342.58612042 -297.76171875 339.33984375 C-296.94049595 337.1144135 -296.11969629 334.88882706 -295.29931641 332.66308594 C-291.7509751 323.05199482 -288.1797404 313.45077069 -284.49609375 303.890625 C-284.23327606 303.20689316 -283.97045837 302.52316132 -283.69967651 301.81871033 C-282.52384005 298.76336104 -281.33801187 295.71259236 -280.13525391 292.66772461 C-279.73097168 291.62624268 -279.32668945 290.58476074 -278.91015625 289.51171875 C-278.39074463 288.1963916 -278.39074463 288.1963916 -277.86083984 286.85449219 C-277.09190993 284.2506041 -276.99948254 282.10233007 -277.13671875 279.40234375 C-276.47671875 279.40234375 -275.81671875 279.40234375 -275.13671875 279.40234375 C-274.80687988 278.52763428 -274.47704102 277.6529248 -274.13720703 276.75170898 C-272.8191393 273.25738205 -271.49967853 269.76358238 -270.17974854 266.2699585 C-269.56800488 264.65061314 -268.95647311 263.03118773 -268.34515381 261.41168213 C-264.33407094 250.78847557 -260.28761677 240.17964252 -256.19921875 229.5859375 C-255.37088491 227.43629705 -254.5425969 225.28663895 -253.71435547 223.13696289 C-252.49000719 219.95958311 -251.26389107 216.78294311 -250.0322876 213.60836792 C-248.87783809 210.63250373 -247.72939843 207.6543818 -246.58203125 204.67578125 C-246.23269531 203.78052231 -245.88335937 202.88526337 -245.5234375 201.96287537 C-245.20777832 201.14029739 -244.89211914 200.31771942 -244.56689453 199.47021484 C-244.28935333 198.75352631 -244.01181213 198.03683777 -243.7258606 197.2984314 C-242.98835816 195.25577944 -242.98835816 195.25577944 -243.13671875 192.40234375 C-242.47671875 192.40234375 -241.81671875 192.40234375 -241.13671875 192.40234375 C-240.97104904 191.8189624 -240.80537933 191.23558105 -240.63468933 190.63452148 C-238.6415086 183.78841734 -236.26782863 177.13365088 -233.75 170.46484375 C-233.32929733 169.34529297 -232.90859467 168.22574219 -232.47514343 167.07226562 C-231.58680011 164.71175159 -230.69669906 162.35189837 -229.80493164 159.99267578 C-228.46449157 156.44279074 -227.13329906 152.88953382 -225.80273438 149.3359375 C-220.97208843 136.49526296 -215.89202009 123.85621833 -210.13671875 111.40234375 C-209.15621968 109.23627972 -208.17675621 107.06974596 -207.19921875 104.90234375 C-204.37464596 98.69785844 -204.37464596 98.69785844 -202.296875 96.1171875 C-200.20156 93.48383502 -198.39169045 90.79507506 -196.57421875 87.96484375 C-190.01610331 78.04828931 -182.63452067 68.7466937 -174.5 60.07421875 C-172.92606707 58.50354941 -172.92606707 58.50354941 -173.13671875 56.40234375 C-171.47947518 55.38680373 -169.81075594 54.38995565 -168.13671875 53.40234375 C-166.50086483 51.9582985 -164.89905566 50.47519915 -163.32421875 48.96484375 C-149.79121398 36.5035803 -134.63584176 26.49014915 -118.13671875 18.40234375 C-117.47671875 17.74234375 -116.81671875 17.08234375 -116.13671875 16.40234375 C-114.14763008 15.70379475 -112.14492875 15.04385528 -110.13671875 14.40234375 C-108.8822408 13.90835941 -107.63243303 13.40240411 -106.38671875 12.88671875 C-87.84752946 5.27661139 -69.06620546 0.50256394 -49.13671875 -1.59765625 C-48.4391748 -1.6735498 -47.74163086 -1.74944336 -47.02294922 -1.82763672 C-31.41562702 -3.42947117 -15.45794258 -2.53621333 0 0 Z M-322.13671875 585.40234375 C-321.13671875 588.40234375 -321.13671875 588.40234375 -321.13671875 588.40234375 Z M-300.13671875 637.40234375 C-299.13671875 639.40234375 -299.13671875 639.40234375 -299.13671875 639.40234375 Z " fill="#97D773" transform="translate(541.13671875,79.59765625)"/>
<path d="M0 0 C1.22589844 0.36222656 2.45179688 0.72445312 3.71484375 1.09765625 C28.93664433 9.31912716 50.57701788 27.79101087 62.8125 51.23828125 C66.8835682 59.52882869 70.02002986 68.17017441 73.25 76.8125 C74.30172233 79.60446567 75.35568087 82.3955816 76.40959167 85.1867218 C77.14426188 87.13311588 77.87814817 89.07980601 78.61128235 91.02677917 C81.24562428 98.0197994 83.90882863 105.00131135 86.58984375 111.9765625 C86.96951797 112.96437714 87.3491922 113.95219177 87.7403717 114.96994019 C88.50646124 116.96274677 89.27259988 118.95553448 90.03878784 120.94830322 C97.0078427 139.08328697 103.85230242 157.2598551 110.58517456 175.48362732 C113.79658024 184.16736816 117.05660732 192.83286688 120.3125 201.5 C125.56673193 215.49073626 130.79336109 229.49148516 136 243.5 C140.95968126 256.84071143 145.92597929 270.17889909 150.91827393 283.50744629 C151.55315886 285.20298397 152.18756283 286.89870182 152.82147217 288.59460449 C155.81832179 296.61114295 158.82899945 304.61853066 161.984375 312.57421875 C172.22333852 338.39685165 177.6379022 363.60244456 177.375 391.4375 C177.37001495 392.33341858 177.36502991 393.22933716 177.3598938 394.15240479 C177.27430939 407.30021771 176.93371053 420.13289108 174 433 C173.76893555 434.03688965 173.53787109 435.0737793 173.29980469 436.14208984 C165.02431462 472.3929001 149.34713232 504.05997784 124.22265625 531.5546875 C122.08951605 533.90151662 120.01367927 536.29034586 117.9375 538.6875 C114.23721931 542.84577221 110.26872615 546.43900331 106 550 C105.12730469 550.76054688 104.25460937 551.52109375 103.35546875 552.3046875 C59.28017532 590.18465856 3.50228538 602.84084032 -53.3828125 599.75 C-57.64387609 599.42585009 -61.80463175 598.80483295 -66 598 C-66.95422852 597.81695313 -67.90845703 597.63390625 -68.89160156 597.4453125 C-90.37934514 593.16756816 -110.79350108 586.62040119 -130 576 C-131.04945801 575.42378906 -131.04945801 575.42378906 -132.12011719 574.8359375 C-145.90517556 567.19468923 -157.86827389 558.24313631 -169.34765625 547.46484375 C-171.45711064 545.50451132 -173.58945942 543.63945317 -175.8125 541.8125 C-179.6373654 538.55495913 -182.80612157 534.86881123 -186 531 C-186.43473633 530.47760742 -186.86947266 529.95521484 -187.31738281 529.41699219 C-219.34534243 490.78801581 -237.27142976 444.24673217 -237.1875 393.9375 C-237.18623108 393.15666046 -237.18496216 392.37582092 -237.18365479 391.57131958 C-237.08782759 360.66863401 -230.15642748 332.56790427 -218.98403931 303.8024292 C-217.55054779 300.10877614 -216.1306328 296.40991102 -214.7109375 292.7109375 C-214.25920921 291.53423996 -214.25920921 291.53423996 -213.7983551 290.33377075 C-210.23753761 281.03862458 -206.77430742 271.70736986 -203.3125 262.375 C-201.95340563 258.71213537 -200.59408118 255.04935631 -199.234375 251.38671875 C-198.89022552 250.45966629 -198.54607605 249.53261383 -198.1914978 248.57746887 C-194.55187138 238.78094577 -190.87599399 228.9980972 -187.20007324 219.21514893 C-181.10550388 202.99446467 -175.05218552 186.75970103 -169.0625 170.5 C-160.31460744 146.7546523 -151.42028362 123.06443436 -142.52758789 99.37304688 C-142.24788871 98.62785073 -141.96818953 97.88265459 -141.68001461 97.11487675 C-140.30928261 93.46328585 -138.93779996 89.81197995 -137.56480408 86.16123962 C-135.13288774 79.69334104 -132.70833398 73.22309001 -130.31054688 66.74243164 C-129.90070557 65.63817841 -129.49086426 64.53392517 -129.06860352 63.39620972 C-128.32400403 61.38826607 -127.58265193 59.3791134 -126.84545898 57.36843872 C-117.8833129 33.24117459 -99.34977569 15.71524186 -76.4375 4.6875 C-52.56529765 -5.77107409 -24.97614844 -7.67768948 0 0 Z " fill="#D7F5A9" transform="translate(542,185)"/>
<path d="M0 0 C2.57875017 0.36236189 4.95376832 0.47253329 7.55078125 0.40234375 C10.86328125 0.40234375 10.86328125 0.40234375 13.86328125 2.40234375 C15.27694925 2.87396937 16.70994551 3.28939564 18.15234375 3.6640625 C19.42815308 4.00606689 19.42815308 4.00606689 20.72973633 4.35498047 C21.64005615 4.59748535 22.55037598 4.83999023 23.48828125 5.08984375 C55.70814614 14.01481532 84.27959041 30.96537204 108.39550781 54.00195312 C109.37682661 54.93822136 110.36321156 55.86920729 111.35449219 56.79492188 C122.60888571 67.32440652 131.51691465 79.31779558 139.61328125 92.40234375 C140.02457275 93.06443848 140.43586426 93.7265332 140.85961914 94.40869141 C149.56518361 108.8670357 155.81676464 124.28394132 161.92578125 139.96484375 C162.75339318 142.07303677 163.58152561 144.18102553 164.41015625 146.28881836 C170.42552395 161.61512123 176.36096981 176.9730522 182.23071289 192.35571289 C182.66964622 193.50444885 182.66964622 193.50444885 183.1174469 194.6763916 C183.65345414 196.08002664 184.18827433 197.48411594 184.72154236 198.88879395 C185.91977977 202.02671926 187.17423223 205.11994316 188.54492188 208.18530273 C189.86328125 211.40234375 189.86328125 211.40234375 189.86328125 214.40234375 C190.52328125 214.73234375 191.18328125 215.06234375 191.86328125 215.40234375 C192.56762695 217.30078125 192.56762695 217.30078125 193.2265625 219.77734375 C194.83522807 225.46284773 196.8947918 230.90515546 199.05078125 236.40234375 C199.77646909 238.25532601 200.49927989 240.10943845 201.21875 241.96484375 C201.53481201 242.77050781 201.85087402 243.57617188 202.17651367 244.40625 C202.86328125 246.40234375 202.86328125 246.40234375 202.86328125 248.40234375 C203.52328125 248.73234375 204.18328125 249.06234375 204.86328125 249.40234375 C205.57545471 251.31231689 205.57545471 251.31231689 206.24047852 253.79785156 C207.81433034 259.34865931 209.76596155 264.68865744 211.828125 270.07421875 C212.21361511 271.09008057 212.59910522 272.10594238 212.99627686 273.15258789 C213.8277864 275.34342219 214.66072672 277.5337139 215.4949646 279.72351074 C217.74592196 285.63410845 219.98422436 291.54949334 222.22265625 297.46484375 C222.91804756 299.30184845 222.91804756 299.30184845 223.62748718 301.17596436 C228.6584575 314.48044429 233.6125172 327.8132144 238.55078125 341.15234375 C238.9555368 342.2441394 239.36029236 343.33593506 239.77731323 344.46081543 C257.11692701 391.24262925 257.11692701 391.24262925 261.05078125 404.90234375 C261.37336914 406.0106958 261.69595703 407.11904785 262.02832031 408.26098633 C284.72138901 487.37809206 281.01108014 567.05298601 241.36279297 640.16943359 C234.39617118 652.65808612 226.63731026 664.39339642 217.96386719 675.75854492 C216.67432003 677.52750706 216.67432003 677.52750706 215.86328125 680.40234375 C214.22171744 682.09374075 212.54973856 683.75570557 210.86328125 685.40234375 C208.81873534 687.67703848 206.84161857 690.0075146 204.86328125 692.33984375 C204.35539063 692.93474609 203.8475 693.52964844 203.32421875 694.14257812 C202.82148437 694.73232422 202.31875 695.32207031 201.80078125 695.9296875 C201.30964844 696.5057373 200.81851563 697.08178711 200.3125 697.67529297 C199.3422475 698.83155411 198.38649567 700.00013172 197.4453125 701.18017578 C196.29172846 702.62088722 195.08208877 704.0163734 193.86328125 705.40234375 C193.20328125 705.40234375 192.54328125 705.40234375 191.86328125 705.40234375 C191.59773437 705.99764893 191.3321875 706.5929541 191.05859375 707.20629883 C189.82831967 709.46657565 188.62546237 710.80850644 186.73828125 712.5390625 C186.11969238 713.11148682 185.50110352 713.68391113 184.86376953 714.27368164 C184.2036084 714.87301514 183.54344727 715.47234863 182.86328125 716.08984375 C181.84016846 717.02848267 181.84016846 717.02848267 180.79638672 717.98608398 C179.4339044 719.2344089 178.06920336 720.48031709 176.70214844 721.72363281 C175.20484056 723.09053257 173.72309256 724.47446148 172.24609375 725.86328125 C164.60025357 732.97999754 156.24363661 739.18757395 147.86328125 745.40234375 C147.17314941 745.91732422 146.48301758 746.43230469 145.77197266 746.96289062 C134.35073752 755.43679819 122.36684949 762.6400056 109.86328125 769.40234375 C108.82204102 769.96646973 108.82204102 769.96646973 107.75976562 770.54199219 C88.46187221 780.86975927 67.98508407 788.74266489 46.86328125 794.40234375 C45.54674561 794.75570801 45.54674561 794.75570801 44.20361328 795.11621094 C37.80111543 796.79058176 31.36496159 798.17209582 24.86328125 799.40234375 C23.83638184 799.59989258 22.80948242 799.79744141 21.75146484 800.00097656 C-12.25093 806.24079132 -49.2156166 805.98480298 -83.13671875 799.40234375 C-84.2345166 799.19335449 -85.33231445 798.98436523 -86.46337891 798.76904297 C-110.68132295 794.01099215 -133.94712249 786.17370695 -156.13671875 775.40234375 C-156.83796875 775.06879883 -157.53921875 774.73525391 -158.26171875 774.39160156 C-180.51377208 763.80291141 -201.44592878 750.49411855 -220.13671875 734.40234375 C-221.28696192 733.43524741 -222.43806077 732.46916821 -223.58984375 731.50390625 C-230.41987816 725.75157851 -236.93840547 719.84162817 -243.13671875 713.40234375 C-243.96171875 712.57734375 -244.78671875 711.75234375 -245.63671875 710.90234375 C-246.46171875 710.07734375 -247.28671875 709.25234375 -248.13671875 708.40234375 C-248.7915625 707.77070312 -249.44640625 707.1390625 -250.12109375 706.48828125 C-255.41833939 701.31890016 -260.20778085 695.91829462 -264.78808594 690.10595703 C-266.31073689 688.18252141 -267.85326755 686.27573674 -269.39453125 684.3671875 C-277.27840926 674.51288823 -284.28737333 664.33822927 -290.82470703 653.54589844 C-292.57987276 650.67832213 -294.4034024 647.85548526 -296.23413086 645.03564453 C-297.13671875 643.40234375 -297.13671875 643.40234375 -297.13671875 641.40234375 C-298.45671875 641.07234375 -299.77671875 640.74234375 -301.13671875 640.40234375 C-301.19601562 639.4690625 -301.2553125 638.53578125 -301.31640625 637.57421875 C-302.10035184 632.12757242 -304.7996693 627.50779286 -307.26171875 622.65234375 C-312.30139606 612.45548157 -316.45955683 602.15772863 -320.13671875 591.40234375 C-320.79671875 591.40234375 -321.45671875 591.40234375 -322.13671875 591.40234375 C-324.26171875 584.65234375 -324.26171875 584.65234375 -323.13671875 582.40234375 C-323.77281464 581.05415821 -324.44402263 579.7223416 -325.13671875 578.40234375 C-325.62890625 576.4921875 -325.62890625 576.4921875 -326.01171875 574.33984375 C-326.63219581 570.98829049 -327.29433577 567.65606518 -328.046875 564.33203125 C-334.73762291 534.54219571 -336.30651054 504.75955406 -333.609375 474.3515625 C-333.16965219 469.34223384 -333.04667185 464.42907943 -333.13671875 459.40234375 C-332.47671875 459.40234375 -331.81671875 459.40234375 -331.13671875 459.40234375 C-331.12253906 458.80292969 -331.10835937 458.20351563 -331.09375 457.5859375 C-330.64032664 448.97089369 -328.81533818 440.8003338 -326.86450195 432.41381836 C-326.64366943 431.4522583 -326.42283691 430.49069824 -326.1953125 429.5 C-325.89065063 428.20848022 -325.89065063 428.20848022 -325.57983398 426.89086914 C-325.12597304 424.34199605 -325.05836834 421.98559421 -325.13671875 419.40234375 C-324.47671875 419.40234375 -323.81671875 419.40234375 -323.13671875 419.40234375 C-323.06340332 418.82871094 -322.99008789 418.25507813 -322.91455078 417.6640625 C-321.41665133 407.90272022 -318.14003084 398.73318818 -315.01171875 389.40234375 C-314.16597658 386.8689681 -313.32243243 384.33493029 -312.48416138 381.79907227 C-311.96570462 380.23162722 -311.44283043 378.66563464 -310.91500854 377.10131836 C-309.91462001 374.08451025 -309.13671875 371.60326243 -309.13671875 368.40234375 C-308.47671875 368.40234375 -307.81671875 368.40234375 -307.13671875 368.40234375 C-307.04696777 367.6244751 -306.9572168 366.84660645 -306.86474609 366.04516602 C-305.89620341 361.19887984 -304.2117002 356.74078559 -302.48828125 352.1171875 C-302.1194281 351.11536942 -301.75057495 350.11355133 -301.37054443 349.08137512 C-300.17264819 345.83230966 -298.96714951 342.58612042 -297.76171875 339.33984375 C-296.94049595 337.1144135 -296.11969629 334.88882706 -295.29931641 332.66308594 C-291.7509751 323.05199482 -288.1797404 313.45077069 -284.49609375 303.890625 C-284.23327606 303.20689316 -283.97045837 302.52316132 -283.69967651 301.81871033 C-282.52384005 298.76336104 -281.33801187 295.71259236 -280.13525391 292.66772461 C-279.73097168 291.62624268 -279.32668945 290.58476074 -278.91015625 289.51171875 C-278.39074463 288.1963916 -278.39074463 288.1963916 -277.86083984 286.85449219 C-277.09190993 284.2506041 -276.99948254 282.10233007 -277.13671875 279.40234375 C-276.47671875 279.40234375 -275.81671875 279.40234375 -275.13671875 279.40234375 C-274.80687988 278.52763428 -274.47704102 277.6529248 -274.13720703 276.75170898 C-272.8191393 273.25738205 -271.49967853 269.76358238 -270.17974854 266.2699585 C-269.56800488 264.65061314 -268.95647311 263.03118773 -268.34515381 261.41168213 C-264.33407094 250.78847557 -260.28761677 240.17964252 -256.19921875 229.5859375 C-255.37088491 227.43629705 -254.5425969 225.28663895 -253.71435547 223.13696289 C-252.49000719 219.95958311 -251.26389107 216.78294311 -250.0322876 213.60836792 C-248.87783809 210.63250373 -247.72939843 207.6543818 -246.58203125 204.67578125 C-246.23269531 203.78052231 -245.88335937 202.88526337 -245.5234375 201.96287537 C-245.20777832 201.14029739 -244.89211914 200.31771942 -244.56689453 199.47021484 C-244.28935333 198.75352631 -244.01181213 198.03683777 -243.7258606 197.2984314 C-242.98835816 195.25577944 -242.98835816 195.25577944 -243.13671875 192.40234375 C-242.47671875 192.40234375 -241.81671875 192.40234375 -241.13671875 192.40234375 C-240.97104904 191.8189624 -240.80537933 191.23558105 -240.63468933 190.63452148 C-238.6415086 183.78841734 -236.26782863 177.13365088 -233.75 170.46484375 C-233.32929733 169.34529297 -232.90859467 168.22574219 -232.47514343 167.07226562 C-231.58680011 164.71175159 -230.69669906 162.35189837 -229.80493164 159.99267578 C-228.46449157 156.44279074 -227.13329906 152.88953382 -225.80273438 149.3359375 C-220.97208843 136.49526296 -215.89202009 123.85621833 -210.13671875 111.40234375 C-209.15621968 109.23627972 -208.17675621 107.06974596 -207.19921875 104.90234375 C-204.37464596 98.69785844 -204.37464596 98.69785844 -202.296875 96.1171875 C-200.20156 93.48383502 -198.39169045 90.79507506 -196.57421875 87.96484375 C-190.01610331 78.04828931 -182.63452067 68.7466937 -174.5 60.07421875 C-172.92606707 58.50354941 -172.92606707 58.50354941 -173.13671875 56.40234375 C-171.47947518 55.38680373 -169.81075594 54.38995565 -168.13671875 53.40234375 C-166.50086483 51.9582985 -164.89905566 50.47519915 -163.32421875 48.96484375 C-149.79121398 36.5035803 -134.63584176 26.49014915 -118.13671875 18.40234375 C-117.47671875 17.74234375 -116.81671875 17.08234375 -116.13671875 16.40234375 C-114.14763008 15.70379475 -112.14492875 15.04385528 -110.13671875 14.40234375 C-108.8822408 13.90835941 -107.63243303 13.40240411 -106.38671875 12.88671875 C-87.84752946 5.27661139 -69.06620546 0.50256394 -49.13671875 -1.59765625 C-48.4391748 -1.6735498 -47.74163086 -1.74944336 -47.02294922 -1.82763672 C-31.41562702 -3.42947117 -15.45794258 -2.53621333 0 0 Z M-84.13671875 51.40234375 C-85.1723999 51.78132813 -85.1723999 51.78132813 -86.22900391 52.16796875 C-123.48866454 66.00363795 -155.67142925 96.4519942 -172.5480957 132.40942383 C-177.89465062 144.89414998 -182.65176592 157.64350395 -187.296875 170.40234375 C-187.77191729 171.703052 -188.24712608 173.00369945 -188.7224884 174.30429077 C-189.70657575 176.9976501 -190.68964098 179.69137901 -191.67181396 182.38543701 C-193.08583531 186.26377723 -194.50273881 190.14105915 -195.92041016 194.01806641 C-198.48149543 201.0229998 -201.039735 208.02896974 -203.59707642 215.03527069 C-204.34069022 217.07246886 -205.08439788 219.10963275 -205.828125 221.14678955 C-212.10950573 238.35267283 -218.38166242 255.56186955 -224.63671875 272.77734375 C-233.92300487 298.33373485 -243.26009068 323.87140429 -252.64656067 349.39117432 C-254.54899562 354.56385525 -256.44962719 359.73718323 -258.34594727 364.91210938 C-259.10167578 366.97397647 -259.85745372 369.03582545 -260.61328125 371.09765625 C-260.98676193 372.11655945 -261.36024261 373.13546265 -261.74504089 374.1852417 C-263.99153573 380.30606644 -266.25826407 386.41893013 -268.54216003 392.52589417 C-270.00648492 396.4468889 -271.45999448 400.37184528 -272.91189575 404.29745483 C-273.58681384 406.11427929 -274.26647843 407.92934992 -274.95162964 409.74234009 C-281.27113629 426.47378408 -285.73271148 443.65650685 -288.13671875 461.40234375 C-288.30365234 462.58731445 -288.47058594 463.77228516 -288.64257812 464.99316406 C-290.10148654 475.96408373 -290.49760665 486.78049011 -290.44921875 497.83984375 C-290.44739594 498.71019257 -290.44557312 499.58054138 -290.44369507 500.4772644 C-290.24087507 558.29814048 -270.93555808 614.43242357 -234.13671875 659.40234375 C-233.71600098 659.91925781 -233.2952832 660.43617188 -232.86181641 660.96875 C-188.81020465 714.87030877 -126.79415451 750.47345821 -57.24780273 758.63085938 C0.29498012 764.24609792 62.86705335 751.75821283 110.86328125 718.40234375 C111.86875 717.72945312 112.87421875 717.0565625 113.91015625 716.36328125 C125.71562241 708.37058526 136.78081693 699.65221248 147.1796875 689.8984375 C149.46613098 687.77174553 151.79315209 685.73161814 154.17578125 683.71484375 C157.43690707 680.8831666 160.25167919 677.82990596 163.0390625 674.53515625 C164.96335474 672.28534134 166.9716391 670.13209123 168.98828125 667.96484375 C203.5224778 629.50230906 224.08074849 581.39176791 230.86328125 530.40234375 C231.01796875 529.28460571 231.01796875 529.28460571 231.17578125 528.14428711 C232.21843072 519.46143745 232.10713617 510.69710849 232.11328125 501.96484375 C232.11395599 501.1022998 232.11463074 500.23975586 232.11532593 499.35107422 C232.07720454 468.52904097 227.39299666 439.40678275 216.86328125 410.40234375 C216.53827637 409.50418945 216.21327148 408.60603516 215.87841797 407.68066406 C213.47222576 401.06507667 211.00939767 394.47093313 208.53955078 387.87890625 C205.03189888 378.5159802 201.54302302 369.14602524 198.05078125 359.77734375 C197.6499231 358.70229584 197.24906494 357.62724792 196.83605957 356.5196228 C190.13945805 338.55736704 183.48784282 320.57877859 176.86328125 302.58984375 C176.41249207 301.36578827 175.96170288 300.14173279 175.49725342 298.88058472 C167.57900004 277.37533244 167.57900004 277.37533244 163.7265625 266.82421875 C150.38630867 230.28997403 136.66540203 193.88939061 122.703125 157.58843994 C121.91046487 155.52516176 121.12079773 153.46076529 120.33203125 151.39599609 C111.42328569 128.14973814 100.17738269 108.47686181 82.86328125 90.40234375 C81.99703125 89.46132812 81.13078125 88.5203125 80.23828125 87.55078125 C57.67151396 63.52051978 25.21514539 48.9807947 -7.13671875 44.40234375 C-8.21284424 44.23178467 -9.28896973 44.06122559 -10.39770508 43.88549805 C-16.82633966 43.05479169 -23.28917714 43.15765834 -29.76171875 43.15234375 C-30.86469803 43.15133163 -30.86469803 43.15133163 -31.98995972 43.15029907 C-50.08952843 43.17663485 -67.09464601 45.05325348 -84.13671875 51.40234375 Z M-322.13671875 585.40234375 C-321.13671875 588.40234375 -321.13671875 588.40234375 -321.13671875 588.40234375 Z M-300.13671875 637.40234375 C-299.13671875 639.40234375 -299.13671875 639.40234375 -299.13671875 639.40234375 Z " fill="#47974B" transform="translate(541.13671875,79.59765625)"/>
<path d="M0 0 C2.94546697 2.62314314 5.77325383 5.36032949 8.59765625 8.11328125 C9.36078125 8.80292969 10.12390625 9.49257813 10.91015625 10.203125 C34.60867622 32.25121233 46.94778144 65.02097654 52.59765625 96.11328125 C52.77039063 96.99701416 52.943125 97.88074707 53.12109375 98.79125977 C53.68867359 102.74774484 53.796707 106.65203482 53.8359375 110.640625 C53.84577667 111.45795105 53.85561584 112.2752771 53.86575317 113.11737061 C54.33788618 162.55268025 41.1957943 202.76132053 6.59765625 239.11328125 C5.72560547 240.06460938 5.72560547 240.06460938 4.8359375 241.03515625 C-0.92015518 247.12472533 -7.70643626 252.11472897 -14.40234375 257.11328125 C-14.95325684 257.52980957 -15.50416992 257.94633789 -16.07177734 258.37548828 C-31.16020772 269.62487743 -49.01349613 277.55162276 -66.60766602 283.99291992 C-76.41378231 287.92410431 -80.29700688 295.2242396 -85.40234375 304.11328125 C-89.42382504 310.77293332 -93.69918034 317.54556011 -101.40234375 320.11328125 C-110.59915293 321.2198007 -116.19443231 317.93555478 -123.33984375 312.48828125 C-127.7962484 308.82473387 -131.53810256 304.74674229 -135.34765625 300.4296875 C-144.14248589 290.51460389 -155.88190456 286.75746334 -168.05957031 282.28125 C-189.57937652 274.33498835 -209.08368472 263.21353854 -226.40234375 248.11328125 C-227.13880127 247.47737061 -227.13880127 247.47737061 -227.89013672 246.82861328 C-235.16841593 240.51061448 -241.58267491 233.82485656 -247.40234375 226.11328125 C-247.80163086 225.58895508 -248.20091797 225.06462891 -248.61230469 224.52441406 C-275.95309889 188.3901716 -286.9833994 143.84613889 -281.1484375 98.94921875 C-275.93299703 63.35548335 -260.97065302 31.54196836 -235.40234375 6.11328125 C-234.54382813 5.25476563 -233.6853125 4.39625 -232.80078125 3.51171875 C-169.04134562 -57.16568978 -65.90826404 -56.97286721 0 0 Z " fill="#47974A" transform="translate(626.40234375,455.88671875)"/>
<path d="M0 0 C5.66787009 3.38146814 10.20723933 8.66365619 13.1875 14.5 C14.56044986 22.90931791 14.18809879 30.22981213 9.43359375 37.47265625 C5.06935315 43.07362988 -0.40852897 46.0850502 -7.3125 47.5625 C-14.41945798 48.2731958 -20.59958035 46.22366104 -26.3671875 42.08984375 C-32.18471672 36.80912517 -35.34867108 29.90203081 -35.875 22.0625 C-35.46663261 14.60650192 -31.73108854 8.50901454 -26.3125 3.5625 C-19.14019615 -2.45298065 -8.66785965 -3.76639139 0 0 Z " fill="#F2FCDD" transform="translate(430.3125,549.4375)"/>
<path d="M0 0 C6.55146009 3.91979536 11.45407176 10.2210053 13.625 17.5 C14.60712694 25.0111962 12.84129496 31.68797267 9.0625 38.1875 C2.97055578 43.96703682 -2.33730362 46.89606112 -10.875 47.25 C-18.90217544 46.90134491 -24.44646684 44.57748228 -30.0234375 38.7890625 C-34.3937145 33.2062231 -35.86274171 26.84404591 -35.6953125 19.8359375 C-34.86893826 13.80945218 -31.76895117 7.66269058 -27.375 3.5 C-19.29019375 -2.14529024 -9.29058848 -4.01511866 0 0 Z " fill="#F2FDDE" transform="translate(613.375,549.5)"/>
<path d="M0 0 C6.44705302 2.97405784 11.11114998 7.02496941 14.26953125 13.41796875 C16.33912715 19.87846406 16.41410844 28.29493919 13.63671875 34.5625 C10.11675093 40.38735779 4.64708941 45.10716582 -1.86328125 47.125 C-9.7171965 47.93197337 -17.44259681 48.21365433 -23.86328125 43.125 C-29.87475493 37.567482 -32.96235137 31.56321493 -33.36328125 23.3125 C-33.14821858 16.15270531 -31.1465267 10.2587115 -25.890625 5.2421875 C-23.93249505 3.72692432 -21.9962663 2.38019597 -19.86328125 1.125 C-19.24839844 0.75246094 -18.63351562 0.37992188 -18 -0.00390625 C-12.48867342 -2.2507542 -5.59432308 -1.7095885 0 0 Z " fill="#F2FDDD" transform="translate(519.86328125,548.875)"/>
<path d="M0 0 C21.82817663 3.28030113 44.11897907 23.87619994 59.53222656 38.59960938 C60.51354536 39.53587761 61.49993031 40.46686354 62.49121094 41.39257812 C73.74560446 51.92206277 82.6536334 63.91545183 90.75 77 C91.1612915 77.66209473 91.57258301 78.32418945 91.99633789 79.00634766 C100.70190236 93.46469195 106.95348339 108.88159757 113.0625 124.5625 C113.89011193 126.67069302 114.71824436 128.77868178 115.546875 130.88647461 C121.5622427 146.21277748 127.49768856 161.57070845 133.36743164 176.95336914 C133.66005386 177.71919312 133.95267609 178.48501709 134.25416565 179.27404785 C134.79017289 180.67768289 135.32499308 182.08177219 135.85826111 183.4864502 C137.05649852 186.62437551 138.31095098 189.71759941 139.68164062 192.78295898 C141 196 141 196 141 199 C141.66 199.33 142.32 199.66 143 200 C143.7043457 201.8984375 143.7043457 201.8984375 144.36328125 204.375 C145.97194682 210.06050398 148.03151055 215.50281171 150.1875 221 C150.91318784 222.85298226 151.63599864 224.7070947 152.35546875 226.5625 C152.67153076 227.36816406 152.98759277 228.17382812 153.31323242 229.00390625 C154 231 154 231 154 233 C154.66 233.33 155.32 233.66 156 234 C156.67578125 235.828125 156.67578125 235.828125 157.3125 238.25 C158.83469587 243.72359553 160.91423655 248.88165615 163.109375 254.1171875 C164.0434487 257.14063657 163.88772936 258.09264735 163 261 C161.80384962 258.25351444 160.61832223 255.50307725 159.4375 252.75 C159.11458984 252.01136719 158.79167969 251.27273438 158.45898438 250.51171875 C155.96653763 244.67227209 153.83505836 238.74065577 151.765625 232.7421875 C147.88694835 221.51241817 143.62196921 210.44517884 139.3125 199.375 C138.55895862 197.43110049 137.8057025 195.48709038 137.05273438 193.54296875 C133.02832763 183.16169085 133.02832763 183.16169085 128.92236328 172.8125 C127.36344748 168.92486034 125.85202199 165.02269703 124.37890625 161.1015625 C123.68764648 159.26851563 123.68764648 159.26851563 122.98242188 157.3984375 C122.27318629 155.51462965 121.56459643 153.63058468 120.85717773 151.74609375 C118.10284411 144.41396006 115.26133382 137.1379781 112.21704102 129.92138672 C110.97332602 126.93597175 109.7822884 123.93424482 108.60546875 120.921875 C87.15512446 66.0453293 52.66995422 27.65296256 0 1 C0 0.67 0 0.34 0 0 Z " fill="#306D31" transform="translate(590,95)"/>
<path d="M0 0 C2.15626764 2.01916615 3.68930162 3.94463699 5.12890625 6.51953125 C5.51876709 7.20490967 5.90862793 7.89028809 6.31030273 8.59643555 C6.72352783 9.32773682 7.13675293 10.05903809 7.5625 10.8125 C12.24508995 18.92032575 17.35362628 26.53667124 23 34 C23.4448877 34.58910156 23.88977539 35.17820312 24.34814453 35.78515625 C29.84289674 43.01519611 35.56790962 49.91099958 41.75 56.56640625 C43.63946051 58.61004149 45.45341918 60.68804318 47.25 62.8125 C55.96796986 72.80526734 65.57006396 81.82707969 76 90 C77.19973776 90.97562944 78.39753815 91.95364441 79.59375 92.93359375 C87.13130811 99.08776778 94.77699405 104.77766991 103 110 C104.45737425 110.94608643 105.91437773 111.89274414 107.37109375 112.83984375 C132.9181195 129.34581682 159.9753953 140.9253588 189 150 C189 150.33 189 150.66 189 151 C182.74379587 150.42339132 177.19090361 149.01605276 171.25 147 C170.33968018 146.69312256 169.42936035 146.38624512 168.49145508 146.07006836 C158.69944683 142.67997496 149.33765777 138.47322412 140 134 C139.29004883 133.66355469 138.58009766 133.32710937 137.84863281 132.98046875 C115.60751819 122.39247488 94.68277102 109.0848709 76 93 C74.84975683 92.03290366 73.69865798 91.06682446 72.546875 90.1015625 C65.71684059 84.34923476 59.19831328 78.43928442 53 72 C52.175 71.175 51.35 70.35 50.5 69.5 C49.675 68.675 48.85 67.85 48 67 C47.34515625 66.36835937 46.6903125 65.73671875 46.015625 65.0859375 C40.71837936 59.91655641 35.9289379 54.51595087 31.34863281 48.70361328 C29.82598186 46.78017766 28.2834512 44.87339299 26.7421875 42.96484375 C18.33409409 32.45560392 10.90336041 21.55038022 4 10 C3.5968457 9.3404834 3.19369141 8.6809668 2.77832031 8.00146484 C0 3.35185692 0 3.35185692 0 0 Z " fill="#2F6A30" transform="translate(245,721)"/>
<path d="M0 0 C1.21719171 3.65157512 0.66455525 4.56653724 -0.6953125 8.0859375 C-1.08203125 9.10042969 -1.46875 10.11492187 -1.8671875 11.16015625 C-2.48980469 12.75150391 -2.48980469 12.75150391 -3.125 14.375 C-3.516875 15.39722656 -3.90875 16.41945313 -4.3125 17.47265625 C-5.5331041 20.65181137 -6.76617294 23.82595633 -8 27 C-11.54948661 36.20342051 -15.07764811 45.41503127 -18.60180664 54.62817383 C-19.15691442 56.07910849 -19.71225129 57.52995552 -20.26782227 58.98071289 C-23.20513416 66.65098621 -26.12887274 74.32567368 -29.00390625 82.01953125 C-31.04494696 87.48076469 -33.11832435 92.92852012 -35.21875 98.3671875 C-42.6671963 117.43125451 -42.6671963 117.43125451 -49.26367188 136.80029297 C-50.50435669 140.75008108 -52.05933261 144.34301983 -54 148 C-55.0385162 144.83511787 -54.97420132 143.09539522 -53.81591797 139.98852539 C-53.38954544 138.82064232 -53.38954544 138.82064232 -52.95455933 137.62916565 C-52.63697662 136.79376755 -52.31939392 135.95836945 -51.9921875 135.09765625 C-51.66969025 134.22410995 -51.34719299 133.35056366 -51.0149231 132.45054626 C-49.97840437 129.65064916 -48.92687368 126.85665988 -47.875 124.0625 C-47.18912728 122.21585733 -46.504221 120.3688554 -45.8203125 118.52148438 C-40.63055121 104.54126984 -40.63055121 104.54126984 -38.39160156 98.96044922 C-37.93495117 97.81721191 -37.47830078 96.67397461 -37.0078125 95.49609375 C-36.41830811 94.05834595 -36.41830811 94.05834595 -35.81689453 92.59155273 C-34.97160965 89.90993319 -34.83748041 87.79287067 -35 85 C-34.34 85 -33.68 85 -33 85 C-32.67016113 84.12529053 -32.34032227 83.25058105 -32.00048828 82.34936523 C-24.83864792 63.36337611 -17.64348136 44.39001944 -10.40301514 25.43386841 C-9.59140998 23.30798454 -8.78074379 21.18174198 -7.9710083 19.05514526 C-6.83093954 16.06180031 -5.68742151 13.06979606 -4.54296875 10.078125 C-4.1987941 9.17254349 -3.85461945 8.26696198 -3.50001526 7.3339386 C-3.18443161 6.51120956 -2.86884796 5.68848053 -2.54370117 4.84082031 C-2.26838058 4.11969055 -1.99306 3.39856079 -1.70939636 2.65557861 C-1 1 -1 1 0 0 Z " fill="#327132" transform="translate(299,274)"/>
<path d="M0 0 C0.99 0.495 0.99 0.495 2 1 C-1.93115984 5.72967668 -5.97114592 10.00716347 -10.66796875 13.9765625 C-12.9521044 15.95844235 -15.14244833 18.02179354 -17.33251953 20.10644531 C-25.3992619 27.73880575 -34.06278842 34.42367502 -43 41 C-43.68578125 41.51062988 -44.3715625 42.02125977 -45.078125 42.54736328 C-64.69380214 57.10470383 -87.66368434 71.19946931 -111 79 C-111.99 78.67 -112.98 78.34 -114 78 C-112.51100564 77.3064364 -111.02200172 76.61289333 -109.53295898 75.91943359 C-108.19191035 75.29368844 -106.85160537 74.66634759 -105.51196289 74.03759766 C-102.01790965 72.39894638 -98.51862011 70.77881965 -94.9921875 69.2109375 C-67.70952 56.94980915 -42.35736917 39.60662305 -20.44921875 19.265625 C-18.31612133 17.29242483 -16.14641013 15.38705297 -13.9375 13.5 C-9.04296278 9.25671097 -4.53596 4.619615 0 0 Z " fill="#2F6C30" transform="translate(732,784)"/>
<path d="M0 0 C3.44268133 2.71410199 4.53314794 6.44450419 5.9765625 10.42578125 C6.25904846 11.18428375 6.54153442 11.94278625 6.83258057 12.72427368 C7.77129474 15.25083047 8.69814011 17.78157292 9.625 20.3125 C10.28459956 22.09539979 10.94493286 23.87802829 11.60595703 25.66040039 C13.01214182 29.45647015 14.41322832 33.2543688 15.81054688 37.05371094 C18.01373659 43.04250683 20.23238954 49.02550487 22.453125 55.0078125 C25.70403854 63.76883511 28.94076682 72.53497714 32.16567993 81.30560303 C33.88063291 85.96797712 35.60332924 90.62722176 37.34231567 95.28068542 C38.40220877 98.12191477 39.45018007 100.96753629 40.5 103.8125 C41.03343018 105.22293579 41.03343018 105.22293579 41.57763672 106.66186523 C43.58958948 112.16357222 44.57416823 117.1507275 45 123 C43.03013786 120.0452068 42.1339692 117.67321263 41.0625 114.3125 C39.78868606 110.33634393 38.41489305 106.42317482 36.93481445 102.51928711 C35.73580558 99.28800675 34.58753977 96.03936191 33.44140625 92.7890625 C33.20931961 92.13159531 32.97723297 91.47412811 32.7381134 90.79673767 C31.76952935 88.05151907 30.80181586 85.30599973 29.83666992 82.55957031 C27.36297516 75.52439917 24.85676774 68.52127339 22.03881836 61.61474609 C19.46786674 55.14356117 17.15875624 48.56693595 14.78173828 42.02246094 C12.24823435 35.05316344 9.68953932 28.10269281 6.90234375 21.22998047 C5.47076048 17.6920796 4.10403682 14.13066334 2.75 10.5625 C2.481875 9.86962891 2.21375 9.17675781 1.9375 8.46289062 C0.81486482 5.49879009 0 3.19764783 0 0 Z " fill="#2E6C30" transform="translate(754,357)"/>
<path d="M0 0 C-4.42379866 2.94919911 -9.24698253 4.45581685 -14.296875 6.0234375 C-23.34569088 8.8678965 -31.62305797 12.45847983 -39.98828125 16.92626953 C-41.31742048 17.63568146 -42.65072592 18.33734834 -43.98828125 19.03076172 C-64.84163868 29.85332518 -81.61909608 45.38801749 -98 62 C-98 58.72843541 -97.65348492 58.10589147 -95.8125 55.5625 C-95.20341797 54.69818359 -95.20341797 54.69818359 -94.58203125 53.81640625 C-92.60787698 51.54978468 -90.36395599 49.8538762 -88 48 C-86.38745849 46.50900685 -84.78382697 45.00834044 -83.1875 43.5 C-69.59875357 31.11508882 -54.49384866 21.08521993 -38 13 C-37.34 12.34 -36.68 11.68 -36 11 C-34.01211357 10.29803706 -32.00873374 9.63986968 -30 9 C-28.57024266 8.45829701 -27.14468941 7.90541705 -25.72265625 7.34375 C-24.96146484 7.04339844 -24.20027344 6.74304688 -23.41601562 6.43359375 C-21.85037979 5.81253655 -20.28527217 5.19014604 -18.72070312 4.56640625 C-6.17780878 -0.37441265 -6.17780878 -0.37441265 0 0 Z " fill="#306E31" transform="translate(461,85)"/>
<path d="M0 0 C2.57875017 0.36236189 4.95376832 0.47253329 7.55078125 0.40234375 C10.86328125 0.40234375 10.86328125 0.40234375 13.86328125 2.40234375 C15.32364732 2.89702849 16.80349372 3.33581986 18.29296875 3.734375 C19.16542236 3.97333496 20.03787598 4.21229492 20.93676758 4.45849609 C21.86126709 4.70809082 22.7857666 4.95768555 23.73828125 5.21484375 C32.00110219 7.5011342 39.94891928 10.08389142 47.86328125 13.40234375 C47.86328125 14.06234375 47.86328125 14.72234375 47.86328125 15.40234375 C42.52278804 14.08910772 37.27879021 12.57256384 32.08984375 10.75 C20.7577324 6.77678955 9.80835409 3.76799271 -2.13671875 2.40234375 C-3.24575562 2.26856323 -3.24575562 2.26856323 -4.37719727 2.13208008 C-14.15631003 1.09174893 -24.00052378 1.05214024 -33.82421875 0.83984375 C-35.70117972 0.79656293 -37.57813297 0.75294591 -39.45507812 0.70898438 C-44.01554521 0.60289352 -48.57609273 0.50135629 -53.13671875 0.40234375 C-39.29310756 -7.05118832 -14.93003048 -2.44959782 0 0 Z " fill="#357234" transform="translate(541.13671875,79.59765625)"/>
<path d="M0 0 C1.14344965 3.43034894 0.92682141 3.82460407 -0.484375 6.96484375 C-0.83685303 7.7547168 -1.18933105 8.54458984 -1.55249023 9.35839844 C-1.94766846 10.20950195 -2.34284668 11.06060547 -2.75 11.9375 C-3.15613525 12.8234082 -3.56227051 13.70931641 -3.98071289 14.62207031 C-12.83410016 33.61350003 -23.33145207 52.13937215 -36.28515625 68.64453125 C-38.15664483 70.96541178 -38.15664483 70.96541178 -39 74 C-40.64488294 75.68816933 -42.31337542 77.35353315 -44 79 C-44.556875 79.763125 -45.11375 80.52625 -45.6875 81.3125 C-46.120625 81.869375 -46.55375 82.42625 -47 83 C-47.66 83 -48.32 83 -49 83 C-47.43989172 79.54027801 -45.37845999 76.74860281 -43.0625 73.75 C-28.48894963 54.56094575 -16.19302628 34.38446515 -6.15673828 12.47167969 C-4.19105605 8.27147562 -2.09743774 4.13562272 0 0 Z " fill="#2F6C30" transform="translate(796,686)"/>
<path d="M0 0 C0.99 0.33 1.98 0.66 3 1 C2.46632813 1.62003906 1.93265625 2.24007812 1.3828125 2.87890625 C-15.81768378 23.32309474 -27.76362339 47.02550736 -37 72 C-38.22841745 68.51267042 -37.78865149 66.69479284 -36.375 63.32421875 C-36.00117188 62.42026367 -35.62734375 61.51630859 -35.2421875 60.58496094 C-34.83226562 59.62879883 -34.42234375 58.67263672 -34 57.6875 C-33.59007812 56.70942383 -33.18015625 55.73134766 -32.7578125 54.72363281 C-22.87684483 31.33305018 -22.87684483 31.33305018 -19.16796875 26.72265625 C-17.03650894 24.04584996 -15.17454866 21.30669448 -13.3125 18.4375 C-9.12393701 12.08760695 -4.62382577 6.03666142 0 0 Z " fill="#316F32" transform="translate(358,149)"/>
<path d="M0 0 C1.485 0.99 1.485 0.99 3 2 C3.38095093 3.9354248 3.38095093 3.9354248 3.38818359 6.32617188 C3.40236832 7.66766296 3.40236832 7.66766296 3.4168396 9.03625488 C3.41076691 10.00397827 3.40469421 10.97170166 3.3984375 11.96875 C3.40130768 12.95999878 3.40417786 13.95124756 3.40713501 14.97253418 C3.40917878 17.0707252 3.40362713 19.16893514 3.39111328 21.26708984 C3.37506437 24.48708516 3.39095174 27.70582518 3.41015625 30.92578125 C3.40817387 32.96094028 3.40433032 34.99609853 3.3984375 37.03125 C3.40451019 37.99897339 3.41058289 38.96669678 3.4168396 39.96374512 C3.40738312 40.85807251 3.39792664 41.7523999 3.38818359 42.67382812 C3.38579681 43.46277466 3.38341003 44.25172119 3.38095093 45.0645752 C3.25523712 45.70326538 3.12952332 46.34195557 3 47 C2.01 47.66 1.02 48.32 0 49 C-0.71958286 32.60950161 -1.34082851 16.378736 0 0 Z " fill="#51A051" transform="translate(207,557)"/>
<path d="M0 0 C0.33 0 0.66 0 1 0 C1.04898438 0.99902344 1.09796875 1.99804688 1.1484375 3.02734375 C1.22320313 4.31769531 1.29796875 5.60804688 1.375 6.9375 C1.44460938 8.22527344 1.51421875 9.51304687 1.5859375 10.83984375 C1.72257813 11.88269531 1.85921875 12.92554688 2 14 C2.66 14.33 3.32 14.66 4 15 C4 18.63 4 22.26 4 26 C3.34 26 2.68 26 2 26 C1.97494385 26.62455078 1.9498877 27.24910156 1.92407227 27.89257812 C1.80699619 30.76187123 1.68478249 33.63092425 1.5625 36.5 C1.52318359 37.48226562 1.48386719 38.46453125 1.44335938 39.4765625 C1.20239383 45.0373059 0.78078831 50.48855309 0 56 C-0.33 56 -0.66 56 -1 56 C-0.67 37.52 -0.34 19.04 0 0 Z " fill="#51A853" transform="translate(814,562)"/>
<path d="M0 0 C0.495 0.99 0.495 0.99 1 2 C-8.16292798 16.80165289 -8.16292798 16.80165289 -14.5390625 18.79296875 C-22.19492706 19.88204244 -28.6619483 18.06521018 -34.95703125 13.6171875 C-36.35555861 12.4708536 -37.68725749 11.2436508 -39 10 C-35.58526489 10 -34.34599271 10.74607014 -31.4375 12.4375 C-30.25994141 13.11619141 -30.25994141 13.11619141 -29.05859375 13.80859375 C-28.37925781 14.20175781 -27.69992187 14.59492187 -27 15 C-23.51524615 16.74237692 -19.8101471 16.44420434 -16 16 C-8.33178832 13.34269892 -4.19896253 6.53171949 0 0 Z " fill="#EDF7D3" transform="translate(541,759)"/>
<path d="M0 0 C3.182865 0.9851725 6.08943312 2.04562914 9.0625 3.5625 C11.87336361 5.1005654 11.87336361 5.1005654 14.6875 5.5 C17 6 17 6 18.26171875 7.296875 C20.62291856 9.61032021 23.28142367 11.06939933 26.125 12.75 C31.74518451 16.12069047 36.9430599 19.81855083 42 24 C37.97651177 24 35.89813413 22.00482466 32.75 19.75 C25.0509468 14.39106667 16.88281967 10.13631985 8.50683594 5.93652344 C7.5480957 5.4521582 6.58935547 4.96779297 5.6015625 4.46875 C4.73869629 4.04013672 3.87583008 3.61152344 2.98681641 3.16992188 C1 2 1 2 0 0 Z " fill="#ECF4D2" transform="translate(580,427)"/>
<path d="M0 0 C4.33783009 4.33783009 3.05859799 12.86183358 3.09765625 18.6640625 C3.09110164 20.98439533 3.07931363 23.30471883 3.0625 25.625 C3.05798828 26.81996094 3.05347656 28.01492188 3.04882812 29.24609375 C3.03715603 32.16411647 3.02078326 35.08203037 3 38 C2.67 38 2.34 38 2 38 C1.22199951 32.98549263 0.72293488 28.00558088 0.4375 22.9375 C0.3950415 22.20668213 0.35258301 21.47586426 0.30883789 20.72290039 C-0.06319988 13.81138182 -0.0987181 6.92123545 0 0 Z " fill="#2E6D30" transform="translate(814,545)"/>
<path d="M0 0 C1.78809701 3.08211457 2.25609123 5.32995975 2.265625 8.87890625 C2.26820313 9.79994141 2.27078125 10.72097656 2.2734375 11.66992188 C2.26570312 12.62447266 2.25796875 13.57902344 2.25 14.5625 C2.25773438 15.52091797 2.26546875 16.47933594 2.2734375 17.46679688 C2.27085937 18.38654297 2.26828125 19.30628906 2.265625 20.25390625 C2.26336914 21.09252197 2.26111328 21.9311377 2.25878906 22.79516602 C2 25 2 25 0 28 C-0.71960516 18.55656618 -1.32368341 9.42869877 0 0 Z " fill="#327534" transform="translate(207,566)"/>
<path d="M0 0 C2 2 2 2 2 5 C2.66 5 3.32 5 4 5 C4.33 7.64 4.66 10.28 5 13 C5.66 13 6.32 13 7 13 C7.20496094 13.62648438 7.40992188 14.25296875 7.62109375 14.8984375 C7.89050781 15.71570313 8.15992188 16.53296875 8.4375 17.375 C8.70433594 18.18710937 8.97117187 18.99921875 9.24609375 19.8359375 C9.95179729 22.01031799 9.95179729 22.01031799 11 24 C11.43225449 26.65756465 11.69779519 29.32332885 12 32 C9.45227003 28.92395369 8.08364211 25.99660587 6.73828125 22.24609375 C6.34189453 21.14458984 5.94550781 20.04308594 5.53710938 18.90820312 C5.13298828 17.76287109 4.72886719 16.61753906 4.3125 15.4375 C3.89677734 14.28830078 3.48105469 13.13910156 3.05273438 11.95507812 C0 3.39839901 0 3.39839901 0 0 Z " fill="#25773B" transform="translate(693,314)"/>
<path d="M0 0 C0 4.14604789 -2.2299718 5.83408916 -4.9375 8.6875 C-5.43096924 9.21698242 -5.92443848 9.74646484 -6.43286133 10.29199219 C-10.70400595 14.8162366 -15.23429075 18.99915767 -20 23 C-20.66 22.67 -21.32 22.34 -22 22 C-18.26823824 18.18100225 -14.56433777 14.39526199 -10.4375 11 C-6.51122532 7.72508886 -3.26984934 3.91586821 0 0 Z " fill="#7AC95E" transform="translate(668,714)"/>
<path d="M0 0 C0.66 1.32 1.32 2.64 2 4 C2.66 4 3.32 4 4 4 C4.09579346 4.54599854 4.19158691 5.09199707 4.2902832 5.65454102 C5.45277241 11.58862081 7.45612489 16.56531893 10.1875 21.9375 C11.53658716 24.60599896 12.79493709 27.25959767 14 30 C13.67 30.66 13.34 31.32 13 32 C0 6.87096774 0 6.87096774 0 0 Z " fill="#1F6F1D" transform="translate(352,629)"/>
<path d="M0 0 C0.66 0.33 1.32 0.66 2 1 C0.8803014 2.00593243 -0.2459412 3.0045849 -1.375 4 C-2.31472656 4.8353125 -2.31472656 4.8353125 -3.2734375 5.6875 C-5 7 -5 7 -7 7 C-8.77261508 11.03077255 -9.73927271 15.00464455 -10.625 19.3125 C-10.88539063 20.56675781 -11.14578125 21.82101562 -11.4140625 23.11328125 C-11.60742188 24.06589844 -11.80078125 25.01851562 -12 26 C-12.33 26 -12.66 26 -13 26 C-13.74068072 18.26400141 -12.60999026 12.37295566 -8 6 C-5.50377378 3.68372354 -2.90392356 1.77261835 0 0 Z " fill="#F8FBF0" transform="translate(500,550)"/>
<path d="M0 0 C0.33 0.99 0.66 1.98 1 3 C-3.62 7.62 -8.24 12.24 -13 17 C-13 12.62913236 -10.74619996 10.26999832 -8 7 C-5.375 4.75 -5.375 4.75 -3 3 C-1.9826127 2.01769502 -0.97403883 1.02530403 0 0 Z " fill="#377737" transform="translate(376,130)"/>
<path d="M0 0 C2.05710856 3.08566284 2.78346093 5.36985312 3.6875 8.9375 C3.95949219 9.97777344 4.23148438 11.01804687 4.51171875 12.08984375 C4.97828785 14.8705956 4.93894816 16.38480882 4 19 C3.34 19 2.68 19 2 19 C1.855625 17.7625 1.71125 16.525 1.5625 15.25 C1.29590139 13.07531706 1.01430455 11.05245 0.4375 8.9375 C-0.23358353 5.96555865 -0.05831692 3.03247981 0 0 Z " fill="#347133" transform="translate(214,641)"/>
<path d="M0 0 C0.66 0.33 1.32 0.66 2 1 C1.44570313 1.38671875 0.89140625 1.7734375 0.3203125 2.171875 C-0.76636719 2.95304688 -0.76636719 2.95304688 -1.875 3.75 C-2.59429688 4.26046875 -3.31359375 4.7709375 -4.0546875 5.296875 C-6.08570565 7.07503547 -6.97855012 8.52701607 -8 11 C-9.98 11 -11.96 11 -14 11 C-9.85989729 6.45924219 -5.17609824 3.28157862 0 0 Z " fill="#ECF6D4" transform="translate(616,709)"/>
<path d="M0 0 C4.07376031 1.61010527 6.76507069 4.53822271 9.75 7.625 C10.25660156 8.140625 10.76320313 8.65625 11.28515625 9.1875 C12.52803902 10.45383339 13.76465276 11.7263144 15 13 C14.67 13.99 14.34 14.98 14 16 C12.03909808 13.89817699 10.08121556 11.79367717 8.125 9.6875 C7.56941406 9.09259766 7.01382813 8.49769531 6.44140625 7.88476562 C5.90644531 7.30791016 5.37148438 6.73105469 4.8203125 6.13671875 C4.32805176 5.60780029 3.83579102 5.07888184 3.32861328 4.53393555 C2 3 2 3 0 0 Z " fill="#2B672F" transform="translate(647,133)"/>
<path d="M0 0 C0.99 0.33 1.98 0.66 3 1 C3 4.63 3 8.26 3 12 C2.34 12 1.68 12 1 12 C1 13.65 1 15.3 1 17 C0.67 17 0.34 17 0 17 C0 11.39 0 5.78 0 0 Z " fill="#458D45" transform="translate(815,576)"/>
<path d="M0 0 C2 2 2 2 2.5 4.5625 C2.665 5.366875 2.83 6.17125 3 7 C3.66 7.33 4.32 7.66 5 8 C5.40729228 10.32156597 5.74438677 12.6568787 6 15 C5.01 15.495 5.01 15.495 4 16 C3.13444052 13.90049414 2.28288723 11.7952093 1.4375 9.6875 C0.72400391 7.92986328 0.72400391 7.92986328 -0.00390625 6.13671875 C-1 3 -1 3 0 0 Z " fill="#367636" transform="translate(741,321)"/>
<path d="M0 0 C0.33 0 0.66 0 1 0 C1.2358396 5.77807024 0.86783046 10.51324804 -1 16 C-1.33 16 -1.66 16 -2 16 C-2.2358396 10.22192976 -1.86783046 5.48675196 0 0 Z " fill="#306D32" transform="translate(213,520)"/>
<path d="M0 0 C0.66 0.33 1.32 0.66 2 1 C-0.31 3.64 -2.62 6.28 -5 9 C-5.33 8.01 -5.66 7.02 -6 6 C-4.02 4.02 -2.04 2.04 0 0 Z " fill="#377535" transform="translate(732,784)"/>
<path d="M0 0 C1.6875 1.4375 1.6875 1.4375 3 4 C2.35087445 7.14284955 1.23221253 10.04268993 0 13 C-0.66 12.67 -1.32 12.34 -2 12 C-1.7834375 11.07767578 -1.7834375 11.07767578 -1.5625 10.13671875 C-1.376875 9.32847656 -1.19125 8.52023437 -1 7.6875 C-0.814375 6.88699219 -0.62875 6.08648437 -0.4375 5.26171875 C0.09495823 2.89304062 0.09495823 2.89304062 0 0 Z " fill="#3C7F3C" transform="translate(264,359)"/>
<path d="M0 0 C0.99 0.495 0.99 0.495 2 1 C3.28317892 4.84953676 3.06643637 7.94738135 3 12 C0.79680323 7.59360646 -0.10924981 5.02549129 0 0 Z " fill="#2D6A2F" transform="translate(807,509)"/>
<path d="M0 0 C-3.03525486 2.02350324 -4.19426202 2.32124018 -7.6875 2.625 C-8.49574219 2.69976562 -9.30398438 2.77453125 -10.13671875 2.8515625 C-10.75160156 2.90054688 -11.36648438 2.94953125 -12 3 C-11 1 -11 1 -9.375 0.375 C-6.2339425 -0.12095645 -3.17398169 -0.06103811 0 0 Z " fill="#2D6B2F" transform="translate(474,82)"/>
<path d="M0 0 C2.74277578 3.19990508 4.6302836 6.00499382 6 10 C5.01 10.495 5.01 10.495 4 11 C0 4.5 0 4.5 0 0 Z " fill="#347436" transform="translate(681,174)"/>
<path d="M0 0 C0.33 0 0.66 0 1 0 C1.39253254 4.44870215 0.15305957 7.14243493 -2 11 C-2.95465783 8.83032311 -3.14401212 7.43671207 -2.3984375 5.17578125 C-1.64129615 3.4315257 -0.82390802 1.71372869 0 0 Z " fill="#2D692E" transform="translate(247,411)"/>
<path d="M0 0 C0.99 0.33 1.98 0.66 3 1 C0.69 3.64 -1.62 6.28 -4 9 C-4.33 8.34 -4.66 7.68 -5 7 C-3.35 4.69 -1.7 2.38 0 0 Z " fill="#2C672E" transform="translate(358,149)"/>
<path d="M0 0 C0.66 0.66 1.32 1.32 2 2 C-4.75 6 -4.75 6 -7 6 C-7 5.34 -7 4.68 -7 4 C-4.69 2.68 -2.38 1.36 0 0 Z " fill="#377537" transform="translate(647,848)"/>
<path d="M0 0 C1.32 1.32 2.64 2.64 4 4 C3.01 5.485 3.01 5.485 2 7 C2 6.34 2 5.68 2 5 C0.68 4.67 -0.64 4.34 -2 4 C-1 1 -1 1 0 0 Z " fill="#438441" transform="translate(242,716)"/>
<path d="M0 0 C0.99 0 1.98 0 3 0 C3.33 2.31 3.66 4.62 4 7 C3.34 7 2.68 7 2 7 C1.34 4.69 0.68 2.38 0 0 Z " fill="#368642" transform="translate(697,327)"/>
<path d="M0 0 C2 2 2 2 2 5 C1.34 5 0.68 5 0 5 C0 3.35 0 1.7 0 0 Z " fill="#5AA053" transform="translate(232,702)"/>
<path d="M0 0 C0.625 1.8125 0.625 1.8125 1 4 C0.34 4.99 -0.32 5.98 -1 7 C-0.67 4.69 -0.34 2.38 0 0 Z " fill="#60A959" transform="translate(209,527)"/>
<path d="M0 0 C1.32 0.33 2.64 0.66 4 1 C2.02 1.99 2.02 1.99 0 3 C0 2.01 0 1.02 0 0 Z " fill="#5EA758" transform="translate(419,96)"/>
<path d="M0 0 C0.66 0 1.32 0 2 0 C2.33 1.32 2.66 2.64 3 4 C1.97895449 3.02149805 0.9793879 2.02019573 0 1 C0 0.67 0 0.34 0 0 Z " fill="#5BA154" transform="translate(234,707)"/>
<path d="M0 0 C1.98 0.495 1.98 0.495 4 1 C2.35 1.33 0.7 1.66 -1 2 C-0.67 1.34 -0.34 0.68 0 0 Z " fill="#61AA5A" transform="translate(439,88)"/>
<path d="M0 0 C1.65 0 3.3 0 5 0 C5 0.33 5 0.66 5 1 C3.35 1 1.7 1 0 1 C0 0.67 0 0.34 0 0 Z " fill="#5EA655" transform="translate(566,879)"/>
<path d="M0 0 C1.65 0 3.3 0 5 0 C5 0.33 5 0.66 5 1 C3.35 1 1.7 1 0 1 C0 0.67 0 0.34 0 0 Z " fill="#5EA656" transform="translate(602,870)"/>
<path d="M0 0 C0.33 0 0.66 0 1 0 C1 1.65 1 3.3 1 5 C0.67 5 0.34 5 0 5 C0 3.35 0 1.7 0 0 Z " fill="#5EA655" transform="translate(208,622)"/>
<path d="M0 0 C0.66 0 1.32 0 2 0 C1.67 0.99 1.34 1.98 1 3 C0.67 2.01 0.34 1.02 0 0 Z " fill="#5AA054" transform="translate(243,725)"/>
<path d="M0 0 C0.99 1.485 0.99 1.485 2 3 C1.34 3 0.68 3 0 3 C0 2.01 0 1.02 0 0 Z " fill="#5CA255" transform="translate(228,693)"/>
<path d="M0 0 C1 4 1 4 1 4 Z " fill="#60A857" transform="translate(210,635)"/>
<path d="M0 0 C0.33 0.99 0.66 1.98 1 3 C0.34 2.67 -0.32 2.34 -1 2 C-0.67 1.34 -0.34 0.68 0 0 Z " fill="#5FA859" transform="translate(242,417)"/>
<path d="M0 0 C3 1 3 1 3 1 Z " fill="#5EA457" transform="translate(416,869)"/>
<path d="M0 0 C0.66 0.66 1.32 1.32 2 2 C1.34 2 0.68 2 0 2 C0 1.34 0 0.68 0 0 Z " fill="#58A155" transform="translate(337,828)"/>
<path d="" fill="#5EA456" transform="translate(0,0)"/>
<path d="" fill="#5FA959" transform="translate(0,0)"/>
<path d="" fill="#61A75B" transform="translate(0,0)"/>
<path d="" fill="#5FA658" transform="translate(0,0)"/>
<path d="M0 0 C0.99 0.495 0.99 0.495 2 1 C1.01 1.495 1.01 1.495 0 2 C0 1.34 0 0.68 0 0 Z " fill="#5EA555" transform="translate(774,402)"/>
<path d="" fill="#5FA758" transform="translate(0,0)"/>
<path d="" fill="#5EA656" transform="translate(0,0)"/>
<path d="" fill="#5DA758" transform="translate(0,0)"/>
<path d="M0 0 C0.99 0.495 0.99 0.495 2 1 C1.01 1.495 1.01 1.495 0 2 C0 1.34 0 0.68 0 0 Z " fill="#5EA555" transform="translate(328,192)"/>
<path d="M0 0 C3 1 3 1 3 1 Z " fill="#5FA557" transform="translate(403,104)"/>
<path d="M0 0 C0.66 0 1.32 0 2 0 C1.67 0.66 1.34 1.32 1 2 C0.67 1.34 0.34 0.68 0 0 Z " fill="#5CA456" transform="translate(604,99)"/>
<path d="M0 0 C3 1 3 1 3 1 Z " fill="#61AA5A" transform="translate(416,99)"/>
<path d="M0 0 C3 1 3 1 3 1 Z " fill="#60A759" transform="translate(556,81)"/>
<path d="M0 0 C2 1 2 1 2 1 Z " fill="#61A656" transform="translate(542,883)"/>
<path d="M0 0 C2 1 2 1 2 1 Z " fill="#61A558" transform="translate(472,882)"/>
<path d="M0 0 C2 1 2 1 2 1 Z " fill="#5EA456" transform="translate(441,876)"/>
<path d="M0 0 C2 1 2 1 2 1 Z " fill="#60A857" transform="translate(599,871)"/>
<path d="M0 0 C2 1 2 1 2 1 Z " fill="#5FA255" transform="translate(413,868)"/>
<path d="M0 0 C2 1 2 1 2 1 Z " fill="#5CA355" transform="translate(378,853)"/>
<path d="" fill="#5AA153" transform="translate(0,0)"/>
<path d="M0 0 C2 1 2 1 2 1 Z " fill="#5AA354" transform="translate(360,843)"/>
<path d="" fill="#5DA154" transform="translate(0,0)"/>
<path d="M0 0 C2 1 2 1 2 1 Z " fill="#5BA155" transform="translate(242,723)"/>
<path d="" fill="#5CA156" transform="translate(0,0)"/>
<path d="" fill="#5EA555" transform="translate(0,0)"/>
<path d="" fill="#61A658" transform="translate(0,0)"/>
<path d="" fill="#63AA58" transform="translate(0,0)"/>
<path d="" fill="#5FA556" transform="translate(0,0)"/>
<path d="" fill="#61A959" transform="translate(0,0)"/>
<path d="" fill="#61A456" transform="translate(0,0)"/>
<path d="" fill="#63A859" transform="translate(0,0)"/>
<path d="" fill="#5EA659" transform="translate(0,0)"/>
<path d="" fill="#61A658" transform="translate(0,0)"/>
<path d="" fill="#61A758" transform="translate(0,0)"/>
<path d="" fill="#62A95A" transform="translate(0,0)"/>
<path d="" fill="#61A758" transform="translate(0,0)"/>
<path d="" fill="#5FA759" transform="translate(0,0)"/>
<path d="" fill="#5DA558" transform="translate(0,0)"/>
<path d="M0 0 C2 1 2 1 2 1 Z " fill="#5FA659" transform="translate(240,421)"/>
<path d="" fill="#5DA657" transform="translate(0,0)"/>
<path d="" fill="#60A959" transform="translate(0,0)"/>
<path d="" fill="#5EA657" transform="translate(0,0)"/>
<path d="" fill="#5DA656" transform="translate(0,0)"/>
<path d="" fill="#5BA458" transform="translate(0,0)"/>
<path d="" fill="#5CA757" transform="translate(0,0)"/>
<path d="M0 0 C2 1 2 1 2 1 Z " fill="#60A95A" transform="translate(739,312)"/>
<path d="" fill="#5FA858" transform="translate(0,0)"/>
<path d="" fill="#5CA456" transform="translate(0,0)"/>
<path d="M0 0 C2 1 2 1 2 1 Z " fill="#5DA557" transform="translate(321,208)"/>
<path d="M0 0 C2 1 2 1 2 1 Z " fill="#5EA457" transform="translate(336,176)"/>
<path d="" fill="#5CA154" transform="translate(0,0)"/>
<path d="" fill="#61AB58" transform="translate(0,0)"/>
<path d="M0 0 C2 1 2 1 2 1 Z " fill="#5DA658" transform="translate(385,120)"/>
<path d="M0 0 C2 1 2 1 2 1 Z " fill="#5EA758" transform="translate(406,105)"/>
<path d="M0 0 C2 1 2 1 2 1 Z " fill="#5BA156" transform="translate(408,104)"/>
<path d="M0 0 C2 1 2 1 2 1 Z " fill="#66AB5A" transform="translate(499,76)"/>
<path d="" fill="#4C793F" transform="translate(0,0)"/>
<path d="" fill="#4D6C39" transform="translate(0,0)"/>
<path d="" fill="#61A859" transform="translate(0,0)"/>
<path d="" fill="#61A758" transform="translate(0,0)"/>
<path d="" fill="#63A857" transform="translate(0,0)"/>
<path d="" fill="#60A657" transform="translate(0,0)"/>
<path d="" fill="#61A555" transform="translate(0,0)"/>
<path d="" fill="#60A756" transform="translate(0,0)"/>
<path d="" fill="#5FA558" transform="translate(0,0)"/>
<path d="" fill="#5FA556" transform="translate(0,0)"/>
<path d="" fill="#60A758" transform="translate(0,0)"/>
<path d="" fill="#5EA656" transform="translate(0,0)"/>
<path d="" fill="#5FA656" transform="translate(0,0)"/>
<path d="" fill="#60A458" transform="translate(0,0)"/>
<path d="" fill="#5DA156" transform="translate(0,0)"/>
<path d="" fill="#60A756" transform="translate(0,0)"/>
<path d="" fill="#5FA355" transform="translate(0,0)"/>
<path d="" fill="#5FA656" transform="translate(0,0)"/>
<path d="" fill="#5FA255" transform="translate(0,0)"/>
<path d="" fill="#61A557" transform="translate(0,0)"/>
<path d="" fill="#5CA557" transform="translate(0,0)"/>
<path d="" fill="#5DA656" transform="translate(0,0)"/>
<path d="" fill="#5BA256" transform="translate(0,0)"/>
<path d="" fill="#5EA456" transform="translate(0,0)"/>
<path d="" fill="#5EA155" transform="translate(0,0)"/>
<path d="" fill="#5BA152" transform="translate(0,0)"/>
<path d="" fill="#5CA355" transform="translate(0,0)"/>
<path d="" fill="#5CA558" transform="translate(0,0)"/>
<path d="" fill="#5A9F51" transform="translate(0,0)"/>
<path d="" fill="#5BA254" transform="translate(0,0)"/>
<path d="" fill="#599F51" transform="translate(0,0)"/>
<path d="" fill="#5AA154" transform="translate(0,0)"/>
<path d="" fill="#59A052" transform="translate(0,0)"/>
<path d="" fill="#59A255" transform="translate(0,0)"/>
<path d="" fill="#57A052" transform="translate(0,0)"/>
<path d="" fill="#5BA152" transform="translate(0,0)"/>
<path d="" fill="#59A055" transform="translate(0,0)"/>
<path d="" fill="#5AA454" transform="translate(0,0)"/>
<path d="" fill="#579E50" transform="translate(0,0)"/>
<path d="" fill="#579E51" transform="translate(0,0)"/>
<path d="" fill="#5A9F52" transform="translate(0,0)"/>
<path d="" fill="#589E52" transform="translate(0,0)"/>
<path d="" fill="#5AA253" transform="translate(0,0)"/>
<path d="" fill="#599F51" transform="translate(0,0)"/>
<path d="" fill="#599E53" transform="translate(0,0)"/>
<path d="" fill="#5A9F53" transform="translate(0,0)"/>
<path d="" fill="#5CA254" transform="translate(0,0)"/>
<path d="" fill="#5AA054" transform="translate(0,0)"/>
<path d="" fill="#59A053" transform="translate(0,0)"/>
<path d="" fill="#599F52" transform="translate(0,0)"/>
<path d="" fill="#589E53" transform="translate(0,0)"/>
<path d="" fill="#5BA251" transform="translate(0,0)"/>
<path d="" fill="#5A9F51" transform="translate(0,0)"/>
<path d="" fill="#5CA152" transform="translate(0,0)"/>
<path d="" fill="#5AA050" transform="translate(0,0)"/>
<path d="" fill="#5A9E52" transform="translate(0,0)"/>
<path d="" fill="#5B9F54" transform="translate(0,0)"/>
<path d="" fill="#5CA153" transform="translate(0,0)"/>
<path d="" fill="#5A9F54" transform="translate(0,0)"/>
<path d="" fill="#5FA354" transform="translate(0,0)"/>
<path d="" fill="#5A9E51" transform="translate(0,0)"/>
<path d="" fill="#5CA254" transform="translate(0,0)"/>
<path d="" fill="#5DA454" transform="translate(0,0)"/>
<path d="" fill="#5BA354" transform="translate(0,0)"/>
<path d="" fill="#5AA356" transform="translate(0,0)"/>
<path d="" fill="#59A354" transform="translate(0,0)"/>
<path d="" fill="#5B9F52" transform="translate(0,0)"/>
<path d="" fill="#5CA152" transform="translate(0,0)"/>
<path d="" fill="#5CA255" transform="translate(0,0)"/>
<path d="" fill="#59A456" transform="translate(0,0)"/>
<path d="" fill="#5BA357" transform="translate(0,0)"/>
<path d="" fill="#5AA053" transform="translate(0,0)"/>
<path d="" fill="#5EA356" transform="translate(0,0)"/>
<path d="" fill="#5CA256" transform="translate(0,0)"/>
<path d="" fill="#5BA053" transform="translate(0,0)"/>
<path d="" fill="#5CA154" transform="translate(0,0)"/>
<path d="" fill="#5AA152" transform="translate(0,0)"/>
<path d="" fill="#5AA155" transform="translate(0,0)"/>
<path d="" fill="#5CA658" transform="translate(0,0)"/>
<path d="" fill="#5AA557" transform="translate(0,0)"/>
<path d="" fill="#5A9D54" transform="translate(0,0)"/>
<path d="" fill="#5DA255" transform="translate(0,0)"/>
<path d="" fill="#5A9E51" transform="translate(0,0)"/>
<path d="" fill="#5EA658" transform="translate(0,0)"/>
<path d="" fill="#5BA356" transform="translate(0,0)"/>
<path d="" fill="#5EA557" transform="translate(0,0)"/>
<path d="" fill="#60A457" transform="translate(0,0)"/>
<path d="" fill="#5FA755" transform="translate(0,0)"/>
<path d="" fill="#61A757" transform="translate(0,0)"/>
<path d="" fill="#5EA656" transform="translate(0,0)"/>
<path d="" fill="#5FA856" transform="translate(0,0)"/>
<path d="" fill="#5DA556" transform="translate(0,0)"/>
<path d="" fill="#5DA456" transform="translate(0,0)"/>
<path d="" fill="#60A557" transform="translate(0,0)"/>
<path d="" fill="#62A95A" transform="translate(0,0)"/>
<path d="" fill="#61A156" transform="translate(0,0)"/>
<path d="" fill="#61A757" transform="translate(0,0)"/>
<path d="" fill="#62A759" transform="translate(0,0)"/>
<path d="" fill="#60A858" transform="translate(0,0)"/>
<path d="" fill="#62A85B" transform="translate(0,0)"/>
<path d="" fill="#62AA59" transform="translate(0,0)"/>
<path d="" fill="#62A959" transform="translate(0,0)"/>
<path d="" fill="#60A75A" transform="translate(0,0)"/>
<path d="" fill="#60AB59" transform="translate(0,0)"/>
<path d="" fill="#63AB5B" transform="translate(0,0)"/>
<path d="" fill="#64A959" transform="translate(0,0)"/>
<path d="" fill="#5EA757" transform="translate(0,0)"/>
<path d="" fill="#5FA759" transform="translate(0,0)"/>
<path d="" fill="#60A75B" transform="translate(0,0)"/>
<path d="" fill="#5FA75B" transform="translate(0,0)"/>
<path d="" fill="#60AA57" transform="translate(0,0)"/>
<path d="" fill="#60A659" transform="translate(0,0)"/>
<path d="" fill="#60A758" transform="translate(0,0)"/>
<path d="" fill="#60A758" transform="translate(0,0)"/>
<path d="" fill="#5EA659" transform="translate(0,0)"/>
<path d="" fill="#5CA656" transform="translate(0,0)"/>
<path d="" fill="#60A558" transform="translate(0,0)"/>
<path d="" fill="#60A558" transform="translate(0,0)"/>
<path d="" fill="#5FA658" transform="translate(0,0)"/>
<path d="" fill="#60AA58" transform="translate(0,0)"/>
<path d="" fill="#5FA656" transform="translate(0,0)"/>
<path d="" fill="#60A858" transform="translate(0,0)"/>
<path d="" fill="#5EA858" transform="translate(0,0)"/>
<path d="" fill="#5DA959" transform="translate(0,0)"/>
<path d="" fill="#5EA858" transform="translate(0,0)"/>
<path d="" fill="#60A757" transform="translate(0,0)"/>
<path d="" fill="#61A658" transform="translate(0,0)"/>
<path d="" fill="#5EA558" transform="translate(0,0)"/>
<path d="" fill="#60A657" transform="translate(0,0)"/>
<path d="" fill="#5FA757" transform="translate(0,0)"/>
<path d="" fill="#61A654" transform="translate(0,0)"/>
<path d="" fill="#5EA758" transform="translate(0,0)"/>
<path d="" fill="#5DA957" transform="translate(0,0)"/>
<path d="" fill="#5EA654" transform="translate(0,0)"/>
<path d="" fill="#5FA758" transform="translate(0,0)"/>
<path d="" fill="#61A858" transform="translate(0,0)"/>
<path d="" fill="#5FA557" transform="translate(0,0)"/>
<path d="" fill="#5FA858" transform="translate(0,0)"/>
<path d="" fill="#5FA857" transform="translate(0,0)"/>
<path d="" fill="#5FA957" transform="translate(0,0)"/>
<path d="" fill="#61A858" transform="translate(0,0)"/>
<path d="" fill="#5EA857" transform="translate(0,0)"/>
<path d="" fill="#5EA859" transform="translate(0,0)"/>
<path d="" fill="#5EA857" transform="translate(0,0)"/>
<path d="" fill="#5FA757" transform="translate(0,0)"/>
<path d="" fill="#5CA756" transform="translate(0,0)"/>
<path d="" fill="#5FA556" transform="translate(0,0)"/>
<path d="" fill="#63B15A" transform="translate(0,0)"/>
<path d="" fill="#5EA557" transform="translate(0,0)"/>
<path d="" fill="#5DA557" transform="translate(0,0)"/>
<path d="" fill="#5DA657" transform="translate(0,0)"/>
<path d="" fill="#5EA455" transform="translate(0,0)"/>
<path d="" fill="#60A859" transform="translate(0,0)"/>
<path d="" fill="#5FA658" transform="translate(0,0)"/>
<path d="" fill="#5EA555" transform="translate(0,0)"/>
<path d="" fill="#5DA555" transform="translate(0,0)"/>
<path d="" fill="#5FA658" transform="translate(0,0)"/>
<path d="" fill="#5FA756" transform="translate(0,0)"/>
<path d="" fill="#5EA458" transform="translate(0,0)"/>
<path d="" fill="#5CA353" transform="translate(0,0)"/>
<path d="" fill="#5BA456" transform="translate(0,0)"/>
<path d="" fill="#5DA758" transform="translate(0,0)"/>
<path d="" fill="#5EA556" transform="translate(0,0)"/>
<path d="" fill="#5EA457" transform="translate(0,0)"/>
<path d="" fill="#5EA658" transform="translate(0,0)"/>
<path d="" fill="#5FA658" transform="translate(0,0)"/>
<path d="" fill="#5EA556" transform="translate(0,0)"/>
<path d="" fill="#5CA255" transform="translate(0,0)"/>
<path d="" fill="#5EA758" transform="translate(0,0)"/>
<path d="" fill="#5DA254" transform="translate(0,0)"/>
<path d="" fill="#5EA155" transform="translate(0,0)"/>
<path d="" fill="#5BA354" transform="translate(0,0)"/>
<path d="" fill="#5DA255" transform="translate(0,0)"/>
<path d="" fill="#5AA456" transform="translate(0,0)"/>
<path d="" fill="#5DA457" transform="translate(0,0)"/>
<path d="" fill="#5DA756" transform="translate(0,0)"/>
<path d="" fill="#5BA556" transform="translate(0,0)"/>
<path d="" fill="#5BA655" transform="translate(0,0)"/>
<path d="" fill="#5AA356" transform="translate(0,0)"/>
<path d="" fill="#5FA95A" transform="translate(0,0)"/>
<path d="" fill="#5EA957" transform="translate(0,0)"/>
<path d="" fill="#5CA358" transform="translate(0,0)"/>
<path d="" fill="#5CA656" transform="translate(0,0)"/>
<path d="" fill="#58A354" transform="translate(0,0)"/>
<path d="" fill="#5DA357" transform="translate(0,0)"/>
<path d="" fill="#5CA354" transform="translate(0,0)"/>
<path d="" fill="#5BA257" transform="translate(0,0)"/>
<path d="" fill="#5CA257" transform="translate(0,0)"/>
<path d="" fill="#5AA456" transform="translate(0,0)"/>
<path d="" fill="#5DA558" transform="translate(0,0)"/>
<path d="" fill="#5CA555" transform="translate(0,0)"/>
<path d="" fill="#5DA657" transform="translate(0,0)"/>
<path d="" fill="#5CA355" transform="translate(0,0)"/>
<path d="" fill="#5CA456" transform="translate(0,0)"/>
<path d="" fill="#5FA556" transform="translate(0,0)"/>
<path d="" fill="#5CA253" transform="translate(0,0)"/>
<path d="" fill="#5BA355" transform="translate(0,0)"/>
<path d="" fill="#5AA756" transform="translate(0,0)"/>
<path d="" fill="#5DA456" transform="translate(0,0)"/>
<path d="" fill="#5EA455" transform="translate(0,0)"/>
<path d="" fill="#5FA656" transform="translate(0,0)"/>
<path d="" fill="#58A256" transform="translate(0,0)"/>
<path d="" fill="#5CA256" transform="translate(0,0)"/>
<path d="" fill="#5EA557" transform="translate(0,0)"/>
<path d="" fill="#5D7646" transform="translate(0,0)"/>
<path d="" fill="#5DA257" transform="translate(0,0)"/>
<path d="" fill="#5DA356" transform="translate(0,0)"/>
<path d="" fill="#5FA657" transform="translate(0,0)"/>
<path d="" fill="#61AB58" transform="translate(0,0)"/>
<path d="" fill="#5FA656" transform="translate(0,0)"/>
<path d="" fill="#60A658" transform="translate(0,0)"/>
<path d="" fill="#60A957" transform="translate(0,0)"/>
<path d="" fill="#61AB59" transform="translate(0,0)"/>
<path d="" fill="#5EA65B" transform="translate(0,0)"/>
<path d="" fill="#61A95B" transform="translate(0,0)"/>
<path d="" fill="#63A959" transform="translate(0,0)"/>
<path d="" fill="#61A659" transform="translate(0,0)"/>
<path d="" fill="#62AB5A" transform="translate(0,0)"/>
<path d="" fill="#63AB5B" transform="translate(0,0)"/>
<path d="" fill="#61A958" transform="translate(0,0)"/>
<path d="" fill="#61AA5C" transform="translate(0,0)"/>
<path d="" fill="#63AA5A" transform="translate(0,0)"/>
<path d="" fill="#5EA75A" transform="translate(0,0)"/>
<path d="" fill="#62AA59" transform="translate(0,0)"/>
<path d="" fill="#63A959" transform="translate(0,0)"/>
<path d="" fill="#62A85A" transform="translate(0,0)"/>
<path d="" fill="#60AA5B" transform="translate(0,0)"/>
<path d="" fill="#65AA5A" transform="translate(0,0)"/>
<path d="" fill="#64AA5A" transform="translate(0,0)"/>
</svg>
